<?xml version="1.0" standalone="no"?><!DOCTYPE svg PUBLIC "-//W3C//DTD SVG 1.1//EN" "http://www.w3.org/Graphics/SVG/1.1/DTD/svg11.dtd"><svg t="1773282283444" class="icon" viewBox="0 0 1024 1024" version="1.1" xmlns="http://www.w3.org/2000/svg" p-id="3716" xmlns:xlink="http://www.w3.org/1999/xlink" width="200" height="200"><path d="M773.8 577.1c-3.3 85-134.5 99-206.9 56.4-72.5-42.6-130-171.9-55.5-210.5 21.9-11.3 16.2-1.5 88.7 41.1s177.5 17.4 173.7 113m-540.5-36.7c-70.7-45.5-17-167.9 55.4-210.5 72.5-42.6 211.3-28.6 206.9 56.4-1.3 24.9-6.9 15-79.3 57.6-72.4 42.5-103.5 147.6-183 96.5M541.6 87.7c74.1-39.6 151.5 69 151.5 154.1s-81.3 200.5-151.5 154.1c-20.6-13.6-9.4-13.6-9.4-98.7 0-85.1-73.9-165 9.4-209.5m-31.4-79c-214 0-387.6 176.5-387.6 394.3 0 217.7 173.5 394.3 387.6 394.3 214 0 387.6-176.5 387.6-394.3S724.3 8.7 510.2 8.7m105.4 930.7c-6.9 0-13.5-3-18.1-8-4.7-5.1-7-11.9-6.4-18.8 0.2-2.6 0.3-5.2 0.3-7.8 0-47.5-36.4-86-81.2-86s-81.2 38.5-81.2 86c0 2.6 0.1 5.3 0.3 7.8 0.6 6.9-1.7 13.7-6.4 18.8-4.6 5.1-11.2 8-18.1 8H304.1c-13.7 0.1-24.6 11.3-24.5 25v25.3c-0.1 13.7 10.9 24.9 24.6 25h412.2c13.7-0.1 24.7-11.3 24.6-25v-25.3c0.1-6.6-2.5-12.9-7.1-17.6-4.6-4.7-10.9-7.3-17.5-7.4H615.6z m0 0" p-id="3717"></path></svg>