<?xml version="1.0" standalone="no"?><!DOCTYPE svg PUBLIC "-//W3C//DTD SVG 1.1//EN" "http://www.w3.org/Graphics/SVG/1.1/DTD/svg11.dtd"><svg t="1773282272990" class="icon" viewBox="0 0 1024 1024" version="1.1" xmlns="http://www.w3.org/2000/svg" p-id="3066" xmlns:xlink="http://www.w3.org/1999/xlink" width="200" height="200"><path d="M-103.0069119 570.87560059A1601.91343882 1601.91343882 0 0 1-109.3760402 425.47306192c0-210.33657837 37.98175289-380.82726875 84.81814756-380.82726874h1073.12044562c46.83639467 0 84.81814755 170.49069037 84.81814755 380.82726874 0 51.49673245-2.25249659 100.5856237-6.36912828 145.40253867H-103.0069119z m1011.37097007-396.361728a43.26346903 43.26346903 0 1 0-0.0776723 86.44926578 43.26346903 43.26346903 0 0 0 0.0776723-86.44926578z m217.79311881 404.98335289c-13.20429037 133.51867733-42.95277985 226.72543289-77.594624 226.72543289h-372.12797155v147.96572445a25.0881517 25.0881517 0 0 1-25.0881517 25.0881517h-1.70879053a25.0881517 25.0881517 0 0 1-25.0881517-25.0881517v-147.96572445H399.53284513v147.96572445a25.0881517 25.0881517 0 0 1-25.0881517 25.0881517h-1.78646282a25.0881517 25.0881517 0 0 1-25.0881517-25.0881517v-147.96572445H-24.55789264c-34.64184415 0-64.39033363-93.20675555-77.594624-226.72543289h1228.30969362z m-778.58709807 113.4015526c0 23.45703348 18.9520403 42.40907378 42.40907378 42.40907377h244.04635496a42.33140148 42.33140148 0 0 0 42.40907378-42.40907377v-1.70879053a42.33140148 42.33140148 0 0 0-42.40907378-42.40907377H389.97915269a42.33140148 42.33140148 0 0 0-42.40907378 42.40907377v1.70879053z" p-id="3067"></path></svg>