<?xml version="1.0" standalone="no"?><!DOCTYPE svg PUBLIC "-//W3C//DTD SVG 1.1//EN" "http://www.w3.org/Graphics/SVG/1.1/DTD/svg11.dtd"><svg t="1773282289927" class="icon" viewBox="0 0 1024 1024" version="1.1" xmlns="http://www.w3.org/2000/svg" p-id="4206" xmlns:xlink="http://www.w3.org/1999/xlink" width="200" height="200"><path d="M514.493736 424.240083m-218.730076 0a218.730076 218.730076 0 1 0 437.460153 0 218.730076 218.730076 0 1 0-437.460153 0Z" p-id="4207"></path><path d="M828.334262 0h-632.668524a95.502478 95.502478 0 0 0-95.502478 95.502478v832.995044a95.502478 95.502478 0 0 0 95.502478 95.502478h632.668524a95.502478 95.502478 0 0 0 95.502478-95.502478V95.480698a95.502478 95.502478 0 0 0-95.502478-95.480698z m-313.862305 124.316566A299.901738 299.901738 0 0 1 814.395474 424.34898a299.901738 299.901738 0 0 1-299.923517 299.923517 299.923517 299.923517 0 0 1-299.923517-299.923517 299.923517 299.923517 0 0 1 299.923517-300.032414z m-132.200693 780.768148a37.22092 37.22092 0 0 1-37.220921 37.22092h-93.280983a37.22092 37.22092 0 0 1-37.22092-37.22092v-13.938788a37.22092 37.22092 0 0 1 37.22092-37.22092h93.280983a37.22092 37.22092 0 0 1 37.220921 37.22092z m213.590148 0a37.22092 37.22092 0 0 1-37.22092 37.22092h-93.280984a37.22092 37.22092 0 0 1-37.22092-37.22092v-13.938788a37.22092 37.22092 0 0 1 37.22092-37.22092h93.280984a37.22092 37.22092 0 0 1 37.22092 37.22092z m218.708297 0a37.22092 37.22092 0 0 1-37.22092 37.22092h-93.259204a37.22092 37.22092 0 0 1-37.22092-37.22092v-13.938788a37.22092 37.22092 0 0 1 37.22092-37.22092h93.259204a37.22092 37.22092 0 0 1 37.22092 37.22092z" p-id="4208"></path></svg>