<?xml version="1.0" standalone="no"?><!DOCTYPE svg PUBLIC "-//W3C//DTD SVG 1.1//EN" "http://www.w3.org/Graphics/SVG/1.1/DTD/svg11.dtd"><svg t="1773282287837" class="icon" viewBox="0 0 1024 1024" version="1.1" xmlns="http://www.w3.org/2000/svg" p-id="4041" xmlns:xlink="http://www.w3.org/1999/xlink" width="200" height="200"><path d="M913.066667 93.866667h-802.133334c-29.013333 0-51.2 22.186667-51.2 51.2v314.026666c0 13.653333 11.946667 25.6 25.6 25.6h853.333334c13.653333 0 25.6-11.946667 25.6-25.6V145.066667c0-29.013333-22.186667-51.2-51.2-51.2z m-102.4 220.16H768c-13.653333 0-25.6-11.946667-25.6-25.6s11.946667-25.6 25.6-25.6h42.666667c13.653333 0 25.6 11.946667 25.6 25.6s-11.946667 25.6-25.6 25.6z" fill="#333333" p-id="4042"></path><path d="M256 653.653333h-54.613333c-49.493333 0-92.16-30.72-105.813334-78.506666l-34.133333-109.226667c-3.413333-13.653333 3.413333-27.306667 17.066667-32.426667 13.653333-3.413333 27.306667 3.413333 32.426666 17.066667l34.133334 109.226667c8.533333 25.6 30.72 42.666667 56.32 42.666666H256c13.653333 0 25.6 11.946667 25.6 25.6s-11.946667 25.6-25.6 25.6zM822.613333 653.653333H768c-13.653333 0-25.6-11.946667-25.6-25.6s11.946667-25.6 25.6-25.6h54.613333c25.6 0 49.493333-17.066667 56.32-42.666666l34.133334-109.226667c3.413333-13.653333 18.773333-20.48 32.426666-17.066667 13.653333 3.413333 20.48 18.773333 17.066667 32.426667l-34.133333 109.226667c-13.653333 47.786667-56.32 78.506667-105.813334 78.506666zM256 930.133333c-13.653333 0-25.6-11.946667-25.6-25.6s11.946667-25.6 25.6-25.6c121.173333 0 124.586667-267.946667 124.586667-271.36 0-13.653333 11.946667-25.6 25.6-25.6s25.6 11.946667 25.6 25.6-3.413333 322.56-175.786667 322.56zM768 930.133333c-172.373333 0-175.786667-308.906667-175.786667-322.56 0-13.653333 11.946667-25.6 25.6-25.6s25.6 11.946667 25.6 25.6c0 3.413333 3.413333 271.36 124.586667 271.36 13.653333 0 25.6 11.946667 25.6 25.6s-11.946667 25.6-25.6 25.6zM512 930.133333c-13.653333 0-25.6-11.946667-25.6-25.6V607.573333c0-13.653333 11.946667-25.6 25.6-25.6s25.6 11.946667 25.6 25.6V904.533333c0 13.653333-11.946667 25.6-25.6 25.6z" fill="#333333" p-id="4043"></path></svg>