<?xml version="1.0" standalone="no"?><!DOCTYPE svg PUBLIC "-//W3C//DTD SVG 1.1//EN" "http://www.w3.org/Graphics/SVG/1.1/DTD/svg11.dtd"><svg t="1773282264445" class="icon" viewBox="0 0 1024 1024" version="1.1" xmlns="http://www.w3.org/2000/svg" p-id="2578" xmlns:xlink="http://www.w3.org/1999/xlink" width="200" height="200"><path d="M327.68 113.664q23.552 0 40.96 16.896t17.408 41.472l0 794.624q0 23.552-17.408 40.448t-40.96 16.896l-135.168 0q-24.576 0-41.472-16.896t-16.896-40.448l0-794.624q0-24.576 16.896-41.472t41.472-16.896l135.168 0zM347.136 548.864q0-8.192-6.144-14.336t-14.336-6.144-13.824 6.144-5.632 14.336l0 104.448q0 8.192 5.632 14.336t13.824 6.144 14.336-6.144 6.144-14.336l0-104.448zM820.224 113.664q24.576 0 41.472 18.432t16.896 51.2l0 794.624q0 15.36-16.896 30.72t-41.472 15.36l-322.56 0q-24.576 0-41.472-16.896t-16.896-40.448l0-794.624q0-24.576 16.896-41.472t41.472-16.896l322.56 0zM519.168 548.864q0-8.192-5.632-14.336t-13.824-6.144-14.336 6.144-6.144 14.336l0 104.448q0 8.192 6.144 14.336t14.336 6.144 13.824-6.144 5.632-14.336l0-104.448zM772.096 277.504q0-17.408-9.216-28.672t-23.552-11.264l-153.6 0q-14.336 0-23.552 11.264t-9.216 28.672l0 105.472q0 17.408 9.216 29.184t23.552 11.776l153.6 0q14.336 0 23.552-11.776t9.216-29.184l0-105.472z" p-id="2579"></path></svg>