<?xml version="1.0" standalone="no"?><!DOCTYPE svg PUBLIC "-//W3C//DTD SVG 1.1//EN" "http://www.w3.org/Graphics/SVG/1.1/DTD/svg11.dtd"><svg t="1773282267600" class="icon" viewBox="0 0 1024 1024" version="1.1" xmlns="http://www.w3.org/2000/svg" p-id="2742" xmlns:xlink="http://www.w3.org/1999/xlink" width="200" height="200"><path d="M712.217899 48.809339q22.910506 16.933852 38.848249 39.346304t25.898833 43.330739q10.957198 24.902724 16.933852 49.805447 3.984436-0.996109 10.957198 1.992218 5.976654 1.992218 15.937743 6.972763t26.894942 14.941634q15.937743 10.957198 25.898833 19.922179t14.941634 16.933852q5.976654 8.964981 8.964981 16.933852l-763.019455 0q2.988327-6.972763 7.968872-14.941634 4.980545-6.972763 12.949416-15.439689t20.918288-18.428016q12.949416-8.964981 24.404669-14.44358t19.424125-9.463035q9.961089-3.984436 17.929961-5.976654 5.976654-22.910506 16.933852-45.821012 8.964981-19.922179 23.40856-42.33463t36.357977-40.342412q25.898833-20.918288 60.264591-31.377432t66.241245-15.439689q36.856031-4.980545 74.708171-4.980545 21.914397 0 46.817121 1.494163t50.801556 6.474708 50.801556 14.941634 47.81323 25.898833zM515.984436 45.821012q-31.875486 1.992218-59.766537 5.976654-23.906615 3.984436-48.311284 10.957198t-38.350195 18.92607q-15.937743 13.945525-25.400778 28.88716t-15.439689 26.894942q-6.972763 14.941634-10.957198 27.891051 28.88716-2.988327 61.758755-5.976654 27.891051-1.992218 63.252918-4.48249t73.214008-2.490272q39.844358 0 76.202335 2.490272t63.252918 4.48249q31.875486 2.988327 58.770428 5.976654-3.984436-16.933852-11.953307-32.871595-6.972763-13.945525-17.431907-28.389105t-27.392996-25.400778q-30.879377-19.922179-68.731518-25.898833t-72.715953-6.972763zM880.560311 329.712062q33.867704 0 33.867704 35.859922 0 14.941634-8.466926 24.902724t-21.416342 9.961089l-28.88716 0 0 303.81323q0 22.910506-6.972763 44.824903t-32.871595 47.81323q-13.945525 12.949416-26.894942 19.922179t-23.906615 10.957198q-11.953307 3.984436-23.906615 5.976654l0 41.836576q0 13.945525-10.957198 21.914397t-24.902724 8.964981q-13.945525 0-24.902724-8.964981t-10.957198-21.914397l0-38.848249-301.821012 0 0 38.848249q0 13.945525-11.953307 20.918288t-23.906615 6.972763q-13.945525 0-24.404669-7.968872t-10.459144-21.914397q0-4.980545-0.498054-11.455253t-0.498054-13.447471l0-15.937743q-7.968872 0-15.937743-2.988327-6.972763-1.992218-15.937743-5.976654t-17.929961-9.961089q-31.875486-21.914397-47.315175-50.303502t-15.439689-69.229572l0-18.92607q0-15.937743-0.498054-37.354086t-0.498054-47.315175l0-52.793774 0-137.463035-26.894942 0q-15.937743 0-26.894942-8.964981t-10.957198-25.898833q0-15.937743 8.466926-25.898833t25.400778-9.961089l367.564202 0 361.587549 0zM561.805447 668.389105l-71.719844 0 0 67.735409 71.719844 0 0-67.735409z" p-id="2743"></path></svg>