<?xml version="1.0" standalone="no"?><!DOCTYPE svg PUBLIC "-//W3C//DTD SVG 1.1//EN" "http://www.w3.org/Graphics/SVG/1.1/DTD/svg11.dtd"><svg t="1773282285673" class="icon" viewBox="0 0 1024 1024" version="1.1" xmlns="http://www.w3.org/2000/svg" p-id="3876" xmlns:xlink="http://www.w3.org/1999/xlink" width="200" height="200"><path d="M768 725.333333V213.333333q0-35.797333-21.205333-59.648Q723.968 128 682.666667 128q-41.301333 0-64.128 25.685333Q597.333333 177.578667 597.333333 213.333333v266.666667h-85.333333V213.333333q0-68.224 42.794667-116.352Q603.050667 42.666667 682.666667 42.666667q79.616 0 127.872 54.314666Q853.333333 145.109333 853.333333 213.333333v512h-85.333333z" p-id="3877"></path><path d="M698.666667 725.333333h224L938.666667 853.333333h-256l16-128z" p-id="3878"></path><path d="M640.341333 848.042667l16-128a42.666667 42.666667 0 0 1 42.325334-37.376h224a42.666667 42.666667 0 0 1 42.325333 37.376l16 128A42.666667 42.666667 0 0 1 938.666667 896h-256a42.666667 42.666667 0 0 1-42.325334-47.957333z m250.026667-37.376h-159.36l5.333333-42.666667h148.650667l5.333333 42.666667zM106.666667 618.666667V335.914667q0-68.437333 48.384-116.864Q203.52 170.666667 271.914667 170.666667q134.784 0 230.101333 95.317333T597.333333 496.085333v354.816q0 18.688-13.226666 31.872-13.226667 13.226667-31.872 13.226667H213.333333a42.666667 42.666667 0 1 1 0-85.333333h298.666667v-314.581334q0-99.413333-70.314667-169.770666Q371.370667 256 271.872 256q-33.066667 0-56.448 23.424-23.424 23.381333-23.424 56.490667V618.666667a42.666667 42.666667 0 1 1-85.333333 0z" p-id="3879"></path><path d="M341.333333 725.333333q0 6.272-0.597333 12.544-0.64 6.272-1.877333 12.416-1.194667 6.186667-3.029334 12.202667-1.834667 5.973333-4.266666 11.818667-2.389333 5.802667-5.333334 11.349333-2.986667 5.546667-6.485333 10.794667-3.456 5.205333-7.466667 10.069333-3.968 4.864-8.448 9.301333-4.437333 4.48-9.301333 8.448-4.864 4.010667-10.069333 7.466667-5.248 3.498667-10.794667 6.485333-5.546667 2.986667-11.349333 5.376-5.802667 2.389333-11.818667 4.224-6.016 1.834667-12.202667 3.029334-6.144 1.28-12.373333 1.877333Q219.562667 853.333333 213.333333 853.333333t-12.544-0.597333q-6.272-0.64-12.416-1.877333-6.186667-1.194667-12.202666-3.029334-5.973333-1.834667-11.818667-4.266666-5.802667-2.389333-11.349333-5.333334-5.546667-2.986667-10.794667-6.485333-5.205333-3.456-10.069333-7.466667-4.864-3.968-9.301334-8.448-4.48-4.437333-8.448-9.301333-4.010667-4.864-7.466666-10.069333-3.498667-5.248-6.485334-10.794667-2.986667-5.546667-5.376-11.349333-2.389333-5.802667-4.224-11.818667-1.834667-6.016-3.029333-12.202667-1.28-6.144-1.877333-12.416Q85.333333 731.605333 85.333333 725.333333t0.597334-12.544q0.64-6.272 1.877333-12.416 1.194667-6.186667 3.029333-12.202666 1.834667-5.973333 4.266667-11.818667 2.389333-5.802667 5.333333-11.349333 2.986667-5.546667 6.485334-10.794667 3.456-5.205333 7.466666-10.069333 3.968-4.864 8.448-9.301334 4.437333-4.48 9.301334-8.448 4.864-4.010667 10.069333-7.466666 5.248-3.498667 10.794667-6.485334 5.546667-2.986667 11.349333-5.376 5.802667-2.389333 11.818667-4.224 6.016-1.834667 12.202666-3.029333 6.144-1.28 12.373334-1.877333Q207.104 597.333333 213.333333 597.333333t12.544 0.597334q6.272 0.64 12.416 1.877333 6.186667 1.194667 12.202667 3.029333 5.973333 1.834667 11.818667 4.266667 5.802667 2.389333 11.349333 5.333333 5.546667 2.986667 10.794667 6.485334 5.205333 3.456 10.069333 7.466666 4.864 3.968 9.301333 8.448 4.48 4.437333 8.448 9.301334 4.010667 4.864 7.466667 10.069333 3.498667 5.248 6.485333 10.794667 2.986667 5.546667 5.376 11.349333 2.389333 5.802667 4.224 11.818667 1.834667 6.016 3.029334 12.202666 1.28 6.144 1.877333 12.416Q341.333333 719.061333 341.333333 725.333333z" p-id="3880"></path><path d="M333.994667 845.994667Q384 796.032 384 725.333333q0-70.698667-50.005333-120.661333Q284.032 554.666667 213.333333 554.666667q-70.698667 0-120.661333 50.005333Q42.666667 654.634667 42.666667 725.333333q0 70.698667 50.005333 120.661334Q142.634667 896 213.333333 896q70.698667 0 120.661334-50.005333z m-60.330667-180.992Q298.666667 690.005333 298.666667 725.333333t-25.002667 60.330667Q248.661333 810.666667 213.333333 810.666667t-60.330666-25.002667Q128 760.661333 128 725.333333t25.002667-60.330666Q178.005333 640 213.333333 640t60.330667 25.002667z" p-id="3881"></path><path d="M256 213.333333v405.333334a42.666667 42.666667 0 1 0 85.333333 0V213.333333a42.666667 42.666667 0 0 0-85.333333 0z" p-id="3882"></path></svg>