<?xml version="1.0" standalone="no"?><!DOCTYPE svg PUBLIC "-//W3C//DTD SVG 1.1//EN" "http://www.w3.org/Graphics/SVG/1.1/DTD/svg11.dtd"><svg t="1773282275271" class="icon" viewBox="0 0 1024 1024" version="1.1" xmlns="http://www.w3.org/2000/svg" p-id="3226" xmlns:xlink="http://www.w3.org/1999/xlink" width="200" height="200"><path d="M686.3 409.2H235.5c-35 0.1-63.8 28.9-63.9 63.9v308.6c0.1 35 28.9 63.8 63.9 63.9h450.8c35-0.1 63.8-28.9 63.9-63.9V473c-0.2-35-28.9-63.7-63.9-63.8z" p-id="3227"></path><path d="M799.3 279.4H617c-3.2-12.6-14.2-22.1-27.4-23.4-3.2-9.9-10.2-18.7-20-25.8l77.4-99.3c4.5 2.2 9.6 3.4 15 3.4 19.4 0 35.2-15.8 35.2-35.2S681.5 63.9 662 63.9c-19.4 0-35.2 15.7-35.2 35.2 0 8.6 3.2 16.5 8.3 22.7l-78.6 100.9c-12.7-5.8-27.9-9.3-44.3-9.3-15.8 0-30.5 3.1-42.8 8.6l-53.9-70.5c3-4 4.7-9 4.7-14.5 0-13.9-11.2-25.2-25.2-25.2-13.9 0-25.2 11.3-25.2 25.2 0 13.9 11.2 25.2 25.2 25.2 3 0 5.9-0.6 8.6-1.5l52.5 68.8c-10.5 7.3-18 16.4-21.4 26.8-13.4 1-24.3 10.5-27.5 23.1H224.7c-83.2 0-151.2 68.1-151.2 151.2v378.1c0 83.2 68.1 151.2 151.2 151.2h574.7c83.2 0 151.2-68.1 151.2-151.2v-378c0-83.2-68.1-151.3-151.3-151.3z m-11.4 502.3c-0.1 56.1-45.6 101.6-101.7 101.7H235.5c-56.1-0.1-101.6-45.6-101.7-101.7V473c0.1-56.1 45.6-101.6 101.7-101.7h450.8c56.1 0.1 101.6 45.6 101.7 101.7l-0.1 308.7z m27.5-259.6c0-28.6 23.1-51.6 51.6-51.6 11.1 0 21.3 3.5 29.7 9.4l-71.9 71.9c-5.9-8.4-9.4-18.6-9.4-29.7zM867 667.7c-18.8 0-34.1-15.2-34.1-34.1 0-18.8 15.2-34 34.1-34 18.8 0 34 15.2 34 34s-15.2 34.1-34 34.1z m0-93.9c-11.1 0-21.3-3.5-29.7-9.4l71.9-71.9c5.9 8.4 9.4 18.6 9.4 29.7 0.1 28.4-23 51.6-51.6 51.6z" p-id="3228"></path></svg>