<?xml version="1.0" standalone="no"?><!DOCTYPE svg PUBLIC "-//W3C//DTD SVG 1.1//EN" "http://www.w3.org/Graphics/SVG/1.1/DTD/svg11.dtd"><svg t="1773282277497" class="icon" viewBox="0 0 1024 1024" version="1.1" xmlns="http://www.w3.org/2000/svg" p-id="3391" xmlns:xlink="http://www.w3.org/1999/xlink" width="200" height="200"><path d="M895.104709 0H128.835079A50.500741 50.500741 0 0 0 78.476561 50.346667v154.074074h866.986667v-154.074074A50.500741 50.500741 0 0 0 895.104709 0zM651.809894 131.780741a29.558519 29.558519 0 1 1 29.546667-29.558519 29.558519 29.558519 0 0 1-29.546667 29.558519z m187.176297-4.385185h-75.508149a25.173333 25.173333 0 1 1 0-50.346667h75.508149a25.173333 25.173333 0 0 1 0 50.346667zM693.113598 683.851852V568.071111a41.860741 41.860741 0 0 1 36.894815-41.362963c-37.76-82.808889-121.078519-140.491852-218.074074-140.491852-132.397037 0-239.727407 107.342222-239.727408 239.73926s107.33037 239.727407 239.727408 239.727407c96.96 0 180.278519-57.671111 218.074074-140.48a41.872593 41.872593 0 0 1-36.894815-41.351111z m-254.257778-162.370371a385.315556 385.315556 0 0 0-87.976296 232.580741c-58.074074-75.543704-58.797037-183.703704 4.444444-260.349629a208.888889 208.888889 0 0 1 206.660741-70.862223 385.647407 385.647407 0 0 0-123.128889 98.631111z" p-id="3392"></path><path d="M78.476561 236.586667v736.995555a50.500741 50.500741 0 0 0 50.358518 50.417778h766.26963a50.500741 50.500741 0 0 0 50.358519-50.358519V236.586667z m433.493333 704.628148c-174.115556 0-315.259259-141.143704-315.259259-315.259259s141.143704-315.259259 315.259259-315.25926 315.259259 141.155556 315.259259 315.25926-141.131852 315.259259-315.259259 315.259259z" p-id="3393"></path></svg>