<?xml version="1.0" standalone="no"?><!DOCTYPE svg PUBLIC "-//W3C//DTD SVG 1.1//EN" "http://www.w3.org/Graphics/SVG/1.1/DTD/svg11.dtd"><svg t="1773282280799" class="icon" viewBox="0 0 1024 1024" version="1.1" xmlns="http://www.w3.org/2000/svg" p-id="3556" xmlns:xlink="http://www.w3.org/1999/xlink" width="200" height="200"><path d="M142.5 420.6c-0.6 0-1.2 0.1-1.8 0.4v294.5c0.6 0.2 1.2 0.4 1.8 0.4h565.6c0.6 0 1.2-0.1 1.8-0.4V421c-0.6-0.2-1.2-0.4-1.8-0.4H142.5zM973.9 154H51c-23.7 0-43 21-43 47v601.9c0 25.9 19.2 47 43 47h922.9c23.7 0 43-21 43-47V201c0-25.9-19.2-47-43-47zM165.3 276.4c0-2.3 9.9-4.2 22.2-4.2h477.4c12.3 0 22.2 1.9 22.2 4.2v54.2c0 2.3-9.9 4.2-22.2 4.2H187.5c-12.3 0-22.2-1.9-22.2-4.2v-54.2z m569.2 440.3c0 12.8-11.8 23.2-26.3 23.2H142.5c-14.5 0-26.3-10.4-26.3-23.2v-297c0-12.8 11.8-23.2 26.3-23.2h565.6c14.6 0 26.3 10.4 26.3 23.2v297zM881.2 734c-18 10.2-40.3 10.2-58.3 0s-29.2-29.1-29.2-49.6 11.1-39.4 29.2-49.6c18-10.2 40.3-10.2 58.3 0s29.2 29.1 29.2 49.6-11.1 39.3-29.2 49.6z m0-174.8c-18 10.2-40.3 10.2-58.3 0s-29.2-29.1-29.2-49.6 11.1-39.3 29.2-49.6c18-10.2 40.3-10.2 58.3 0s29.2 29.1 29.2 49.6-11.1 39.4-29.2 49.6z m0-174.7c-18 10.2-40.3 10.2-58.3 0s-29.2-29.1-29.2-49.6 11.1-39.3 29.2-49.6c18-10.2 40.3-10.2 58.3 0s29.2 29.1 29.2 49.6-11.1 39.4-29.2 49.6z" p-id="3557"></path></svg>