<?xml version="1.0" standalone="no"?><!DOCTYPE svg PUBLIC "-//W3C//DTD SVG 1.1//EN" "http://www.w3.org/Graphics/SVG/1.1/DTD/svg11.dtd"><svg t="1773285235796" class="icon" viewBox="0 0 1024 1024" version="1.1" xmlns="http://www.w3.org/2000/svg" p-id="3980" xmlns:xlink="http://www.w3.org/1999/xlink" width="200" height="200"><path d="M852.850062 405.617778a135.850667 135.850667 0 0 1-161.621333-105.244445c-15.587556-74.524444 61.781333-151.893333 76.231111-300.373333 14.336 0 174.990222 169.528889 190.577778 243.484444a136.533333 136.533333 0 0 1-105.187556 162.133334z m70.769778-131.413334a133.518222 133.518222 0 0 0-37.489778-91.591111 520.192 520.192 0 0 1 18.716445 91.591111 450.958222 450.958222 0 0 1-37.432889 91.591112 204.8 204.8 0 0 0 56.149333-91.591112zM381.127396 1024a320.227556 320.227556 0 0 1-319.203556-320.853333c0-176.924444 214.584889-317.44 319.203556-650.24 32.938667 6.826667 319.260444 473.315556 319.260444 650.24A320.227556 320.227556 0 0 1 381.127396 1024z m205.255111-292.408889a694.044444 694.044444 0 0 1-74.922667 182.613333 223.971556 223.971556 0 0 0 131.128889-200.817777c-5.347556-141.084444-74.922667-164.977778-74.922667-164.977778a416.768 416.768 0 0 1 18.716445 183.182222z m0 0" fill="#FFFFFF" p-id="3981"></path></svg>