<?xml version="1.0" standalone="no"?><!DOCTYPE svg PUBLIC "-//W3C//DTD SVG 1.1//EN" "http://www.w3.org/Graphics/SVG/1.1/DTD/svg11.dtd"><svg t="1773285244017" class="icon" viewBox="0 0 1024 1024" version="1.1" xmlns="http://www.w3.org/2000/svg" p-id="4656" xmlns:xlink="http://www.w3.org/1999/xlink" width="200" height="200"><path d="M929.6 373.1L804.9 219.7V97.8c0-17.2-15-31.1-33.4-31.1H363.8c-18.5 0-33.4 13.9-33.4 31.1v120.9L199 361.9c-5.2 5.6-8 12.8-8 20.2v549c0 17.2 15 31.1 33.4 31.1H903c18.4 0 33.4-13.9 33.4-31.1V391.9c0-6.8-2.4-13.4-6.8-18.8z" fill="#6F86CA" p-id="4657"></path><path d="M224.4 942.2c-7.4 0-13.4-5-13.4-11.1v-549c0-2.4 1-4.8 2.8-6.7l136.6-148.9V97.8c0-6.1 6-11.1 13.4-11.1h407.7c7.4 0 13.4 5 13.4 11.1v129l129.2 158.9c1.5 1.8 2.3 4 2.3 6.2v539.2c0 6-6.1 11.1-13.4 11.1H224.4z" fill="#A4BEFD" p-id="4658"></path><path d="M377.2 218.6v-96.7c0-7.1 5.8-12.9 12.9-12.9h355c7.1 0 12.9 5.8 12.9 12.9v96.7c0 7.1-5.8 12.9-12.9 12.9h-355c-7.1 0-12.9-5.8-12.9-12.9zM249.1 917.4V413.7c0-0.5 0.2-0.9 0.5-1.3l130.9-142.7c0-0.1 0.1-0.1 0.1-0.2l2.6-1.3h335.9c1.7 0 2.5 1.9 1.5 3.2l-104.2 120C611.6 397 609 404 609 411v506.4c0 1.1-0.9 1.9-1.9 1.9H251c-1.1 0.1-1.9-0.8-1.9-1.9z" fill="#6F86CA" p-id="4659"></path><path d="M663.6 917.3V401.1c0-3.8 1.4-7.4 3.8-10.3l100.1-115.3c6.4-7.3 17.8-7.2 24 0.4L885.1 391c2.3 2.8 3.5 6.3 3.5 9.9v516.4c0 1.5-1.2 2.7-2.7 2.7H666.3c-1.5 0-2.7-1.2-2.7-2.7z" fill="#6F86CA" p-id="4660"></path><path d="M562.1 425.3h-260c-5.5 0-10-4.5-10-10s4.5-10 10-10h260c5.5 0 10 4.5 10 10 0 5.6-4.5 10-10 10z" fill="#FFFFFF" p-id="4661"></path></svg>