<?xml version="1.0" standalone="no"?><!DOCTYPE svg PUBLIC "-//W3C//DTD SVG 1.1//EN" "http://www.w3.org/Graphics/SVG/1.1/DTD/svg11.dtd"><svg t="1773285233935" class="icon" viewBox="0 0 1077 1024" version="1.1" xmlns="http://www.w3.org/2000/svg" p-id="3807" xmlns:xlink="http://www.w3.org/1999/xlink" width="210.3515625" height="200"><path d="M0 317.154861h864.408561v203.477733A411.619905 411.619905 0 0 1 452.788656 932.238979h-41.168751A411.619905 411.619905 0 0 1 0 520.619073V317.154861z" fill="#943320" p-id="3808"></path><path d="M20.577615 364.164301h823.239811v109.512933a411.619905 411.619905 0 0 1-411.619906 411.552304A411.619905 411.619905 0 0 1 20.577615 473.609633v-109.512932 0.0676z" fill="#943320" p-id="3809"></path><path d="M53.079972 343.248683h764.116347v192.445319a343.018841 343.018841 0 0 1-343.018841 343.018841H396.139373A343.018841 343.018841 0 0 1 53.079972 535.694002V343.248683z" fill="#F9B973" p-id="3810"></path><path d="M3.082586 977.720646h876.779467v46.279354H3.082586z" fill="#933421" p-id="3811"></path><path d="M259.680851 124.777143h39.289455V284.328021h-39.289455z" fill="#F9B973" p-id="3812"></path><path d="M301.025363 286.383079h-43.399569v-163.593393h43.399569z m-39.289454-4.056035h35.152299v-155.481324h-35.152299z" fill="#541018" p-id="3813"></path><path d="M432.19752 2.055058h46.87424v295.008912h-46.87424z" fill="#F9B973" p-id="3814"></path><path d="M481.140337 299.132547h-50.997874V0h50.997874z m-46.874239-4.056034h42.750604V4.110115H434.266098z" fill="#541018" p-id="3815"></path><path d="M588.35485 152.980103h36.125748v136.161079h-36.125748z" fill="#F9B973" p-id="3816"></path><path d="M626.535655 291.19624h-40.235862V150.911525h40.235862z m-36.112227-4.056035h32.002112v-132.105045H590.423428z" fill="#541018" p-id="3817"></path></svg>