<?xml version="1.0" standalone="no"?><!DOCTYPE svg PUBLIC "-//W3C//DTD SVG 1.1//EN" "http://www.w3.org/Graphics/SVG/1.1/DTD/svg11.dtd"><svg t="1773285228290" class="icon" viewBox="0 0 1067 1024" version="1.1" xmlns="http://www.w3.org/2000/svg" p-id="3468" xmlns:xlink="http://www.w3.org/1999/xlink" width="208.3984375" height="200"><path d="M471.087942 261.499709c22.224096-81.717862 105.348762-129.638437 185.64707-107.019075 80.311059 22.610861 127.415603 107.184832 105.183006 188.902694" fill="#FFA88F" p-id="3469"></path><path d="M491.594973 267.075922c9.363107-34.434811 31.383195-62.953398 62.001361-80.294058 29.861637-16.911394 64.449455-21.127555 97.371209-11.849452 69.009878 19.42324 109.577673 92.492023 90.434944 162.861953a21.25506 21.25506 0 1 0 41.014062 11.156675c25.237461-92.793784-28.556838-189.212956-119.926817-214.926436-43.921173-12.372221-90.035429-6.774758-129.833945 15.780851-40.563545 22.967875-69.711155 60.65406-82.074876 106.118042a21.250809 21.250809 0 1 0 41.014062 11.152425z" fill="#6E6E96" p-id="3470"></path><path d="M893.205519 618.530307c50.181661 172.616074-23.184633 322.391779-354.097987 362.959574-330.909103 0-465.830492-152.81457-465.830491-152.81457-49.314628-68.028091-24.553185-186.089087-24.553185-186.089088C120.475088 159.806086 559.028041 267.500938 559.028041 267.500938c167.460628 20.277522 151.522521 73.034782 151.522521 73.034782 219.669616-41.885345 245.74861 110.601962 223.005993 191.707801-0.038251-4.058905-62.766391 201.444922-215.461956 231.655073" fill="#FFA88F" p-id="3471"></path><path d="M872.796241 624.463533c22.500357 77.416698 16.715887 142.750187-17.208905 194.189896-48.855611 74.093072-156.206199 121.775638-319.072402 141.751399 0.858533-0.097754 1.721316-0.157256 2.579848-0.157256-317.648598 0-448.613086-144.173991-449.896635-145.631797 0.450517 0.510019 0.875533 1.04129 1.275049 1.593811-43.287899-59.714774-21.187057-168.166155-20.961799-169.254196a20.358275 20.358275 0 0 0 0.221009-1.236797c21.187057-142.541929 77.272193-245.332094 166.699849-305.514386 139.481812-93.869075 315.782777-52.489499 317.546594-52.060233 0.803281 0.199758 1.661813 0.352763 2.490595 0.446267 126.582571 15.317583 133.225574 47.920575 133.234074 48.252088 0-0.029751-0.017001-0.752279 0.501519-2.460844a21.250809 21.250809 0 0 0 24.315176 27.014029c80.289808-15.313333 140.323344-4.233161 173.627613 32.02497 32.951505 35.871366 36.266631 92.69178 24.9357 133.081068a21.250809 21.250809 0 0 1 41.719589 5.546462 21.335813 21.335813 0 0 0-17.548919-20.787542c-11.594442-2.061329-20.107516 3.893148-25.326714 17.693424-21.471818 56.845915-83.740939 191.499543-197.96404 214.093404a21.25506 21.25506 0 0 0 8.245314 41.698338c135.133897-26.733518 205.499577-177.282752 229.47474-240.76317 0.454767-1.219796 0.977537-2.605349 1.151794-3.000614-3.077117 7.450534-12.308469 14.212541-23.337639 12.07471a21.182807 21.182807 0 0 1-17.196155-20.617536 21.25931 21.25931 0 1 0 41.719589 5.550712c13.447512-47.950326 12.469975-122.107151-34.558066-173.30035-30.533163-33.240516-92.241263-68.036591-212.890609-45.030465a21.233809 21.233809 0 0 1 24.310926 27.009778c2.588349-8.564076 2.010327-22.84037-7.378281-37.222917-20.447529-31.302442-74.921853-52.5065-161.931167-63.042652 0.845782 0.102004 1.683064 0.26351 2.516096 0.459018-7.918052-1.946574-195.719954-46.424518-351.03787 57.836203-99.955307 67.114306-162.317932 179.743596-185.362309 334.7725 0.063752-0.425016 0.136005-0.824531 0.221008-1.236797-1.088041 5.197948-26.070493 128.12538 28.144572 202.923978 0.399515 0.552521 0.824531 1.083791 1.275048 1.593811 5.76747 6.528249 145.134528 160.001594 481.768599 160.001594 0.862783 0 1.725566-0.055252 2.579848-0.157256 175.795195-21.544071 293.346172-75.555128 349.380307-160.532864 41.103315-62.320124 48.677104-139.520064 22.542858-229.449239a21.242309 21.242309 0 0 0-26.338253-14.471801 21.216808 21.216808 0 0 0-14.467551 26.321252z" fill="#6E6E96" p-id="3472"></path><path d="M427.613036 663.688277l-0.00425 0.029751c0.52277-2.584098 54.716584-259.302376 286.813673-302.292763a21.250809 21.250809 0 1 0-7.739544-41.791841c-108.18787 20.039513-198.027792 84.612223-259.803895 186.743612-46.148258 76.294656-60.369299 146.099314-60.951572 149.031926a21.250809 21.250809 0 0 0 41.685588 8.279315zM916.691913 391.826673l67.20781-67.22056a21.25506 21.25506 0 0 0-30.057145-30.048645l-67.20781 67.229061a21.250809 21.250809 0 0 0 30.057145 30.040144zM677.14429 160.401109l23.052878-79.473777a21.242309 21.242309 0 0 0-14.484552-26.329753 21.242309 21.242309 0 0 0-26.321252 14.488802l-23.052878 79.478027a21.238059 21.238059 0 0 0 14.484551 26.321253 21.250809 21.250809 0 0 0 26.321253-14.484552z" fill="#6E6E96" p-id="3473"></path><path d="M518.81726 431.824946c80.736075-41.983099 309.781548-110.771969 309.781548 51.290954 0 110.240699-74.83685 213.868145-185.795826 287.043182-204.662295 134.980891-35.629107-109.195159-115.408896-86.027526-67.870835 19.712251-17.000647 136.00518-236.296249 190.823767-70.8927 17.723175-142.439925-12.049209-204.857802-33.652781 40.797304 36.576893 180.368369 140.187339 452.854747 140.187339 330.913353-40.567795 404.279647-190.343499 354.097986-362.955324 27.702555-47.767569 40.342536-88.105856 40.355287-86.299536 21.824581-77.777962-17.710425-327.058456-414.730795-100.410075z" fill="#9C5844" p-id="3474"></path><path d="M415.206814 628.207926s12.899241-264.500324 236.742516-341.228496l84.561221 49.395381c0.00425 0-191.41454-26.278751-321.303737 291.833115z" fill="#9C5844" p-id="3475"></path><path d="M728.073979 760.069198s120.560092 11.403184 179.437584-47.474308l-9.516112-76.026896c0 0.01275-78.24123 109.292913-169.921472 123.501204z" fill="#6E6E96" p-id="3476"></path><path d="M465.341723 928.15885c-158.913552 0-275.971511-32.581741-357.0901-68.810121 58.864742 44.605449 195.065429 122.149652 430.843159 122.149652 313.797951-38.468215 395.979081-175.144921 360.855743-336.374811-61.814354 133.144821-207.135889 255.158468-434.608802 283.03528z m458.294955-507.54158c10.50215 36.126376 13.150001 75.635881 8.054056 116.173924 1.253798-3.306626 1.861571-4.951439 1.865821-4.547673 7.314529-26.074743 7.701293-71.402719-9.919877-111.626251z" fill="#9C5844" p-id="3477"></path><path d="M726.335663 424.710175c17.986685 21.875583 12.682483 52.948517-32.8155 90.375443-45.506483 37.431176-96.980194 50.028655-114.979629 28.148822-17.982435-21.871333 4.318164-69.949164 49.816148-107.37609 45.506483-37.426925 79.992297-33.023758 97.978981-11.148175z" fill="#FFFFFF" p-id="3478"></path><path d="M639.997875 30.401408l18.343699 52.128235a21.250809 21.250809 0 0 0 27.103282 12.992745l52.115485-18.339448a21.25506 21.25506 0 0 0-14.110538-40.091777l-52.115485 18.343698a21.26356 21.26356 0 0 1 27.103283 12.992745l-18.335199-52.119735A21.250809 21.250809 0 0 0 652.99912 3.315126a21.238059 21.238059 0 0 0-13.001245 27.086282z" fill="#6E6E96" p-id="3479"></path><path d="M947.616091 254.321186v55.252104a21.250809 21.250809 0 0 0 21.250809 21.25081h55.252105a21.250809 21.250809 0 1 0 0-42.501619h-55.252105a21.250809 21.250809 0 0 1 21.25081 21.250809v-55.252104a21.250809 21.250809 0 1 0-42.501619 0z" fill="#6E6E96" p-id="3480"></path></svg>