<?xml version="1.0" standalone="no"?><!DOCTYPE svg PUBLIC "-//W3C//DTD SVG 1.1//EN" "http://www.w3.org/Graphics/SVG/1.1/DTD/svg11.dtd"><svg t="1773285222661" class="icon" viewBox="0 0 1024 1024" version="1.1" xmlns="http://www.w3.org/2000/svg" p-id="3134" xmlns:xlink="http://www.w3.org/1999/xlink" width="200" height="200"><path d="M631.3 957.4s-86 3.9-126.3-42.1c0 0-17.8 29.5-55.6 40.8-132.4 34.8-213-188.7-234.2-262.8-19.1-66.9-57.4-344.2 81.2-361.9 141.9-18.1 168.2 33.7 241 36.8s93.8-42.6 228.4-29.6c134.6 13 133.3 194.9 100.8 320.8s-67.2 290.3-235.3 298z" fill="#E4054F" p-id="3135"></path><path d="M497.1 67.1c-20.9 24.9 46 216.1 130 136.6 49.3-40.9-115.7-159.5-130-136.6zM529.5 101.6S557.4 221.1 633.9 202" fill="#96E2A9" p-id="3136"></path><path d="M388.4 367.3c8.5 5 16.8 9.7 25.2 14.1 8.4 4.4 16.9 8.5 25.5 12 2.1 0.9 4.3 1.8 6.4 2.6 2.2 0.8 4.3 1.6 6.5 2.4 4.3 1.5 8.7 2.9 13 4.1 8.7 2.4 17.5 4.1 26.3 4.8 17.6 1.5 35.1-1.2 51.5-8.4 1-0.4 2-0.9 3.1-1.4 1-0.5 2.1-0.9 3.1-1.5l3-1.6c1-0.5 2-1.1 3-1.7 4-2.3 7.9-4.8 11.7-7.5l2.9-2c1-0.7 1.9-1.4 2.8-2.1 0.9-0.7 1.9-1.4 2.8-2.2l2.8-2.2 1.4-1.1 1.4-1.2 2.8-2.3c1.9-1.6 3.7-3.2 5.6-4.7-1.1 2.2-2.2 4.4-3.4 6.6-1.3 2.1-2.4 4.3-3.8 6.3-1.3 2.1-2.8 4.1-4.3 6.1s-3.1 3.9-4.7 5.8c-0.8 1-1.7 1.9-2.5 2.8-0.9 0.9-1.7 1.9-2.6 2.8-1.8 1.8-3.6 3.5-5.6 5.2-3.8 3.4-8 6.4-12.4 9.2-4.4 2.8-9 5.2-13.8 7.2-4.8 2-9.8 3.7-15 4.8-5.1 1.2-10.4 2-15.6 2.3-5.2 0.3-10.5 0.3-15.7-0.1-10.4-0.8-20.6-3.2-30.2-6.5-4.8-1.7-9.5-3.6-14.1-5.8-2.3-1.1-4.5-2.2-6.7-3.4-2.2-1.2-4.4-2.5-6.5-3.7-8.6-5.2-16.6-11.1-24-17.7-3.7-3.3-7.2-6.7-10.6-10.3-3.3-3.9-6.5-7.7-9.3-11.7z" fill="#3F3F3F" p-id="3137"></path><path d="M508.7 101.6c7.2 12 13.5 23.6 20.2 34.9 0.8 1.4 1.7 2.8 2.5 4.2l2.5 4.1c1.7 2.7 3.4 5.4 5.2 8.1 3.5 5.3 7.2 10.4 11 15.3 7.7 9.6 16.3 18.2 26.5 24.2 5.1 3 10.7 5.3 16.8 6.9 3 0.8 6.2 1.4 9.5 1.8 3.3 0.4 6.7 0.6 10.2 0.9-6 3.6-13 5.9-20.3 6.6-7.3 0.7-15-0.1-22.2-2.5-7.2-2.3-13.9-6.1-19.8-10.6-6-4.5-11.1-9.8-15.6-15.5-9-11.4-15.4-24.2-19.9-37.4-2.2-6.6-3.9-13.4-5.1-20.2-0.6-3.4-1-6.9-1.3-10.3-0.3-3.5-0.5-7-0.2-10.5z" fill="#3F3F3F" p-id="3138"></path></svg>