<?xml version="1.0" standalone="no"?><!DOCTYPE svg PUBLIC "-//W3C//DTD SVG 1.1//EN" "http://www.w3.org/Graphics/SVG/1.1/DTD/svg11.dtd"><svg t="1773285239722" class="icon" viewBox="0 0 1024 1024" version="1.1" xmlns="http://www.w3.org/2000/svg" p-id="4309" xmlns:xlink="http://www.w3.org/1999/xlink" width="200" height="200"><path d="M818.794 54.27c-8.982-3.672-19.328 0.656-23 9.69L601.588 540.65l32.69 13.328 194.206-476.69c3.69-9.034-0.656-19.336-9.69-23.018z" fill="#E6C8A0" p-id="4310"></path><path d="M900.414 582.624c0-29.252-23.714-52.966-52.966-52.966-6.348 0-12.352 1.3-17.992 3.348 0.072-1.13 0.338-2.202 0.338-3.348 0-29.252-23.714-52.966-52.966-52.966-13.796 0-26.248 5.402-35.674 14.046-1.89-27.538-24.584-49.358-52.602-49.358-13.796 0-26.248 5.402-35.674 14.046-1.89-27.538-24.584-49.358-52.602-49.358-15.352 0-29.062 6.634-38.736 17.068-7.454-20.224-26.728-34.724-49.54-34.724-22.812 0-42.086 14.5-49.54 34.724-9.672-10.436-23.384-17.068-38.736-17.068-28.016 0-50.712 21.82-52.602 49.358-9.426-8.644-21.88-14.046-35.674-14.046-28.016 0-50.712 21.82-52.602 49.358-9.426-8.644-21.88-14.046-35.674-14.046-29.252 0-52.966 23.714-52.966 52.966 0 1.148 0.264 2.218 0.338 3.348-5.64-2.048-11.644-3.348-17.992-3.348-29.252 0-52.966 23.714-52.966 52.966" fill="#FFF5DC" p-id="4311"></path><path d="M561.54 423.142c-7.454-20.224-26.728-34.724-49.54-34.724-22.812 0-42.086 14.5-49.54 34.724-9.672-10.436-23.384-17.068-38.736-17.068-28.016 0-50.712 21.82-52.602 49.358-9.426-8.644-21.88-14.046-35.674-14.046-28.016 0-50.712 21.82-52.602 49.358-9.426-8.644-21.88-14.046-35.674-14.046-29.252 0-52.966 23.714-52.966 52.966 0 1.148 0.264 2.218 0.338 3.348-5.64-2.048-11.644-3.348-17.992-3.348-29.252 0-52.966 23.714-52.966 52.966h264.828v-17.656c0-29.252 23.714-52.966 52.966-52.966 6.348 0 12.352 1.3 17.992 3.348-0.072-1.13-0.338-2.202-0.338-3.348 0-29.252 23.714-52.966 52.966-52.966 13.796 0 26.248 5.402 35.674 14.046 1.89-27.538 28.924-55.984 56.646-60.024 11.956-1.744 20.79 1.486 25.77 2.626-8.454-5.97-18.638-9.614-29.818-9.614-15.348-0.004-29.058 6.63-38.732 17.066z" fill="#FFEBBE" p-id="4312"></path><path d="M639.014 423.976c-0.116 0.398-0.062 0.372 0 0z" fill="#FFF5DC" p-id="4313"></path><path d="M1006.344 582.624C950.83 818.558 797.126 934.488 733.91 973.288c-16.57 10.17-35.6 15.406-55.04 15.406H345.13c-19.442 0-38.47-5.234-55.04-15.406C226.874 934.486 73.17 818.56 17.656 582.624m512-247.172A17.652 17.652 0 0 1 512 317.796c0-15.854-5.482-22.706-13.776-33.068-9.604-11.984-21.534-26.888-21.534-55.138 0-28.268 11.93-43.188 21.518-55.172 8.312-10.38 13.794-17.234 13.794-33.112 0-15.896-5.794-23.128-13.794-33.148-9.586-12.002-21.518-26.922-21.518-55.198a17.652 17.652 0 0 1 17.656-17.656 17.652 17.652 0 0 1 17.656 17.656c0 15.896 5.794 23.128 13.794 33.148 9.586 12.002 21.518 26.922 21.518 55.198 0 28.26-11.93 43.18-21.518 55.164-8.312 10.38-13.794 17.242-13.794 33.122 0 15.854 5.482 22.706 13.776 33.068 9.604 11.984 21.534 26.888 21.534 55.138a17.654 17.654 0 0 1-17.656 17.654z m37.498-88.258a17.506 17.506 0 0 1-11-3.862c-7.62-6.086-8.862-17.198-2.776-24.81 10.93-13.682 29.242-36.586 29.242-77.218 0-16.802-3.034-31.87-9.294-46.06-3.93-8.922 0.122-19.346 9.036-23.276 8.966-3.93 19.362 0.14 23.276 9.036 8.154 18.518 12.292 38.802 12.292 60.302 0 53.01-24.966 84.25-36.966 99.26a17.614 17.614 0 0 1-13.81 6.628zM434.38 300.028a17.664 17.664 0 0 1-16.19-10.578c-8.036-18.362-12.12-38.5-12.12-59.862 0-51.542 23.588-82.482 35.948-97.966a17.66 17.66 0 0 1 5.034-5.086 17.636 17.636 0 0 1 24.484 4.898c3.948 5.932 3.966 13.766 0.018 19.698-11.844 14.914-30.172 37.802-30.172 78.458 0 16.456 3.086 31.828 9.154 45.69 3.912 8.932-0.154 19.346-9.086 23.258a17.6 17.6 0 0 1-7.07 1.49z" fill="#EDEDEE" p-id="4314"></path><path d="M982.434 214.488c-7.448-6.31-18.568-5.362-24.878 2.07l-300.14 354.664 26.966 22.81L984.52 239.368c6.29-7.442 5.362-18.588-2.086-24.88z" fill="#E6C8A0" p-id="4315"></path><path d="M1006.344 582.624H17.656C73.17 818.562 226.874 934.488 290.09 973.288c16.57 10.17 35.6 15.406 55.042 15.406h188.264c-8.25 0-16.378-3.052-23.534-9.102-33.082-27.968-128.526-123.29-176.948-322.258-2.688-11.046 5.864-21.744 17.232-21.744h641.302c5.454-17.01 10.556-34.508 14.896-52.966z" fill="#DCDBDE" p-id="4316"></path><path d="M1006.344 600.28H17.656A17.652 17.652 0 0 1 0 582.624a17.652 17.652 0 0 1 17.656-17.656h988.69a17.652 17.652 0 0 1 17.656 17.656 17.654 17.654 0 0 1-17.658 17.656z" fill="#EDEDEE" p-id="4317"></path><path d="M423.792 490.002a17.592 17.592 0 0 1-12.482-5.172l-6.69-6.69a17.65 17.65 0 0 1 0-24.966 17.65 17.65 0 0 1 24.966 0l6.69 6.69a17.65 17.65 0 0 1 0 24.966 17.592 17.592 0 0 1-12.484 5.172z" fill="#FFF5DC" p-id="4318"></path><path d="M515.31 546.762a17.592 17.592 0 0 1-12.482-5.172 17.65 17.65 0 0 1 0-24.966l17.656-17.656a17.65 17.65 0 0 1 24.966 0 17.65 17.65 0 0 1 0 24.966l-17.656 17.656a17.6 17.6 0 0 1-12.484 5.172z m121.932-14.896h-17.656a17.646 17.646 0 0 1-17.656-17.656 17.646 17.646 0 0 1 17.656-17.656h17.656a17.646 17.646 0 0 1 17.656 17.656 17.648 17.648 0 0 1-17.656 17.656z" fill="#FFEBBE" p-id="4319"></path><path d="M327.724 539.59a17.592 17.592 0 0 1-12.482-5.172 17.65 17.65 0 0 1 0-24.966l17.656-17.656a17.65 17.65 0 0 1 24.966 0 17.65 17.65 0 0 1 0 24.966l-17.656 17.656a17.6 17.6 0 0 1-12.484 5.172z" fill="#FFF5DC" p-id="4320"></path></svg>