<?xml version="1.0" standalone="no"?><!DOCTYPE svg PUBLIC "-//W3C//DTD SVG 1.1//EN" "http://www.w3.org/Graphics/SVG/1.1/DTD/svg11.dtd"><svg t="1773285220616" class="icon" viewBox="0 0 1024 1024" version="1.1" xmlns="http://www.w3.org/2000/svg" p-id="2972" xmlns:xlink="http://www.w3.org/1999/xlink" width="200" height="200"><path d="M996.07552 576.673792c-1.796096-28.735488-8.163328-56.078336-23.12192-81.01888-13.94688-23.252992-33.521664-41.453568-56.342528-55.781376-37.445632-23.51104-83.996672-30.377984-127.178752-32.966656-63.727616-3.821568-126.40256 9.734144-189.9008 10.05568-6.83008 0.034816-13.656064-0.354304-20.461568-0.968704-20.948992-3.694592-41.494528-9.240576-62.0544-14.761984-24.485888-6.57408-48.734208-11.460608-73.596928-15.040512-30.787584-4.876288-59.52512-17.854464-88.727552-28.229632-14.702592-5.2224-29.671424-9.61536-45.078528-12.181504-24.623104-4.100096-45.185024-5.09952-68.07552-2.574336a62.6688 62.6688 0 0 0-33.66912-10.407936c-16.488448-0.243712-32.702464-4.913152-49.252352-3.20512-7.837696 0.811008-17.461248 1.492992-25.274368 4.4032-15.689728 5.842944-19.695616 8.96-32.989184 19.32288-6.813696 5.310464-11.849728 12.224512-15.587328 19.924992-0.700416 0.765952-1.419264 1.517568-2.076672 2.312192-22.376448 27.097088-39.794688 54.59968-48.257024 89.28256-6.490112 26.59328-8.824832 55.230464-5.767168 82.518016 3.201024 28.594176 7.696384 56.180736 16.222208 83.611648 7.981056 25.677824 18.80064 50.36032 29.274112 75.083776 21.46304 50.661376 61.046784 89.083904 105.49248 119.95136 4.263936 2.95936 8.6016 5.79584 12.982272 8.56064a112.664576 112.664576 0 0 0 28.551168 25.249792c24.061952 14.893056 47.130624 31.330304 71.319552 46.01856 30.558208 18.55488 64.315392 33.533952 98.799616 42.921984 14.83776 4.040704 30.5152 5.707776 45.717504 7.8848 25.18016 3.602432 50.409472 7.008256 75.747328 9.30816 28.850176 2.617344 57.720832 2.107392 86.60992 3.61472 56.40192 2.940928 115.72224 8.617984 170.22976-10.389504 17.430528-6.078464 36.225024-13.473792 51.542016-24.397824 17.207296-12.273664 33.550336-25.976832 49.094656-40.306688 25.614336-23.611392 48.3328-51.07712 67.403776-80.164864 21.530624-32.833536 33.789952-69.459968 37.429248-107.147264 5.103616-14.278656 9.402368-28.811264 12.437504-43.890688 5.605376-27.820032 10.344448-58.015744 8.558592-86.591488z" fill="#FFCD87" p-id="2973"></path><path d="M592.707584 1003.644928c-27.860992 0-54.024192-1.24928-78.432256-2.52928C328.347648 991.35488 26.406912 865.32096 7.698432 568.666112c-6.780928-107.513856 11.247616-184.889344 53.58592-229.982208 28.076032-29.902848 65.671168-45.064192 111.740928-45.064192 13.29152 0 24.571904 1.267712 32.036864 2.105344 2.045952 0.229376 3.813376 0.432128 5.265408 0.557056 2.996224 0.256 7.53664 0.473088 12.793856 0.724992 32.888832 1.564672 101.3248 4.820992 156.633088 34.521088 87.126016 46.78656 165.888 56.60672 216.61696 56.60672 53.68832 0 87.69536-10.698752 88.031232-10.805248l1.468416-0.421888c1.554432-0.387072 38.586368-9.51296 87.508992-9.51296 44.71808 0 84.703232 7.50592 118.849536 22.310912 46.608384 20.209664 81.195008 53.487616 102.803456 98.914304 37.224448 78.249984 30.466048 190.633984 5.210112 256.649216-38.559744 100.800512-100.519936 172.84096-184.158208 214.122496-61.169664 30.189568-132.151296 44.253184-223.377408 44.253184zM173.02528 338.673664c-33.595392 0-59.40224 10.090496-78.893056 30.849024-33.482752 35.659776-47.433728 101.705728-41.467904 196.306944 16.867328 267.474944 293.53984 381.343744 463.970304 390.28736 23.812096 1.24928 49.299456 2.469888 76.07296 2.469888 129.288192 0 287.666176-26.075136 365.457408-229.421056 18.2272-47.648768 29.622272-150.898688-3.817472-221.19424-37.552128-78.9504-119.138304-95.522816-180.965376-95.522816-40.065024 0-71.575552 6.998016-76.058624 8.042496-6.664192 2.039808-44.201984 12.695552-100.952064 12.695552-55.90016 0-142.553088-10.752-237.932544-61.966336-46.323712-24.875008-107.876352-27.803648-137.459712-29.212672-5.953536-0.284672-10.655744-0.507904-14.508032-0.83968-1.773568-0.151552-3.936256-0.391168-6.438912-0.671744-6.852608-0.768-16.238592-1.82272-27.006976-1.82272z" fill="#F28F05" p-id="2974"></path><path d="M159.997952 330.641408c-39.417856-29.093888-63.21152-68.409344-68.810752-113.696768-7.366656-59.588608 17.655808-114.845696 36.272128-137.449472 22.433792-27.242496 73.693184-50.485248 127.54944-57.83552 49.041408-6.690816 122.652672-4.007936 194.82624 46.802944 53.610496 37.74464 89.667584 91.305984 104.269824 154.894336 11.001856 47.908864 5.982208 84.887552 5.761024 86.439936l-2.861056 20.260864-20.441088-0.905216c-166.252544-7.366656-267.665408-69.812224-323.465216-120.899584C182.484992 180.224 161.847296 152.5248 148.740096 131.514368c-8.900608 20.158464-16.631808 49.199104-12.834816 79.906816 4.100096 33.179648 21.209088 61.093888 50.849792 82.970624l-26.75712 36.2496z m19.216384-236.316672c9.930752 18.241536 30.447616 50.143232 66.164736 82.382848 68.466688 61.7984 159.459328 97.431552 270.737408 106.067968a235.778048 235.778048 0 0 0-6.309888-50.976768c-12.480512-52.588544-41.385984-95.145984-85.909504-126.492672-95.903744-67.520512-201.160704-38.240256-244.682752-10.981376z" fill="#F28F05" p-id="2975"></path></svg>