<?xml version="1.0" standalone="no"?><!DOCTYPE svg PUBLIC "-//W3C//DTD SVG 1.1//EN" "http://www.w3.org/Graphics/SVG/1.1/DTD/svg11.dtd"><svg t="1773285224811" class="icon" viewBox="0 0 1024 1024" version="1.1" xmlns="http://www.w3.org/2000/svg" p-id="3301" xmlns:xlink="http://www.w3.org/1999/xlink" width="200" height="200"><path d="M773.9 339.9c-13.8-15.8-28.2-31-42.9-45.5-106-104.7-249.3-189.7-403.4-184.7-45.8 1.5-92 11.5-131.9 34.6C70.2 217.2 90 380.9 143.4 493c61.7 129.4 167.3 235.6 287.9 311.4 66.1 41.6 138 73.4 212.8 95.6 59.8 17.8 126.2 23.9 182-9.2 65.8-39 91.7-116.3 95.5-189.2 7-135-60.1-261.5-147.7-361.7z" fill="#F19920" p-id="3302"></path><path d="M340.7 109.5c149.1 0 287.3 83.2 390.4 184.9 14.7 14.5 29 29.6 42.9 45.5 87.6 100.2 154.6 226.7 147.7 361.7-3.8 72.9-29.7 150.2-95.5 189.2-28.8 17-60.3 23.7-92.4 23.7-30.1 0-60.7-5.9-89.7-14.5-74.8-22.2-146.7-54-212.8-95.6-120.5-75.8-226.2-182-287.9-311.4C90 380.9 70.2 217.2 195.7 144.3c39.9-23.1 86.1-33.1 131.9-34.6 4.4-0.1 8.7-0.2 13.1-0.2m0-36.5c-4.8 0-9.5 0.1-14.3 0.2-56.8 1.9-107 15.2-149 39.5-138.3 80.3-133.3 256.7-66.9 396 61 128 165.2 241 301.4 326.6 67.6 42.5 142.3 76.1 221.9 99.7 35.7 10.6 69.4 16 100.1 16 41.4 0 78.7-9.7 111-28.8 67.9-40.2 108.2-117.9 113.4-218.7 8.4-162.6-80.6-300.6-156.7-387.6-14.1-16.1-29.1-32.1-44.7-47.4C629 142.4 481.2 73 340.7 73z" fill="#6B0A0C" p-id="3303"></path><path d="M887.7 618.7c-12.5 19.1-18.7 44-36.1 59.7-23.5 21.3-49.4 1.5-57.5-23.3-12.1-36.8-7.9-76.6-0.3-113.9 7.5-37.1 16-75.8 31.7-110.3 2.3-5.1 4.9-10.5 4.6-16.1-0.2-5.4-3-10.3-5.8-14.9-9.8-16.2-20.8-31.7-32.9-46.3-4.8-5.7-10.6-11.8-18.1-11.9-11.2-0.2-16.4 11.6-19.5 20.5-16.4 48.4-35 93.5-66 134.6-9.8 13-26.5 26.3-40.8 12-9.4-9.4-13-24.8-15.7-37.3-6.2-29.1-7.4-59.6-6.7-89.3 0-1.6 0.1-3.2 0.2-4.8 1.9-45.5 12.5-92.1 35.3-131.8 4.1-7.2 2.5-16.3-4.1-21.3-17.3-12.9-34.8-24.8-52.6-35.7-9.2-5.7-21.1-1.1-24.4 9.5-10.2 32.3-24.3 64.3-40.7 93.9-9.7 17.5-29.2 61-53.8 59.4-7.3-0.5-13-6.6-16.1-13.2-28.8-62.4-26.4-144.7-5.9-209.2 0.7-2.1-0.5-4.3-2.6-4.9-98-28.5-191.9-23.9-262.4 17.9-2.1 1.2-3.8 3.1-5 5.2-24.4 46.9-44.1 86.3-37.8 140.1 8.1 70.2 35.3 134 65.9 197C309.7 667.7 473.6 793 663.8 858c36.5 12.5 75.6 20.6 114.3 17 36-3.4 72.2-21.6 104.1-38.1 2.2-1.1 4-2.9 5.2-5 33.9-57.1 43.4-129.6 30.6-207.2-2.5-15-8.8-38.7-30.3-6z" fill="#FFB657" p-id="3304"></path><path d="M274.3 143.2c-34.1 31-35.4 73.3-18.1 113.6 7 16.1 18.6 30.5 34.3 38.2 6.2 3 13.4 4.9 19.9 2.7 7.7-2.7 12.7-10.6 15-18.6 6.2-21.1-1.5-43.7-5.4-64.5-2.3-12.5-3.6-26.1-0.2-38.5 3.3-12.1 16.1-22.4 16.3-35 0.1-7.4-4.5-15.2-11.9-16.8-16.8-3.7-35.2 5.5-49.9 18.9z" fill="#FFDBAB" p-id="3305"></path></svg>