<?xml version="1.0" standalone="no"?><!DOCTYPE svg PUBLIC "-//W3C//DTD SVG 1.1//EN" "http://www.w3.org/Graphics/SVG/1.1/DTD/svg11.dtd"><svg t="1773239505210" class="icon" viewBox="0 0 1024 1024" version="1.1" xmlns="http://www.w3.org/2000/svg" p-id="2247" xmlns:xlink="http://www.w3.org/1999/xlink" width="200" height="200"><path d="M375.52128 412.4672l2.1504-1.4336-2.1504 1.4336z m321.49504-178.21696c-5.26336 2.048-10.07616 4.03456-13.94688 5.87776 72.72448 49.31584 83.92704 119.05024 83.92704 154.9312 0 14.00832-1.57696 22.81472-1.6384 23.1424l-4.7104 24.61696-15.52384-19.3536c-41.08288-51.26144-86.07744-73.15456-111.104-82.1248 7.61856 26.48064 10.79296 50.44224 10.79296 71.53664 0 74.19904-36.92544 114.44224-39.05536 116.69504l-18.10432 19.16928-1.67936-26.70592c-4.97664-78.35648-54.43584-138.15808-73.64608-158.59712-19.3536 20.39808-69.3248 80.22016-74.28096 158.59712l-1.67936 26.70592-18.1248-19.16928c-2.12992-2.2528-39.05536-42.496-39.05536-116.69504 0-21.0944 3.1744-45.056 10.81344-71.55712-25.04704 8.99072-70.0416 30.88384-111.12448 82.14528l-15.50336 19.3536-4.73088-24.61696a140.4928 140.4928 0 0 1-1.6384-23.1424c0-35.88096 11.20256-105.63584 83.94752-154.9312-3.8912-1.8432-8.704-3.85024-13.98784-5.87776C205.5168 294.35904 122.88 411.68896 122.88 546.304 122.88 741.94944 297.43104 901.12 512 901.12c214.54848 0 389.12-159.17056 389.12-354.816 0-134.59456-82.6368-251.94496-204.10368-312.05376z m-311.296 6.3488l-16.4864 9.1136c-74.48576 41.12384-87.98208 102.74816-89.21088 137.54368 60.8256-63.32416 123.06432-74.8544 125.952-75.32544l19.6608-3.25632-7.04512 19.2512c-11.89888 32.50176-16.2816 60.88704-16.2816 84.992 0 33.9968 8.64256 59.26912 17.01888 76.06272 18.0224-89.4976 82.41152-148.41856 85.46304-151.1424l7.61856-6.81984 7.5776 6.8608c3.01056 2.72384 66.7648 61.60384 84.6848 151.06048 8.3968-16.7936 16.9984-42.04544 16.9984-76.00128 0-24.12544-4.34176-52.51072-16.26112-85.03296l-7.0656-19.23072 19.70176 3.2768c2.8672 0.45056 65.08544 11.9808 125.93152 75.30496-1.2288-34.816-14.72512-96.41984-89.1904-137.54368l-16.4864-9.09312 15.2576-11.14112c1.82272-1.3312 40.38656-28.71296 114.7904-35.28704-39.05536-24.92416-116.87936-58.32704-198.20544 0.7168l-11.14112 8.0896L512 102.4l-47.0016 100.59776-11.14112-8.0896c-81.3056-59.04384-159.15008-25.64096-198.20544-0.7168 74.40384 6.5536 112.98816 33.95584 114.7904 35.28704l15.2576 11.14112z" fill="#000000" p-id="2248"></path></svg>