<?xml version="1.0" standalone="no"?><!DOCTYPE svg PUBLIC "-//W3C//DTD SVG 1.1//EN" "http://www.w3.org/Graphics/SVG/1.1/DTD/svg11.dtd"><svg t="1773238066687" class="icon" viewBox="0 0 1024 1024" version="1.1" xmlns="http://www.w3.org/2000/svg" p-id="2217" xmlns:xlink="http://www.w3.org/1999/xlink" width="200" height="200"><path d="M511.998977 76.893274c-171.59924 0-310.706461 139.108245-310.706461 310.706461 0 102.248755 125.623116 249.574149 125.623115 249.574149s27.129894 33.382295 27.103288 54.960753v0.36839c0 81.8164 33.662681 152.936181 83.182514 189.18885 5.465478 4.000104 8.611122 10.437723 8.611122 17.210987v7.316639c0 33.777291 27.304879 40.888246 61.083194 40.888246h10.209526c33.776268 0 61.743226-7.109931 61.743226-40.888246v-7.80578c0-6.735401 3.110851-13.142322 8.52721-17.147541 49.203632-36.382629 82.60537-107.265002 82.60537-188.762132v-0.36839c-0.026606-21.577434 27.103288-54.960753 27.103288-54.960753s125.623116-147.32437 125.623115-249.574148c-0.002047-171.600263-139.110291-310.707484-310.708507-310.707485z m173.891445 540.242228s-32.685423 40.866756-32.660864 60.968583v0.342808c0 75.92318-24.01802 148.014078-93.670379 196.788945-21.688975 15.188934-67.065442 20.50808-109.74345-9.977235-46.524616-33.230845-76.673264-114.287953-76.673264-190.506869v-0.342807c0.025583-20.101827-32.097022-57.272401-32.097022-57.272402S224.016053 479.890698 224.016053 384.635217c0-159.859871 129.591497-289.451368 289.451368-289.451368S802.920836 224.775346 802.920836 384.635217c0 95.254457-117.030413 232.500285-117.030414 232.500285z" p-id="2218"></path><path d="M436.46363 641.808438c-32.594349-28.342512-61.565171-79.509868-69.41086-94.006024a7.487531 7.487531 0 0 0-6.594185-3.923356h-2.791579c-5.750981 0-9.369392 6.193049-6.535857 11.197016 11.31572 19.989263 36.97103 62.029752 65.379033 86.730317 30.499641 26.521027 22.925129 83.714633 18.608823 105.785302-0.906649 4.6366 2.641153 8.94165 7.365758 8.941649h4.635577a7.497765 7.497765 0 0 0 7.342222-5.939269c4.087085-19.35379 14.005992-80.9558-17.998932-108.785635zM666.330948 543.879058h-2.79158a7.486508 7.486508 0 0 0-6.594185 3.923356c-7.845689 14.496156-36.817534 65.663512-69.410859 94.006024-32.004925 27.830859-22.084994 89.431845-17.998933 108.786659a7.495718 7.495718 0 0 0 7.341199 5.939269h4.635577c4.724605 0 8.272407-4.304026 7.365758-8.94165-4.316306-22.070668-11.890818-79.262228 18.608823-105.785301 28.40698-24.702612 54.06229-66.742077 65.380056-86.730317 2.833535-5.004991-0.784876-11.19804-6.535856-11.19804zM510.162142 108.197234c-146.133242 2.955308-263.686565 122.339326-263.686564 269.179672 0 26.406416 2.90005 70.130244 15.911388 79.464843 104.95233 75.290777 398.929782 79.764672 502.628561 2.756787 12.56927-9.333576 19.992333-56.212256 19.931959-82.836637-0.337691-150.149718-124.664278-271.599791-274.785344-268.564665z m16.628726 62.489217c-82.130555 5.006014-173.072801 75.222215-192.644555 175.756932-1.180895 6.064113-9.226129 5.340635-15.104-1.410116-3.02694-3.477194-4.594645-7.671727-4.103458-10.871605 16.637935-108.322078 115.970268-183.593412 202.348568-184.191022 3.210112-0.022513 7.105838 2.128477 10.101056 5.567809l0.001023 0.002047c5.844102 6.712889 5.516644 14.773472-0.598634 15.145955z" p-id="2219"></path></svg>