<?xml version="1.0" standalone="no"?><!DOCTYPE svg PUBLIC "-//W3C//DTD SVG 1.1//EN" "http://www.w3.org/Graphics/SVG/1.1/DTD/svg11.dtd"><svg t="1773199635746" class="icon" viewBox="0 0 1024 1024" version="1.1" xmlns="http://www.w3.org/2000/svg" p-id="2282" xmlns:xlink="http://www.w3.org/1999/xlink" width="200" height="200"><path d="M951.509333 117.802667A32.512 32.512 0 0 0 926.869333 106.666667h-55.978666c-212.181333 0-371.349333 2.218667-489.664 30.613333a392.746667 392.746667 0 0 0-167.936 77.888A300.928 300.928 0 0 0 117.546667 369.28c-11.392 47.146667-13.568 96-6.442667 143.978667v0.128l0.085333 0.426666v0.042667c2.773333 18.346667 6.890667 36.48 12.330667 54.272a269.376 269.376 0 0 0 37.333333 75.477333C96.64 745.962667 64 794.197333 64 905.472c0 8.554667 3.413333 16.768 9.514667 22.826667 6.08 6.037333 14.336 9.450667 22.954666 9.450666l0.554667 0.917334c8.661333 0 16.938667-3.413333 23.04-9.514667 6.08-6.101333 9.472-14.357333 9.429333-22.933333 0-98.432 29.290667-169.28 67.328-224.213334C256 744.362667 335.402667 772.266667 420.053333 779.562667c12.672 1.493333 24.981333 1.493333 37.312 1.493333a379.946667 379.946667 0 0 0 185.109334-47.104 495.552 495.552 0 0 0 185.514666-191.786667c58.944-101.632 103.36-235.349333 131.733334-398.378666a32.149333 32.149333 0 0 0-8.213334-25.962667zM257.344 628.373333c-22.250667 24.938667-72.106667-8.533333-51.84-30.634666 35.093333-38.250667 237.098667-253.162667 503.509333-300.693334-275.114667 110.869333-421.376 297.365333-451.669333 331.306667z" fill="#ffffff" p-id="2283"></path></svg>