<?xml version="1.0" standalone="no"?><!DOCTYPE svg PUBLIC "-//W3C//DTD SVG 1.1//EN" "http://www.w3.org/Graphics/SVG/1.1/DTD/svg11.dtd"><svg t="1772867669320" class="icon" viewBox="0 0 1024 1024" version="1.1" xmlns="http://www.w3.org/2000/svg" p-id="1212" xmlns:xlink="http://www.w3.org/1999/xlink" width="200" height="200"><path d="M183.113 141.211c9.27 0 18.54 4.635 27.809 13.905 111.237 106.602 222.473 217.838 329.075 324.44l4.635 4.635c9.27 9.27 13.904 23.174 13.904 32.444 0 13.904-4.635 23.174-13.904 27.809-111.237 106.602-222.473 213.203-333.71 324.44-4.635 9.27-13.905 13.905-23.174 13.905-18.54 0-32.444-13.905-41.714-27.81-4.635-9.27-9.27-27.809 9.27-41.713l115.871-115.872c60.253-60.253 120.506-115.871 180.76-176.124l4.634-4.635-120.506-120.506-180.76-180.76c-13.904-13.904-18.539-27.809-9.269-46.348 4.635-13.905 23.174-27.81 37.079-27.81z" fill="#2c2c2c" p-id="1213"></path><path d="M507.553 141.211c9.27 0 18.54 4.635 27.809 13.905l329.075 329.075 4.635 4.635c9.27 4.635 13.904 18.54 13.904 27.809 0 13.904-4.635 23.174-13.904 27.809-111.237 106.602-222.473 213.203-333.71 324.44-4.635 9.27-13.905 13.905-23.174 13.905-18.54 0-32.444-13.905-41.714-27.81-4.635-9.27-9.27-27.809 9.27-41.713l115.871-115.872c60.253-60.253 120.506-115.871 180.76-176.124l4.634-4.635-120.506-120.506-180.76-180.76c-13.904-13.904-18.539-27.809-9.269-46.348 4.635-13.905 23.174-27.81 37.079-27.81z" fill="#2c2c2c" p-id="1214"></path></svg>