<?xml version="1.0" standalone="no"?><!DOCTYPE svg PUBLIC "-//W3C//DTD SVG 1.1//EN" "http://www.w3.org/Graphics/SVG/1.1/DTD/svg11.dtd"><svg t="1773230137354" class="icon" viewBox="0 0 1024 1024" version="1.1" xmlns="http://www.w3.org/2000/svg" p-id="2187" xmlns:xlink="http://www.w3.org/1999/xlink" width="200" height="200"><path d="M844.8 393.6h-67.2c-3.2 0-6.4 0-9.6 3.2l-28.8-92.8C732.8 249.6 697.6 224 652.8 224h-281.6c-48 0-80 35.2-86.4 80l-32 92.8c-3.2-3.2-6.4-3.2-9.6-3.2h-64c-9.6 0-19.2 9.6-19.2 19.2v16c0 9.6 9.6 19.2 19.2 19.2l25.6 3.2c-9.6 16-12.8 35.2-12.8 57.6l-9.6 108.8v147.2c0 19.2 16 35.2 32 35.2h51.2c19.2 0 32-16 32-35.2v-41.6h428.8v41.6c0 19.2 16 35.2 32 35.2h51.2c19.2 0 32-16 32-35.2v-131.2-6.4-9.6l-9.6-108.8c0-22.4-3.2-38.4-12.8-54.4l25.6-6.4c9.6 0 19.2-9.6 19.2-19.2v-16c0-9.6-9.6-19.2-19.2-19.2z m-540.8-19.2l22.4-60.8c3.2-12.8 9.6-16 16-25.6h342.4c6.4 9.6 12.8 12.8 12.8 22.4l22.4 60.8 9.6 35.2c-3.2 25.6-28.8 44.8-54.4 44.8H352c-22.4 0-51.2-19.2-54.4-44.8l6.4-32z m16 288c-28.8 0-51.2-22.4-51.2-51.2 0-28.8 22.4-51.2 51.2-51.2s51.2 22.4 51.2 51.2c0 25.6-22.4 51.2-51.2 51.2z m384 0c-28.8 0-51.2-22.4-51.2-51.2 0-28.8 22.4-51.2 51.2-51.2s51.2 22.4 51.2 51.2c0 25.6-22.4 51.2-51.2 51.2z" fill="#38B781" p-id="2188"></path></svg>