<?xml version="1.0" standalone="no"?><!DOCTYPE svg PUBLIC "-//W3C//DTD SVG 1.1//EN" "http://www.w3.org/Graphics/SVG/1.1/DTD/svg11.dtd"><svg t="1773227653220" class="icon" viewBox="0 0 1024 1024" version="1.1" xmlns="http://www.w3.org/2000/svg" p-id="3892" xmlns:xlink="http://www.w3.org/1999/xlink" width="200" height="200"><path d="M595.8144 674.8416a25.9328 25.9328 0 0 1-25.92-25.92V335.7312c0-14.3104 11.6096-25.92 25.92-25.92h247.5136c14.3232 0 25.9328 11.6096 25.9328 25.92v313.1904a25.9328 25.9328 0 0 1-25.9328 25.92H595.8144z m52.1728-282.0736v73.6256c0 14.3232 11.6096 25.9328 25.9328 25.9328h91.3152a25.9328 25.9328 0 0 0 25.9328-25.9328v-73.6256a25.9328 25.9328 0 0 0-25.9328-25.92H673.92a25.9328 25.9328 0 0 0-25.9328 25.92zM452.7488 434.7648v-72.8832c0-7.168-5.7984-12.9664-12.9664-12.9664h-104.2304c-7.168 0-12.9664 5.8112-12.9664 12.9664v72.8832H277.76c-8.6016 0-16.7168 3.6224-21.2608 9.8944-25.3568 35.008-38.0416 70.784-38.0416 107.3536 0 36.6336 12.736 74.048 38.1952 112.256 4.48 6.6944 12.8384 10.5728 21.824 10.5728h239.4624a25.9328 25.9328 0 0 0 25.92-25.92V460.672a25.9328 25.9328 0 0 0-25.92-25.92H452.736zM179.2768 811.7376c-11.5456 0-17.3312-13.952-9.1648-22.1312l80.9472-81.0752c4.864-4.864 11.456-7.616 18.3424-7.616h588.032c7.168 0 12.9664 5.8112 12.9664 12.9664v84.8896c0 7.168-5.8112 12.9664-12.9664 12.9664H831.36a71.6416 71.6416 0 0 0-71.5904-71.7056 71.6416 71.6416 0 0 0-71.5904 71.7056h-52.0704a71.6416 71.6416 0 0 0-71.5776-71.7056 71.6416 71.6416 0 0 0-71.5904 71.7056h-52.0704a71.6416 71.6416 0 0 0-71.5776-71.7056 71.6416 71.6416 0 0 0-71.5904 71.7056h-118.4256zM483.7888 269.2864c34.5984-5.4784 60.0704-27.008 60.0704-50.7392 0-28.8-34.9568-52.1472-78.0928-52.1472s-78.0928 23.3472-78.0928 52.1472c0 9.728 4.352 19.7376 12.16 27.9552-29.696 5.632-51.2 24-51.2 43.7504 0 25.2032 32.0384 45.632 71.5776 45.632 39.5392 0 71.5904-20.4288 71.5904-45.632 0-7.1808-2.8288-14.592-8.0128-20.9664z" fill="#000000" p-id="3893"></path><path d="M428.544 811.7376a58.3552 58.3552 0 0 1-4.4416 22.4512 58.0992 58.0992 0 0 1-10.7136 16.9472 60.9408 60.9408 0 0 1-8.512 7.7184 59.8016 59.8016 0 0 1-9.856 5.9136 60.0576 60.0576 0 0 1-10.8032 3.8784 58.3552 58.3552 0 0 1-33.9712-1.664 59.2 59.2 0 0 1-17.408-9.8944 56.256 56.256 0 0 1-6.2464-5.952 58.496 58.496 0 0 1-14.0544-27.9552 58.8672 58.8672 0 0 1 7.2064-41.6 58.496 58.496 0 0 1 50.24-28.5184 58.1888 58.1888 0 0 1 22.4128 4.48 58.5856 58.5856 0 0 1 36.16 54.1952zM622.8736 811.7376a58.3552 58.3552 0 0 1-4.4544 22.4512 59.5584 59.5584 0 0 1-7.0656 12.4928 59.2512 59.2512 0 0 1-14.5152 13.824 57.0624 57.0624 0 0 1-10.112 5.4272 59.136 59.136 0 0 1-16.6784 4.1856 57.9968 57.9968 0 0 1-22.7456-2.24 58.2272 58.2272 0 0 1-22.336-12.672 58.624 58.624 0 0 1-19.1616-46.3488 59.9296 59.9296 0 0 1 2.4448-14.1568 58.3424 58.3424 0 0 1 12.6592-22.3616 57.5232 57.5232 0 0 1 10.8544-9.3824 58.3936 58.3936 0 0 1 52.2752-6.464 57.6512 57.6512 0 0 1 15.1552 8.1152 59.1872 59.1872 0 0 1 13.8112 14.528 58.5216 58.5216 0 0 1 9.8688 32.6016zM819.0336 811.7376a58.3552 58.3552 0 0 1-4.4544 22.4512 59.5584 59.5584 0 0 1-7.0784 12.4928 59.2512 59.2512 0 0 1-14.5024 13.824 57.0624 57.0624 0 0 1-10.112 5.4272 59.136 59.136 0 0 1-16.6784 4.1856 57.9968 57.9968 0 0 1-22.7456-2.24 58.2272 58.2272 0 0 1-22.336-12.672 58.624 58.624 0 0 1-19.1616-46.3488 59.9296 59.9296 0 0 1 2.4448-14.1568 58.3424 58.3424 0 0 1 12.6592-22.3616 57.5232 57.5232 0 0 1 10.8544-9.3824 58.3936 58.3936 0 0 1 52.2752-6.464 57.6512 57.6512 0 0 1 15.1552 8.1152 59.1872 59.1872 0 0 1 13.8112 14.528 58.5216 58.5216 0 0 1 9.856 32.6016z" fill="#000000" p-id="3894"></path></svg>