<?xml version="1.0" standalone="no"?><!DOCTYPE svg PUBLIC "-//W3C//DTD SVG 1.1//EN" "http://www.w3.org/Graphics/SVG/1.1/DTD/svg11.dtd"><svg t="1773227634604" class="icon" viewBox="0 0 1024 1024" version="1.1" xmlns="http://www.w3.org/2000/svg" p-id="2596" xmlns:xlink="http://www.w3.org/1999/xlink" width="200" height="200"><path d="M826.956763 861.558327c0 0-76.902484 103.237269-204.827015 1.24434-106.796328 98.121761-209.270211-1.195222-209.270211-1.195222-118.578676 110.453624-197.392696-3.154853-197.392696-3.154853-37.71088 50.04172-97.501638 51.235918-97.501638 51.235918l0-67.438948c21.173229 20.74344 97.644901-53.769624 97.644901-53.769624 109.259426 138.415466 196.10333-2.149966 196.10333-2.149966s126.370129 93.916996 208.169133 1.720178c92.701309 97.357352 208.792327-1.674129 208.792327-1.674129 47.605228 63.040778 94.777597 48.610114 94.777597 48.610114l1.294482 51.092655C892.720559 947.016675 826.956763 861.558327 826.956763 861.558327zM619.882568 757.50753c-27.169803 31.928177-85.812411 40.292682-85.812411 40.292682l-0.239454-491.069295c132.342144 5.15951 370.363166 79.531358 370.363166 170.555467 0 59.792804-87.751576 216.272695-195.196681 322.905294C679.842171 799.042505 648.727523 787.763624 619.882568 757.50753zM779.590989 209.969129c0-61.272505-49.396014-58.356083-49.396014-58.356083L550.317189 151.613046l0 123.69316-50.544163 0.190335-0.547469-122.019031L320.282049 153.47751c0 0-56.326866 9.366322-55.133691 60.054771 0 65.836451 0.932232 106.223277 0.932232 106.223277l-50.232055 25.570375c0 0-1.290389-101.30015 0-160.925133 1.339508-59.626006 95.446839-80.2006 95.446839-80.2006l418.014442 0c0 0 93.293803 8.698103 97.978499 77.95342 0 59.72015 0 168.908968 0 168.908968l-47.697325-27.481911C779.590989 323.577606 779.590989 252.890684 779.590989 209.969129zM510.241448 796.797371c-54.31914-6.977925-98.529037-41.008996-98.529037-41.008996s-29.203112 46.839795-74.918293 59.647495c-118.148887-106.963127-219.905432-277.5452-219.188094-340.587002 1.050935-92.602048 261.271562-165.275207 392.993582-168.334893C510.553557 390.490575 510.266008 798.517549 510.241448 796.797371z" p-id="2597"></path></svg>