<?xml version="1.0" standalone="no"?><!DOCTYPE svg PUBLIC "-//W3C//DTD SVG 1.1//EN" "http://www.w3.org/Graphics/SVG/1.1/DTD/svg11.dtd"><svg t="1773227646527" class="icon" viewBox="0 0 1433 1024" version="1.1" xmlns="http://www.w3.org/2000/svg" p-id="3404" xmlns:xlink="http://www.w3.org/1999/xlink" width="279.8828125" height="200"><path d="M1130.90685 307.710333a100.207661 100.207661 0 1 0-100.207661-100.207661 100.207661 100.207661 0 0 0 100.207661 100.207661z m-558.280325 429.697327a286.312476 286.312476 0 1 1-286.312476-286.230584 286.619569 286.619569 0 0 1 286.312476 286.230584z m858.903307 0a286.298828 286.298828 0 1 1-506.961774-182.126263 189.97418 189.97418 0 0 1-120.107248-94.570809c-41.430176-79.079704-29.235196-192.314906 29.747017-298.275431-56.034126-34.182796-177.226433-61.418479-284.647353-41.170853-48.588841 9.192299-109.188407 31.391667-121.567643 84.893986-7.185962 30.893495-3.009505 56.259327 13.143555 79.878144 46.998785 68.672684 181.907886 101.927378 225.47406 108.137469a57.201077 57.201077 0 0 1 26.710214 11.25323c72.726303 55.774803 175.595431 226.415811 44.357791 473.154313a57.255671 57.255671 0 1 1-101.094817-53.768466c100.180363-188.350002 23.44821-291.696829-4.094565-320.235949-55.686088-10.366074-213.531579-48.186209-285.85525-153.860114a210.078495 210.078495 0 0 1-30.176946-170.470401c20.541069-88.647338 95.778706-149.540348 211.791389-171.528163 146.530842-27.802098 357.742167 11.225933 426.660524 111.433594a57.262495 57.262495 0 0 1-0.116012 65.048993c-55.426765 80.055575-75.558378 171.473569-48.902758 222.321246 15.013406 28.743848 47.415066 43.3205 96.222284 43.3205h143.125528a53.468198 53.468198 0 0 1 6.141848 0.627833 286.428489 286.428489 0 0 1 280.150156 285.937141z" p-id="3405"></path></svg>