<?xml version="1.0" standalone="no"?><!DOCTYPE svg PUBLIC "-//W3C//DTD SVG 1.1//EN" "http://www.w3.org/Graphics/SVG/1.1/DTD/svg11.dtd"><svg t="1773227642113" class="icon" viewBox="0 0 1024 1024" version="1.1" xmlns="http://www.w3.org/2000/svg" p-id="3080" xmlns:xlink="http://www.w3.org/1999/xlink" width="200" height="200"><path d="M991.86 714.553C991.86 814.723 914.181 896 818.31 896c-85.375 0-156.254-64.481-170.65-149.356H376.44C361.944 831.519 291.165 896 205.79 896c-92.373 0-167.751-75.578-173.05-170.75h-0.6v-63.981c0-27.792 8.298-54.884 23.694-77.478l78.377-114.666h-28.192c-20.394 0-31.79-24.993-18.595-41.288 11.197-13.896 27.992-22.693 46.787-22.693h265.422c33.79 0 61.282 28.691 61.282 63.981l-15.296 26.692-11.896 20.794-9.397 16.395c-10.797 18.895 10.097 37.99 31.19 37.99h84.676c33.39 0 112.167-12.197 141.158-147.757l14.996-151.556c14.796-38.189-12.196-79.977-51.585-79.977h-30.59c-16.896 0-30.592-14.295-30.592-31.99s13.696-31.99 30.591-31.99h142.958c39.489 0 71.48 33.49 71.48 74.677 0 3.4-0.5 12.097-0.5 12.097-0.6 1.4-1 2.899-1.3 4.398-1.4 6.698-3.8 12.897-6.798 18.795-1.6 2.999-2.7 6.198-3.4 9.597l-36.189 218.736c-4.398 26.592 9.997 52.585 34.19 61.882l13.196 5.798c91.374 5.099 164.052 84.076 164.052 180.847z m-786.17-95.972c-50.785 0-91.873 42.988-91.873 96.072 0 53.085 41.088 96.072 91.873 96.072 50.785 0 91.873-42.987 91.873-96.072 0-53.084-41.088-96.072-91.873-96.072z m612.62 0c-50.785 0-91.873 42.988-91.873 96.072 0 53.085 41.188 96.072 91.873 96.072 50.785 0 91.873-42.987 91.873-96.072 0-53.084-41.088-96.072-91.873-96.072z m0 128.063c-16.895 0-30.59-14.396-30.59-31.99 0-17.696 13.695-31.991 30.59-31.991s30.591 14.395 30.591 31.99-13.696 31.99-30.59 31.99z m-612.62 0c-16.895 0-30.591-14.396-30.591-31.99 0-17.696 13.696-31.991 30.59-31.991s30.592 14.395 30.592 31.99c0.1 17.595-13.696 31.99-30.591 31.99zM88.624 364.056V245.79c0-39.588 41.888-85.974 79.777-85.974h187.245c43.387 0 71.579 40.688 71.579 85.974v118.266H88.624z" p-id="3081"></path></svg>