<?xml version="1.0" standalone="no"?><!DOCTYPE svg PUBLIC "-//W3C//DTD SVG 1.1//EN" "http://www.w3.org/Graphics/SVG/1.1/DTD/svg11.dtd"><svg t="1773227640114" class="icon" viewBox="0 0 1024 1024" version="1.1" xmlns="http://www.w3.org/2000/svg" p-id="2920" xmlns:xlink="http://www.w3.org/1999/xlink" width="200" height="200"><path d="M953.648855 246.229008h-19.541985V144.610687c0-35.175573-23.450382-74.259542-54.717557-89.89313 0 0-109.435115-54.717557-371.29771-54.717557S136.793893 58.625954 136.793893 58.625954c-31.267176 15.633588-54.717557 54.717557-54.717557 85.984733v101.618321h-19.541985C27.358779 246.229008 0 273.587786 0 308.763359v62.534351c0 35.175573 27.358779 62.534351 62.534351 62.534351h19.541985v414.290076c0 27.358779 15.633588 46.900763 39.083969 58.625955v35.175572c0 42.992366 35.175573 82.076336 82.076336 82.076336 42.992366 0 82.076336-35.175573 82.076336-82.076336v-31.267175h445.557252v31.267175c0 42.992366 35.175573 82.076336 82.076336 82.076336 42.992366 0 82.076336-35.175573 82.076336-82.076336v-39.083969c23.450382-7.816794 39.083969-31.267176 39.083969-58.625955V429.923664h19.541985c35.175573 0 62.534351-27.358779 62.534351-62.534351V308.763359c-3.908397-35.175573-31.267176-62.534351-62.534351-62.534351zM304.854962 105.526718c0-11.725191 7.816794-19.541985 19.541985-19.541985h363.480916c11.725191 0 19.541985 7.816794 19.541984 19.541985v39.083969c0 11.725191-7.816794 19.541985-19.541984 19.541985H324.396947c-11.725191 0-19.541985-7.816794-19.541985-19.541985v-39.083969zM211.053435 824.671756c-27.358779 0-50.80916-23.450382-50.80916-50.809161 0-27.358779 23.450382-50.80916 50.80916-50.80916 27.358779 0 50.80916 23.450382 50.80916 50.80916 0 27.358779-19.541985 50.80916-50.80916 50.809161z m590.167939 0c-27.358779 0-50.80916-23.450382-50.80916-50.809161 0-27.358779 23.450382-50.80916 50.80916-50.80916s50.80916 23.450382 50.80916 50.80916c0 27.358779-23.450382 50.80916-50.80916 50.809161z m50.80916-234.503817c0 11.725191-7.816794 19.541985-19.541984 19.541985H183.694656c-11.725191 0-19.541985-7.816794-19.541984-19.541985V265.770992c0-11.725191 7.816794-19.541985 19.541984-19.541984h648.793894c11.725191 0 19.541985 7.816794 19.541984 19.541984V590.167939z" p-id="2921"></path></svg>