<?xml version="1.0" standalone="no"?><!DOCTYPE svg PUBLIC "-//W3C//DTD SVG 1.1//EN" "http://www.w3.org/Graphics/SVG/1.1/DTD/svg11.dtd"><svg t="1772852207524" class="icon" viewBox="0 0 1024 1024" version="1.1" xmlns="http://www.w3.org/2000/svg" p-id="1091" xmlns:xlink="http://www.w3.org/1999/xlink" width="200" height="200"><path d="M430.98843 748.111532c88.170109 0 171.383322-32.385595 236.100276-91.488691l282.600333 282.586007c2.825348 2.817162 6.523577 4.236488 10.222829 4.236488s7.398504-1.419326 10.222829-4.236488c5.649674-5.65479 5.649674-14.807241 0-20.453844L687.365518 636.000152c127.666658-137.254014 125.054157-352.5955-8.543583-486.208591C612.596627 83.58672 524.581038 47.12632 430.98843 47.12632c-93.607958 0-181.621501 36.4604-247.833505 102.665241-136.647193 136.654356-136.647193 359.00856 0 495.661893C249.365906 711.653179 337.380472 748.111532 430.98843 748.111532zM203.600583 170.232103c60.747549-60.734246 141.504828-94.186126 227.387847-94.186126 85.868693 0 166.624948 33.45188 227.387847 94.186126 125.364219 125.378545 125.364219 329.397149 0 454.774671-60.762899 60.735269-141.519154 94.186126-227.387847 94.186126-85.883019 0-166.640298-33.450856-227.387847-94.186126C78.23534 499.628228 78.23534 295.610648 203.600583 170.232103z" p-id="1092"></path></svg>