<?xml version="1.0" standalone="no"?><!DOCTYPE svg PUBLIC "-//W3C//DTD SVG 1.1//EN" "http://www.w3.org/Graphics/SVG/1.1/DTD/svg11.dtd"><svg height="1024" node-id="1" sillyvg="true" template-height="1024" template-width="1024" version="1.1" viewBox="0 0 1024 1024" width="1024" xmlns="http://www.w3.org/2000/svg" xmlns:xlink="http://www.w3.org/1999/xlink"><defs node-id="28"></defs><path d="M 0.00 0.00 L 1024.00 0.00 L 1024.00 1024.00 L 0.00 1024.00 Z" fill="#e0e6ff" fill-rule="nonzero" node-id="30" stroke="none" target-height="1024" target-width="1024" target-x="0" target-y="0"></path><path d="M 409.47 811.39 L 403.14 603.69 L 594.04 605.63 L 595.43 811.39 C 597.63 844.25 691.91 849.51 719.05 869.88 C 718.08 981.88 715.13 1020.97 505.82 1019.59 C 312.98 1016.13 280.07 999.33 279.10 869.88 C 302.36 854.36 407.19 845.42 409.47 811.39 Z" fill="#ffd1aa" fill-rule="evenodd" node-id="32" stroke="none" target-height="417.279" target-width="439.94504" target-x="279.1" target-y="603.691"></path><path d="M 594.04 668.66 C 594.04 668.66 531.05 753.03 407.98 744.30 C 407.98 733.63 402.17 602.72 402.17 602.72 L 596.95 607.57 L 594.04 668.66 Z" fill="#ffc18d" fill-rule="evenodd" node-id="34" stroke="none" target-height="150.30402" target-width="194.77798" target-x="402.17" target-y="602.722"></path><path d="M 342.09 473.75 C 342.09 473.75 308.06 454.28 286.14 477.16 C 267.18 496.93 278.31 571.64 346.93 570.72 L 342.09 473.75 Z" fill="#ffd1aa" fill-rule="evenodd" node-id="36" stroke="none" target-height="117.36401" target-width="79.752014" target-x="267.181" target-y="454.279"></path><path d="M 656.79 473.75 C 656.79 473.75 690.82 454.28 712.74 477.16 C 731.69 496.93 720.56 571.64 651.94 570.72 L 656.79 473.75 Z" fill="#ffd1aa" fill-rule="evenodd" node-id="38" stroke="none" target-height="117.36401" target-width="79.75195" target-x="651.942" target-y="454.279"></path><path d="M 498.01 198.35 C 373.27 198.35 314.14 285.43 320.67 464.60 C 320.67 464.60 319.38 563.67 370.81 624.07 C 395.09 653.39 450.25 694.34 498.10 694.34 C 545.95 694.34 596.69 667.53 628.16 625.76 C 661.98 580.86 675.88 533.77 675.88 464.66 C 675.88 284.21 634.00 198.35 498.01 198.35 Z" fill="#ffe1c7" fill-rule="evenodd" node-id="40" stroke="none" target-height="495.982" target-width="361.73502" target-x="314.145" target-y="198.354"></path><path d="M 627.37 416.23 C 627.37 416.23 569.53 404.00 540.12 413.10 C 525.90 420.20 538.90 434.58 559.96 427.81 C 581.02 421.05 627.37 416.23 627.37 416.23 Z" fill="#654840" fill-rule="evenodd" node-id="42" stroke="#654840" stroke-linecap="round" stroke-width="7.75235" target-height="30.574005" target-width="101.46399" target-x="525.903" target-y="404.003"></path><path d="M 366.13 416.23 C 366.13 416.23 423.97 404.00 453.38 413.10 C 467.60 420.20 454.60 434.58 433.54 427.81 C 412.48 421.05 366.13 416.23 366.13 416.23 Z" fill="#654840" fill-rule="evenodd" node-id="44" stroke="#654840" stroke-linecap="round" stroke-width="7.75235" target-height="30.574005" target-width="101.46399" target-x="366.133" target-y="404.003"></path><path d="M 681.43 506.49 C 700.45 458.65 715.26 428.44 718.94 393.80 C 735.16 240.94 636.24 149.48 554.66 158.21 C 470.18 107.81 314.87 172.03 287.03 319.69 C 269.28 413.96 291.38 449.39 317.80 505.12 C 319.05 507.77 323.14 506.52 323.13 503.58 C 322.86 427.42 358.13 390.16 429.65 373.54 C 429.65 373.54 481.35 365.86 512.12 345.50 C 514.72 343.79 517.88 346.53 516.48 349.32 C 513.57 355.21 510.65 360.63 508.11 365.17 C 505.33 370.13 510.05 375.86 515.47 374.18 C 539.85 366.60 598.50 350.60 620.90 333.60 C 624.72 330.71 630.21 332.61 631.55 337.19 C 636.62 354.38 647.25 387.84 656.97 401.33 C 670.09 419.55 675.27 461.81 676.00 505.07 C 676.05 508.04 680.35 509.23 681.43 506.49 Z" fill="#654840" fill-rule="evenodd" node-id="46" stroke="none" target-height="401.416" target-width="465.883" target-x="269.279" target-y="107.815"></path><path d="M 521.85 440.45 C 521.86 440.45 521.86 440.45 520.15 446.01 L 521.86 440.45 C 524.93 441.40 526.65 444.65 525.71 447.72 C 524.77 450.77 521.56 452.49 518.51 451.59 C 518.50 451.59 518.49 451.58 518.47 451.58 C 518.41 451.56 518.27 451.53 518.08 451.50 C 517.69 451.43 517.13 451.36 516.49 451.37 C 515.18 451.39 513.94 451.71 512.95 452.57 C 512.01 453.39 510.49 455.40 510.00 460.47 C 509.50 465.62 510.12 473.48 513.18 485.25 C 513.19 485.28 513.20 485.30 513.20 485.33 C 515.62 495.27 517.63 504.10 518.70 511.56 C 519.74 518.88 520.02 525.65 518.38 531.10 C 517.53 533.93 516.12 536.58 513.89 538.71 C 511.66 540.86 508.90 542.21 505.84 542.90 C 499.97 544.23 492.61 543.25 483.96 540.81 C 480.87 539.93 479.07 536.72 479.94 533.63 C 480.82 530.54 484.03 528.74 487.12 529.62 C 495.31 531.93 500.33 532.23 503.27 531.56 C 504.60 531.26 505.36 530.79 505.84 530.33 C 506.33 529.85 506.84 529.09 507.25 527.76 C 508.11 524.86 508.18 520.20 507.18 513.21 C 506.21 506.38 504.33 498.04 501.91 488.13 C 498.69 475.69 497.74 466.37 498.42 459.35 C 499.11 452.24 501.52 447.11 505.31 443.81 C 509.04 440.55 513.31 439.79 516.33 439.74 C 517.86 439.72 519.16 439.88 520.11 440.05 C 520.58 440.13 520.97 440.22 521.27 440.29 C 521.42 440.33 521.54 440.36 521.64 440.39 C 521.69 440.40 521.73 440.42 521.77 440.43 L 521.82 440.44 L 521.84 440.45 L 521.85 440.45 Z" fill="#dd936f" fill-rule="evenodd" node-id="48" stroke="none" target-height="104.51001" target-width="47.583008" target-x="479.07" target-y="439.722"></path><path d="M 415.49 494.46 C 426.73 494.46 435.84 484.35 435.84 469.27 C 435.84 454.19 426.73 444.07 415.49 444.07 C 404.25 444.07 395.14 454.19 395.14 469.27 C 395.14 484.35 404.25 494.46 415.49 494.46 Z" fill="#3b4453" fill-rule="evenodd" node-id="50" stroke="none" target-height="50.390015" target-width="40.699005" target-x="395.141" target-y="444.073"></path><path d="M 574.41 494.46 C 585.65 494.46 594.77 484.35 594.77 469.27 C 594.77 454.19 585.65 444.07 574.41 444.07 C 563.19 444.07 554.07 454.19 554.07 469.27 C 554.07 484.35 563.19 494.46 574.41 494.46 Z" fill="#3b4453" fill-rule="evenodd" node-id="52" stroke="none" target-height="50.390015" target-width="40.700012" target-x="554.068" target-y="444.073"></path><g node-id="82"><path d="M 422.28 537.10 C 422.28 543.78 418.30 550.19 411.21 554.92 C 404.12 559.64 394.51 562.30 384.49 562.30 C 374.46 562.30 364.85 559.64 357.76 554.92 C 350.68 550.19 346.69 543.78 346.69 537.10 C 346.69 523.19 363.61 511.91 384.49 511.91 C 405.36 511.91 422.28 523.19 422.28 537.10 Z" fill="#ffc0be" fill-opacity="0.687386" fill-rule="nonzero" group-id="1" node-id="56" stroke="none" target-height="50.39023" target-width="75.58539" target-x="346.6933" target-y="511.9059"></path></g><g node-id="83"><path d="M 650.97 537.10 C 650.97 543.78 646.99 550.19 639.90 554.92 C 632.82 559.64 623.20 562.30 613.18 562.30 C 603.16 562.30 593.54 559.64 586.46 554.92 C 579.37 550.19 575.39 543.78 575.39 537.10 C 575.39 530.42 579.37 524.01 586.46 519.29 C 593.54 514.56 603.16 511.91 613.18 511.91 C 623.20 511.91 632.82 514.56 639.90 519.29 C 646.99 524.01 650.97 530.42 650.97 537.10 Z" fill="#ffc0be" fill-opacity="0.687386" fill-rule="nonzero" group-id="2" node-id="61" stroke="none" target-height="50.39023" target-width="75.58545" target-x="575.3863" target-y="511.9059"></path></g><path d="M 707.18 576.83 C 707.18 582.23 705.03 587.41 701.22 591.22 C 697.40 595.04 692.22 597.18 686.83 597.18 C 681.43 597.18 676.25 595.04 672.44 591.22 C 668.62 587.41 666.48 582.23 666.48 576.83 C 666.48 571.43 668.62 566.26 672.44 562.44 C 676.25 558.63 681.43 556.48 686.83 556.48 C 692.22 556.48 697.40 558.63 701.22 562.44 C 705.03 566.26 707.18 571.43 707.18 576.83 Z" fill="#ffb956" fill-rule="nonzero" node-id="64" stroke="none" target-height="40.69983" target-width="40.69983" target-x="666.4761" target-y="556.48206"></path><path d="M 331.37 576.83 C 331.37 582.23 329.22 587.41 325.41 591.22 C 321.59 595.04 316.41 597.18 311.02 597.18 C 305.62 597.18 300.44 595.04 296.63 591.22 C 292.81 587.41 290.67 582.23 290.67 576.83 C 290.67 571.43 292.81 566.26 296.63 562.44 C 300.44 558.63 305.62 556.48 311.02 556.48 C 316.41 556.48 321.59 558.63 325.41 562.44 C 329.22 566.26 331.37 571.43 331.37 576.83 Z" fill="#ffb956" fill-rule="nonzero" node-id="66" stroke="none" target-height="40.69983" target-width="40.69983" target-x="290.66608" target-y="556.48206"></path><path d="M 441.66 575.86 C 441.66 575.86 478.48 578.77 501.74 578.77 C 525.00 578.77 558.91 575.86 558.91 575.86 C 558.91 575.86 533.72 620.44 500.77 620.44 C 467.82 620.44 441.66 575.86 441.66 575.86 Z" fill="#ffffff" fill-rule="evenodd" node-id="68" stroke="none" target-height="44.57605" target-width="117.254" target-x="441.658" target-y="575.863"></path><path d="M 563.98 578.72 L 558.91 575.86 L 558.42 570.07 C 560.57 569.88 562.64 570.91 563.81 572.72 C 564.97 574.53 565.04 576.85 563.98 578.72 Z M 441.66 575.86 L 442.12 570.07 L 442.53 570.10 C 442.80 570.12 443.20 570.15 443.73 570.19 C 444.77 570.27 446.29 570.38 448.19 570.52 C 451.99 570.79 457.30 571.15 463.33 571.51 C 475.42 572.24 490.30 572.96 501.74 572.96 C 513.18 572.96 527.32 572.24 538.68 571.51 C 544.34 571.15 549.28 570.79 552.80 570.52 C 554.57 570.38 555.97 570.27 556.94 570.19 C 557.42 570.15 557.79 570.12 558.04 570.10 L 558.42 570.07 L 558.91 575.86 C 563.98 578.72 563.98 578.73 563.97 578.73 L 563.97 578.74 L 563.95 578.78 L 563.88 578.90 C 563.82 579.00 563.74 579.14 563.63 579.32 C 563.42 579.68 563.11 580.19 562.71 580.84 C 561.92 582.12 560.75 583.95 559.25 586.12 C 556.26 590.47 551.90 596.28 546.45 602.12 C 535.78 613.53 519.78 626.25 500.77 626.25 C 481.79 626.25 465.55 613.56 454.66 602.17 C 449.08 596.34 444.60 590.53 441.52 586.19 C 439.98 584.02 438.77 582.20 437.95 580.91 C 437.54 580.27 437.22 579.75 437.00 579.40 C 436.89 579.22 436.81 579.08 436.75 578.98 L 436.68 578.86 L 436.66 578.83 L 436.65 578.81 C 436.65 578.81 436.65 578.81 441.66 575.86 Z M 441.66 575.86 L 442.12 570.07 C 439.96 569.90 437.88 570.94 436.73 572.78 C 435.58 574.61 435.55 576.94 436.65 578.81 L 441.66 575.86 Z M 453.24 582.52 C 455.87 586.01 459.18 590.08 463.06 594.13 C 473.49 605.03 486.81 614.62 500.77 614.62 C 514.71 614.62 527.78 605.06 537.95 594.18 C 541.74 590.13 544.97 586.06 547.52 582.57 C 545.07 582.75 542.34 582.93 539.42 583.12 C 528.00 583.85 513.56 584.58 501.74 584.58 C 489.93 584.58 474.76 583.85 462.63 583.12 C 459.23 582.92 456.05 582.71 453.24 582.52 Z" fill="#c14e45" fill-rule="evenodd" node-id="70" stroke="none" target-height="56.36798" target-width="129.48798" target-x="435.549" target-y="569.885"></path><path d="M 406.77 415.00 C 367.17 415.00 335.06 447.11 335.06 486.71 C 335.06 526.31 367.17 558.42 406.77 558.42 C 446.38 558.42 478.48 526.31 478.48 486.71 C 478.48 447.11 446.38 415.00 406.77 415.00 Z M 327.31 486.71 C 327.31 442.83 362.89 407.25 406.77 407.25 C 450.66 407.25 486.23 442.83 486.23 486.71 C 486.23 530.60 450.66 566.17 406.77 566.17 C 362.89 566.17 327.31 530.60 327.31 486.71 Z" fill="#ffb956" fill-rule="evenodd" node-id="72" stroke="none" target-height="158.923" target-width="158.92297" target-x="327.311" target-y="407.249"></path><path d="M 592.83 416.94 C 553.23 416.94 521.12 449.05 521.12 488.65 C 521.12 528.25 553.23 560.36 592.83 560.36 C 632.43 560.36 664.54 528.25 664.54 488.65 C 664.54 449.05 632.43 416.94 592.83 416.94 Z M 513.37 488.65 C 513.37 444.76 548.95 409.19 592.83 409.19 C 636.72 409.19 672.29 444.76 672.29 488.65 C 672.29 532.53 636.72 568.11 592.83 568.11 C 548.95 568.11 513.37 532.53 513.37 488.65 Z" fill="#ffb956" fill-rule="evenodd" node-id="74" stroke="none" target-height="158.92297" target-width="158.92297" target-x="513.369" target-y="409.187"></path><path d="M 483.58 493.30 C 483.58 493.30 483.58 493.30 482.36 489.62 C 481.13 485.94 481.13 485.94 481.13 485.94 L 481.14 485.94 L 481.17 485.93 L 481.28 485.89 C 481.38 485.86 481.51 485.81 481.69 485.76 C 482.04 485.65 482.53 485.49 483.15 485.30 C 484.39 484.93 486.11 484.43 488.05 483.93 C 491.82 482.95 496.84 481.87 500.77 481.87 C 504.74 481.87 509.31 482.97 512.65 483.96 C 514.37 484.47 515.86 484.98 516.93 485.36 C 517.46 485.55 517.89 485.71 518.19 485.83 C 518.34 485.89 518.46 485.93 518.54 485.96 L 518.64 486.00 L 518.67 486.01 L 518.68 486.02 L 518.68 486.02 C 518.68 486.02 518.68 486.02 517.24 489.62 C 515.80 493.22 515.80 493.22 515.80 493.22 L 515.79 493.21 L 515.72 493.18 C 515.66 493.16 515.56 493.12 515.43 493.07 C 515.17 492.98 514.79 492.83 514.31 492.66 C 513.35 492.32 512.00 491.86 510.45 491.40 C 507.25 490.45 503.57 489.62 500.77 489.62 C 497.91 489.62 493.73 490.47 489.99 491.43 C 488.18 491.90 486.56 492.37 485.41 492.72 C 484.83 492.90 484.37 493.04 484.05 493.14 C 483.89 493.19 483.77 493.23 483.69 493.26 L 483.61 493.29 L 483.58 493.29 L 483.58 493.30 Z" fill="#ffb956" fill-rule="evenodd" node-id="76" stroke="none" target-height="11.430023" target-width="37.551025" target-x="481.13" target-y="481.865"></path><path d="M 607.79 764.52 C 607.79 764.52 606.88 810.03 623.16 824.58 C 650.72 849.15 724.62 857.85 754.66 860.76 C 755.11 860.98 755.55 861.21 755.98 861.43 L 785.67 864.64 C 791.62 865.77 797.39 866.81 802.99 867.83 C 875.01 880.86 918.08 908.12 941.90 1024.00 C 740.63 1024.00 346.04 1024.00 75.92 1024.00 C 75.92 911.89 143.97 880.86 215.99 867.83 C 221.59 866.81 227.37 865.77 233.31 864.64 L 314.05 855.93 C 341.17 850.99 366.33 844.93 380.41 832.36 C 396.70 817.82 396.12 763.86 396.12 763.86 L 607.79 764.52 Z" fill="#353e4d" fill-rule="nonzero" node-id="78" stroke="none" target-height="260.143" target-width="865.98596" target-x="75.918" target-y="763.857"></path><path d="M 579.27 844.45 C 579.48 847.12 577.48 849.45 574.81 849.65 C 545.25 851.93 506.65 857.68 475.35 862.90 C 459.71 865.50 445.94 867.96 436.07 869.77 C 431.14 870.67 427.18 871.42 424.46 871.93 C 423.10 872.19 422.05 872.39 421.34 872.53 L 420.27 872.73 C 420.27 872.73 420.27 872.73 419.34 867.98 C 418.42 863.22 418.42 863.22 418.42 863.22 L 418.70 863.17 C 418.88 863.13 419.16 863.08 419.51 863.01 C 420.23 862.87 421.29 862.67 422.66 862.41 C 425.40 861.89 429.37 861.15 434.32 860.24 C 444.23 858.42 458.06 855.95 473.76 853.34 C 505.11 848.12 544.06 842.30 574.07 839.99 C 576.74 839.79 579.07 841.78 579.27 844.45 Z M 414.58 868.90 C 414.07 866.28 415.79 863.73 418.42 863.22 L 419.34 867.98 L 420.27 872.73 C 417.64 873.24 415.10 871.53 414.58 868.90 Z" fill="#1e2634" fill-rule="evenodd" node-id="80" stroke="none" target-height="33.455994" target-width="165.40399" target-x="414.075" target-y="839.788"></path></svg>