<?xml version="1.0" standalone="no"?><!DOCTYPE svg PUBLIC "-//W3C//DTD SVG 1.1//EN" "http://www.w3.org/Graphics/SVG/1.1/DTD/svg11.dtd"><svg height="1025" node-id="1" sillyvg="true" template-height="1025" template-width="1024" version="1.1" viewBox="0 0 1024 1025" width="1024" xmlns="http://www.w3.org/2000/svg" xmlns:xlink="http://www.w3.org/1999/xlink"><defs node-id="26"></defs><path d="M 0.00 0.00 L 1024.00 0.00 L 1024.00 1024.00 L 0.00 1024.00 Z" fill="#fff7eb" fill-rule="nonzero" node-id="28" stroke="none" target-height="1024" target-width="1024" target-x="0" target-y="0"></path><path d="M 665.60 241.88 C 665.60 289.65 626.87 328.39 579.09 328.39 C 531.31 328.39 492.58 289.65 492.58 241.88 C 492.58 194.10 531.31 155.37 579.09 155.37 C 626.87 155.37 665.60 194.10 665.60 241.88 Z" fill="#916b5b" fill-rule="nonzero" node-id="30" stroke="none" target-height="173.0206" target-width="173.02063" target-x="492.5797" target-y="155.36569"></path><path d="M 426.08 758.33 L 412.30 578.46 L 613.81 578.46 L 613.81 758.33 C 615.82 788.26 626.43 809.82 715.00 816.00 C 707.94 872.53 758.81 976.47 520.46 975.97 C 282.12 975.47 315.66 857.98 313.01 810.28 C 378.04 812.93 424.00 789.33 426.08 758.33 Z" fill="#fbbfb1" fill-rule="evenodd" node-id="32" stroke="none" target-height="398.01404" target-width="476.69" target-x="282.117" target-y="578.459"></path><path d="M 613.81 632.33 C 613.81 632.33 534.79 714.37 422.68 706.42 C 422.68 696.70 412.30 578.46 412.30 578.46 L 613.81 578.46 L 613.81 632.33 Z" fill="#e99885" fill-rule="evenodd" node-id="34" stroke="none" target-height="135.90698" target-width="201.51404" target-x="412.3" target-y="578.459"></path><path d="M 369.23 458.93 C 369.23 458.93 340.86 431.25 320.89 452.09 C 303.62 470.10 320.26 559.13 382.77 558.29 L 369.23 458.93 Z" fill="#fbbfb1" fill-rule="evenodd" node-id="36" stroke="none" target-height="127.88202" target-width="79.14404" target-x="303.625" target-y="431.248"></path><path d="M 661.20 458.93 C 661.20 458.93 689.57 431.25 709.54 452.09 C 726.81 470.10 710.18 559.13 647.67 558.29 L 661.20 458.93 Z" fill="#fbbfb1" fill-rule="evenodd" node-id="38" stroke="none" target-height="127.88202" target-width="79.143005" target-x="647.667" target-y="431.248"></path><path d="M 510.96 208.71 C 393.26 208.71 329.65 316.76 350.26 436.61 C 360.38 495.51 363.53 497.89 376.90 556.52 C 382.97 583.18 433.65 671.59 520.00 669.83 C 596.97 668.94 648.75 585.31 654.81 558.04 C 667.60 500.59 671.83 495.76 679.58 436.61 C 695.38 316.02 636.57 208.71 518.87 208.71 L 510.96 208.71 Z" fill="#ffd0c5" fill-rule="evenodd" node-id="40" stroke="none" target-height="462.881" target-width="365.729" target-x="329.654" target-y="208.712"></path><path d="M 612.15 796.22 C 617.26 790.56 622.44 784.81 627.91 779.18 C 653.01 801.56 748.50 821.50 792.50 825.50 C 836.50 829.50 895.59 854.03 913.04 918.48 L 931.70 1024.13 L 108.28 1024.13 L 118.04 943.18 C 128.00 845.50 191.38 830.45 256.99 818.57 C 262.09 817.65 267.35 816.70 272.77 815.67 L 346.32 807.73 C 371.03 803.24 393.94 797.72 406.77 786.27 C 421.96 814.79 458.16 848.25 518.18 849.21 C 563.68 849.95 586.97 824.13 612.15 796.22 L 612.15 796.22 Z" fill="#ff7fae" fill-rule="nonzero" node-id="42" stroke="none" target-height="244.953" target-width="823.41504" target-x="108.28299" target-y="779.177"></path><path d="M 631.74 407.19 C 631.74 407.19 579.05 396.05 552.26 404.33 C 539.31 410.81 551.15 423.90 570.33 417.74 C 589.52 411.57 631.74 407.19 631.74 407.19 Z" fill="#654840" fill-rule="evenodd" node-id="44" stroke="#654840" stroke-linecap="round" stroke-width="7.06207" target-height="27.851044" target-width="92.429016" target-x="539.307" target-y="396.05"></path><path d="M 393.77 407.19 C 393.77 407.19 446.46 396.05 473.25 404.33 C 486.19 410.81 474.35 423.90 455.17 417.74 C 435.99 411.57 393.77 407.19 393.77 407.19 Z" fill="#654840" fill-rule="evenodd" node-id="46" stroke="#654840" stroke-linecap="round" stroke-width="7.06207" target-height="27.851044" target-width="92.428986" target-x="393.76602" target-y="396.05"></path><path d="M 337.19 438.14 C 337.19 438.14 293.82 181.15 524.33 181.15 C 737.77 181.15 698.06 439.83 698.06 439.83 C 698.06 439.83 695.78 441.98 691.47 443.68 C 685.93 465.15 674.73 487.91 674.73 487.91 L 672.37 444.79 C 661.50 442.33 647.47 434.47 630.82 415.14 C 621.95 404.85 604.59 399.57 586.10 393.96 C 546.27 381.86 501.19 368.17 524.33 299.25 C 483.47 300.44 463.53 334.47 443.41 368.79 C 422.81 403.93 402.03 439.38 358.43 440.22 L 355.78 488.75 C 355.78 488.75 342.26 461.27 337.58 438.22 C 337.45 438.19 337.32 438.17 337.19 438.14 Z" fill="#654840" fill-rule="nonzero" node-id="48" stroke="none" target-height="307.603" target-width="443.94803" target-x="293.819" target-y="181.151"></path><path d="M 529.22 420.27 C 529.43 420.12 530.61 419.31 532.30 419.31 C 535.23 419.31 537.60 421.68 537.60 424.61 C 537.60 426.28 536.83 427.77 535.62 428.74 C 535.38 429.05 535.02 429.59 534.55 430.36 C 533.53 432.06 532.17 434.69 530.84 438.11 C 528.19 444.95 525.71 454.83 526.12 466.80 C 526.30 471.87 526.90 477.40 527.54 483.18 C 527.67 484.41 527.81 485.66 527.94 486.91 C 528.68 493.87 529.34 501.11 528.99 507.44 C 528.64 513.60 527.28 520.15 522.84 524.60 C 518.05 529.39 511.14 530.39 502.96 528.66 C 500.10 528.05 498.27 525.24 498.87 522.38 C 499.48 519.51 502.29 517.69 505.15 518.29 C 511.54 519.65 514.12 518.34 515.34 517.11 C 516.91 515.54 518.10 512.39 518.41 506.85 C 518.71 501.49 518.16 495.05 517.41 488.04 C 517.28 486.86 517.15 485.67 517.02 484.47 C 516.39 478.69 515.72 472.67 515.53 467.16 C 515.06 453.53 517.88 442.22 520.97 434.28 C 522.51 430.31 524.13 427.14 525.48 424.90 C 526.14 423.79 526.78 422.85 527.34 422.12 C 527.61 421.77 527.95 421.37 528.32 421.01 C 528.50 420.84 528.80 420.56 529.20 420.28 C 529.21 420.28 529.21 420.27 529.22 420.27 Z" fill="#dd936f" fill-rule="evenodd" node-id="50" stroke="none" target-height="111.08304" target-width="39.332977" target-x="498.267" target-y="419.30997"></path><path d="M 438.73 487.28 C 448.97 487.28 457.27 475.23 457.27 457.27 C 457.27 439.31 448.97 427.25 438.73 427.25 C 428.49 427.25 420.19 439.31 420.19 457.27 C 420.19 475.23 428.49 487.28 438.73 487.28 Z" fill="#654840" fill-rule="evenodd" node-id="52" stroke="none" target-height="60.028015" target-width="37.07602" target-x="420.193" target-y="427.25497"></path><path d="M 583.50 487.28 C 593.73 487.28 602.04 475.23 602.04 457.27 C 602.04 439.31 593.73 427.25 583.50 427.25 C 573.27 427.25 564.97 439.31 564.97 457.27 C 564.97 475.23 573.27 487.28 583.50 487.28 Z" fill="#654840" fill-rule="evenodd" node-id="54" stroke="none" target-height="60.028015" target-width="37.07599" target-x="564.966" target-y="427.25497"></path><g node-id="76"><path d="M 444.91 517.30 C 444.91 523.38 441.28 529.22 434.83 533.53 C 428.37 537.83 419.61 540.25 410.48 540.25 C 401.35 540.25 392.59 537.83 386.14 533.53 C 379.68 529.22 376.05 523.38 376.05 517.30 C 376.05 504.62 391.47 494.34 410.48 494.34 C 429.50 494.34 444.91 504.62 444.91 517.30 Z" fill="#ffc0be" fill-opacity="0.687386" fill-rule="nonzero" group-id="1" node-id="58" stroke="none" target-height="45.90341" target-width="68.855225" target-x="376.05438" target-y="494.34433"></path></g><g node-id="77"><path d="M 653.24 517.30 C 653.24 523.38 649.61 529.22 643.16 533.53 C 636.70 537.83 627.94 540.25 618.81 540.25 C 609.68 540.25 600.93 537.83 594.47 533.53 C 588.01 529.22 584.39 523.38 584.39 517.30 C 584.39 504.62 599.80 494.34 618.81 494.34 C 637.83 494.34 653.24 504.62 653.24 517.30 Z" fill="#ffc0be" fill-opacity="0.687386" fill-rule="nonzero" group-id="2" node-id="63" stroke="none" target-height="45.90341" target-width="68.855225" target-x="584.3854" target-y="494.34433"></path></g><path d="M 704.44 553.49 C 704.44 563.73 696.14 572.03 685.90 572.03 C 675.66 572.03 667.37 563.73 667.37 553.49 C 667.37 543.25 675.66 534.95 685.90 534.95 C 696.14 534.95 704.44 543.25 704.44 553.49 Z" fill="#ffb956" fill-rule="nonzero" node-id="66" stroke="none" target-height="37.075806" target-width="37.075806" target-x="667.3651" target-y="534.9521"></path><path d="M 362.09 553.49 C 362.09 563.73 353.79 572.03 343.55 572.03 C 333.32 572.03 325.02 563.73 325.02 553.49 C 325.02 543.25 333.32 534.95 343.55 534.95 C 353.79 534.95 362.09 543.25 362.09 553.49 Z" fill="#ffb956" fill-rule="nonzero" node-id="68" stroke="none" target-height="37.075806" target-width="37.075806" target-x="325.01608" target-y="534.9521"></path><path d="M 470.51 568.50 C 470.51 568.50 492.58 566.73 513.77 566.73 C 534.95 566.73 562.32 569.38 562.32 569.38 C 562.32 569.38 546.43 586.15 516.41 586.15 C 486.40 586.15 470.51 568.50 470.51 568.50 Z" fill="#ffffff" fill-rule="evenodd" node-id="70" stroke="none" target-height="19.42096" target-width="91.80698" target-x="470.51102" target-y="566.731"></path><path d="M 470.51 568.50 C 466.57 572.04 466.58 572.04 466.58 572.04 L 466.58 572.05 L 466.59 572.06 L 466.61 572.08 C 466.63 572.10 466.65 572.12 466.67 572.15 C 466.72 572.20 466.79 572.27 466.87 572.36 C 467.03 572.53 467.26 572.76 467.55 573.04 C 468.13 573.61 468.96 574.38 470.04 575.30 C 472.21 577.13 475.40 579.53 479.58 581.92 C 487.96 586.71 500.33 591.45 516.41 591.45 C 532.44 591.45 544.78 586.96 553.15 582.42 C 557.33 580.15 560.51 577.87 562.68 576.13 C 563.77 575.26 564.60 574.52 565.18 573.98 C 565.47 573.71 565.70 573.49 565.86 573.33 C 565.95 573.25 566.01 573.18 566.06 573.13 C 566.09 573.10 566.11 573.08 566.12 573.06 L 566.15 573.04 L 566.16 573.03 L 566.16 573.03 C 566.16 573.02 566.16 573.02 562.32 569.38 L 566.16 573.02 C 567.55 571.55 567.99 569.42 567.28 567.52 C 566.57 565.63 564.84 564.30 562.83 564.11 L 562.32 569.38 C 562.83 564.11 562.83 564.11 562.83 564.11 L 562.50 564.08 C 562.29 564.06 561.98 564.03 561.59 563.99 C 560.78 563.92 559.62 563.81 558.16 563.69 C 555.25 563.44 551.13 563.11 546.36 562.77 C 536.82 562.11 524.54 561.43 513.77 561.43 C 503.04 561.43 492.12 561.88 483.91 562.33 C 479.79 562.55 476.35 562.77 473.93 562.94 C 472.71 563.02 471.76 563.09 471.11 563.14 C 470.78 563.16 470.53 563.18 470.36 563.20 L 470.09 563.22 C 470.09 563.22 470.09 563.22 470.51 568.50 Z M 485.09 572.87 C 492.16 576.86 502.65 580.86 516.41 580.86 C 529.97 580.86 540.35 577.19 547.43 573.47 C 546.84 573.42 546.23 573.38 545.62 573.34 C 536.17 572.68 524.18 572.03 513.77 572.03 C 503.56 572.03 493.13 572.44 485.09 572.87 Z M 470.51 568.50 L 470.09 563.22 C 468.08 563.38 466.34 564.66 465.59 566.54 C 464.85 568.41 465.23 570.54 466.57 572.04 L 470.51 568.50 Z" fill="#c14e45" fill-rule="evenodd" node-id="72" stroke="none" target-height="30.013977" target-width="103.142975" target-x="464.845" target-y="561.434"></path><path d="M 358.40 471.39 C 358.40 431.42 390.81 399.01 430.79 399.01 C 470.07 399.01 502.04 430.29 503.14 469.31 C 503.68 469.16 504.24 469.01 504.83 468.86 C 508.26 467.97 512.84 466.98 516.41 466.98 C 520.04 466.98 524.19 467.99 527.24 468.89 C 527.50 468.97 527.75 469.05 528.00 469.12 C 530.10 431.02 561.65 400.77 600.28 400.77 C 640.25 400.77 672.66 433.18 672.66 473.16 C 672.66 513.14 640.25 545.54 600.28 545.54 C 561.43 545.54 529.73 514.95 527.97 476.54 C 527.20 476.27 526.26 475.97 525.23 475.66 C 522.32 474.80 518.97 474.04 516.41 474.04 C 513.81 474.04 510.00 474.82 506.59 475.69 C 505.22 476.05 503.97 476.41 502.98 476.70 C 500.26 514.20 468.98 543.78 430.79 543.78 C 390.81 543.78 358.40 511.37 358.40 471.39 Z M 430.79 406.07 C 394.71 406.07 365.46 435.32 365.46 471.39 C 365.46 507.47 394.71 536.72 430.79 536.72 C 466.86 536.72 496.11 507.47 496.11 471.39 C 496.11 435.32 466.86 406.07 430.79 406.07 Z M 600.28 407.83 C 564.20 407.83 534.95 437.08 534.95 473.16 C 534.95 509.24 564.20 538.48 600.28 538.48 C 636.35 538.48 665.60 509.24 665.60 473.16 C 665.60 437.08 636.35 407.83 600.28 407.83 Z" fill="#ffb956" fill-rule="evenodd" node-id="74" stroke="none" target-height="146.53796" target-width="314.26205" target-x="358.40097" target-y="399.00702"></path></svg>