<?xml version="1.0" standalone="no"?><!DOCTYPE svg PUBLIC "-//W3C//DTD SVG 1.1//EN" "http://www.w3.org/Graphics/SVG/1.1/DTD/svg11.dtd"><svg height="1025" node-id="1" sillyvg="true" template-height="1025" template-width="1024" version="1.1" viewBox="0 0 1024 1025" width="1024" xmlns="http://www.w3.org/2000/svg" xmlns:xlink="http://www.w3.org/1999/xlink"><defs node-id="22"></defs><path d="M 0.00 0.00 L 1024.00 0.00 L 1024.00 1024.00 L 0.00 1024.00 Z" fill="#e0e6ff" fill-rule="nonzero" node-id="24" stroke="none" target-height="1024" target-width="1024" target-x="0" target-y="0"></path><path d="M 425.20 768.32 L 411.41 588.45 L 613.07 588.45 L 613.07 768.32 C 615.08 798.25 628.01 807.90 716.65 814.08 C 709.58 870.61 758.17 986.45 519.65 985.95 C 281.13 985.45 314.70 867.97 312.05 820.26 C 377.12 822.91 423.12 799.32 425.20 768.32 Z" fill="#f6b88a" fill-rule="evenodd" node-id="26" stroke="none" target-height="398.00403" target-width="477.03998" target-x="281.13" target-y="588.448"></path><path d="M 613.07 642.32 C 613.07 642.32 533.98 724.35 421.79 716.40 C 421.79 706.68 411.41 588.45 411.41 588.45 L 613.07 588.45 L 613.07 642.32 Z" fill="#ea9e66" fill-rule="evenodd" node-id="28" stroke="none" target-height="135.90393" target-width="201.66199" target-x="411.406" target-y="588.448"></path><path d="M 368.31 468.92 C 368.31 468.92 339.92 441.24 319.93 462.08 C 302.65 480.10 319.30 569.12 381.85 568.28 L 368.31 468.92 Z" fill="#f6b88a" fill-rule="evenodd" node-id="30" stroke="none" target-height="127.87799" target-width="79.20102" target-x="302.653" target-y="441.242"></path><path d="M 660.50 468.92 C 660.50 468.92 688.89 441.24 708.87 462.08 C 726.15 480.10 709.51 569.12 646.95 568.28 L 660.50 468.92 Z" fill="#f6b88a" fill-rule="evenodd" node-id="32" stroke="none" target-height="127.87799" target-width="79.20203" target-x="646.949" target-y="441.242"></path><path d="M 510.14 218.71 C 392.36 218.71 328.70 326.76 349.32 446.60 C 359.45 505.51 362.60 507.88 375.98 566.51 C 382.05 593.17 432.78 681.58 519.19 679.82 C 596.21 678.93 648.03 595.30 654.10 568.03 C 666.89 510.58 671.13 505.75 678.89 446.60 C 694.70 326.02 635.84 218.71 518.06 218.71 L 510.14 218.71 Z" fill="#ffcca6" fill-rule="evenodd" node-id="34" stroke="none" target-height="462.86996" target-width="365.998" target-x="328.703" target-y="218.712"></path><path d="M 397.01 423.97 C 394.91 423.97 392.86 422.86 391.76 420.89 C 390.16 417.99 391.20 414.35 394.09 412.74 C 426.24 394.92 475.27 407.15 477.34 407.68 C 480.56 408.49 482.49 411.75 481.67 414.96 C 480.84 418.17 477.64 420.11 474.36 419.29 C 473.91 419.17 427.86 407.71 399.92 423.22 C 399.00 423.73 398.00 423.97 397.01 423.97" fill="#3e2a25" fill-rule="evenodd" node-id="36" stroke="none" target-height="29.049011" target-width="92.33197" target-x="390.15503" target-y="394.92398"></path><path d="M 621.87 423.97 C 620.88 423.97 619.88 423.73 618.96 423.22 C 591.10 407.76 547.69 419.15 547.23 419.26 C 544.07 420.12 540.74 418.23 539.88 415.04 C 539.02 411.85 540.90 408.56 544.11 407.70 C 546.08 407.17 592.60 394.90 624.79 412.74 C 627.68 414.35 628.73 417.99 627.12 420.89 C 626.02 422.86 623.97 423.97 621.87 423.97" fill="#3e2a25" fill-rule="evenodd" node-id="38" stroke="none" target-height="29.072021" target-width="89.70398" target-x="539.021" target-y="394.9"></path><path d="M 651.68 405.59 L 662.74 420.31 L 676.79 470.86 C 682.71 448.25 686.70 400.98 686.70 394.94 C 686.70 298.83 654.26 206.91 518.20 204.26 C 382.13 201.62 339.78 292.58 339.78 392.29 C 339.78 432.21 352.39 466.44 352.39 466.44 L 361.99 420.31 C 361.99 420.31 371.43 407.24 372.07 405.22 C 374.47 397.68 376.23 367.24 384.34 338.00 C 384.34 338.00 472.24 301.37 537.12 320.79 C 537.12 320.79 586.69 309.51 645.20 336.74 C 653.53 368.27 651.68 405.59 651.68 405.59 Z" fill="#916b5b" fill-rule="evenodd" node-id="40" stroke="none" target-height="269.242" target-width="346.924" target-x="339.779" target-y="201.615"></path><path d="M 518.98 428.43 C 521.90 428.43 524.27 430.80 524.27 433.72 L 524.27 433.72 C 524.27 434.58 524.27 451.29 525.15 476.80 C 525.69 492.28 529.10 507.04 531.74 518.42 C 531.85 518.93 531.97 519.43 532.08 519.93 C 532.63 522.31 531.48 524.76 529.29 525.85 L 529.29 525.86 C 524.01 528.49 517.00 532.00 505.60 538.14 C 503.02 539.53 499.81 538.56 498.43 535.99 C 497.04 533.41 498.00 530.20 500.58 528.81 C 509.62 523.94 515.95 520.70 520.82 518.25 C 518.28 507.20 515.10 492.56 514.57 477.16 C 513.68 451.48 513.68 434.65 513.68 433.72 C 513.68 430.80 516.05 428.43 518.98 428.43 Z" fill="#bb6957" fill-rule="evenodd" node-id="42" stroke="none" target-height="111.09897" target-width="35.595978" target-x="497.038" target-y="428.42703"></path><path d="M 437.76 488.46 C 448.00 488.46 456.30 479.24 456.30 465.50 C 456.30 451.77 448.00 442.55 437.76 442.55 C 427.52 442.55 419.23 451.77 419.23 465.50 C 419.23 479.24 427.52 488.46 437.76 488.46 Z" fill="#3e2a25" fill-rule="evenodd" node-id="44" stroke="none" target-height="45.903015" target-width="37.075043" target-x="419.227" target-y="442.552"></path><path d="M 582.53 488.46 C 592.77 488.46 601.08 479.24 601.08 465.50 C 601.08 451.77 592.77 442.55 582.53 442.55 C 572.31 442.55 564.00 451.77 564.00 465.50 C 564.00 479.24 572.31 488.46 582.53 488.46 Z" fill="#3e2a25" fill-rule="evenodd" node-id="46" stroke="none" target-height="45.903015" target-width="37.07599" target-x="564" target-y="442.552"></path><path d="M 467.91 561.26 C 469.63 558.89 472.94 558.37 475.31 560.09 L 475.33 560.10 L 475.40 560.16 C 475.47 560.20 475.57 560.28 475.70 560.37 C 475.96 560.55 476.34 560.82 476.80 561.15 C 477.74 561.80 479.01 562.68 480.39 563.58 C 481.77 564.49 483.20 565.38 484.46 566.08 C 485.09 566.43 485.63 566.71 486.06 566.91 C 486.34 567.04 486.53 567.11 486.63 567.15 C 486.70 567.15 486.83 567.17 487.02 567.18 C 487.48 567.22 488.13 567.25 488.96 567.28 C 490.60 567.34 492.82 567.37 495.44 567.39 C 500.66 567.43 507.36 567.41 514.08 567.35 C 522.49 567.28 531.00 567.17 536.59 567.10 C 539.50 567.06 541.61 567.03 542.52 567.02 C 542.54 567.01 542.57 567.00 542.60 566.99 C 542.89 566.89 543.32 566.70 543.89 566.39 C 545.04 565.79 546.39 564.93 547.74 563.99 C 549.08 563.06 550.33 562.13 551.25 561.42 C 551.71 561.07 552.08 560.77 552.33 560.57 C 552.46 560.47 552.55 560.39 552.62 560.34 L 552.68 560.29 L 552.70 560.27 L 552.70 560.27 C 554.97 558.42 558.30 558.75 560.15 561.02 C 562.01 563.28 561.67 566.62 559.41 568.47 L 556.05 564.37 C 559.41 568.47 559.41 568.47 559.41 568.47 L 559.41 568.47 L 559.37 568.50 L 559.27 568.58 C 559.20 568.64 559.08 568.74 558.93 568.86 C 558.64 569.09 558.23 569.41 557.72 569.81 C 556.71 570.59 555.31 571.64 553.77 572.70 C 552.26 573.75 550.52 574.87 548.85 575.76 C 548.01 576.20 547.11 576.63 546.19 576.96 C 545.34 577.26 544.14 577.61 542.81 577.61 C 542.17 577.61 539.98 577.64 536.80 577.69 C 531.29 577.76 522.78 577.87 514.17 577.94 C 507.43 578.00 500.66 578.03 495.35 577.99 C 492.70 577.97 490.38 577.93 488.58 577.86 C 487.69 577.83 486.89 577.79 486.23 577.74 C 485.70 577.71 484.87 577.63 484.15 577.46 C 482.52 577.05 480.71 576.12 479.29 575.33 C 477.74 574.46 476.08 573.42 474.59 572.45 C 473.10 571.47 471.72 570.52 470.73 569.83 C 470.23 569.48 469.82 569.19 469.54 568.99 C 469.39 568.88 469.28 568.80 469.20 568.75 L 469.11 568.68 L 469.08 568.66 C 469.08 568.66 469.08 568.66 472.19 564.37 L 469.08 568.66 C 466.71 566.94 466.19 563.62 467.91 561.26 Z" fill="#c14e45" fill-rule="evenodd" node-id="48" stroke="none" target-height="19.658997" target-width="95.81802" target-x="466.189" target-y="558.368"></path><g node-id="65"><path d="M 498.12 601.44 L 498.25 601.43 C 498.34 601.42 498.46 601.41 498.63 601.40 C 498.96 601.38 499.44 601.34 500.03 601.30 C 501.21 601.22 502.86 601.11 504.68 601.00 C 508.36 600.78 512.65 600.57 515.45 600.57 C 518.24 600.57 522.54 600.78 526.22 601.00 C 528.04 601.11 529.68 601.22 530.87 601.30 C 531.46 601.34 531.94 601.38 532.27 601.40 C 532.43 601.41 532.56 601.42 532.64 601.43 L 532.77 601.44 C 535.20 601.62 537.32 599.79 537.50 597.36 C 537.69 594.93 535.86 592.82 533.43 592.63 L 533.10 597.03 C 533.43 592.63 533.43 592.63 533.43 592.63 L 533.29 592.62 C 533.21 592.62 533.07 592.61 532.90 592.59 C 532.57 592.57 532.08 592.53 531.48 592.49 C 530.27 592.41 528.60 592.30 526.75 592.19 C 523.07 591.97 518.54 591.74 515.45 591.74 C 512.36 591.74 507.82 591.97 504.15 592.19 C 502.29 592.30 500.62 592.41 499.42 592.49 C 498.82 592.53 498.33 592.57 497.99 592.59 C 497.82 592.61 497.69 592.62 497.60 592.62 L 497.46 592.63 C 497.46 592.63 497.46 592.63 497.79 597.03 L 497.46 592.63 C 495.03 592.82 493.21 594.93 493.39 597.36 C 493.57 599.79 495.69 601.62 498.12 601.44 C 498.12 601.44 498.12 601.44 498.12 601.44 Z" fill="#c14e45" fill-opacity="0.2" fill-rule="evenodd" group-id="1" node-id="52" stroke="none" target-height="9.880005" target-width="44.477997" target-x="493.209" target-y="591.738"></path></g><path d="M 612.15 796.22 C 617.26 790.56 622.44 784.81 627.91 779.18 C 653.01 801.56 748.50 821.50 792.50 825.50 C 836.50 829.50 905.59 854.03 923.04 918.48 L 941.70 1024.13 L 98.28 1024.13 L 108.04 943.18 C 118.00 845.50 191.38 830.45 256.99 818.57 C 262.09 817.65 267.35 816.70 272.77 815.67 L 346.32 807.73 C 371.03 803.24 393.94 797.72 406.77 786.27 C 421.96 814.79 458.16 848.25 518.18 849.21 C 563.68 849.95 586.97 824.13 612.15 796.22 Z" fill="#5d887e" fill-rule="nonzero" node-id="55" stroke="none" target-height="244.953" target-width="843.4148" target-x="98.2832" target-y="779.177"></path><path d="M 526.12 850.98 C 516.84 869.55 389.17 847.95 363.69 820.08 C 348.16 803.09 352.79 793.77 359.29 786.51 L 360.00 785.73 L 360.00 785.73 L 360.73 784.96 L 360.73 784.96 L 362.19 783.46 L 362.19 783.46 L 363.27 782.36 L 363.27 782.36 L 364.31 781.28 L 364.31 781.28 L 364.99 780.56 L 364.99 780.56 L 365.63 779.85 C 368.36 776.77 370.17 773.75 369.12 770.18 L 368.99 769.77 C 362.81 752.11 379.45 729.57 406.95 733.57 C 417.00 735.03 421.41 739.57 424.35 746.18 L 424.74 747.10 L 424.74 747.10 L 425.12 748.04 L 425.12 748.04 L 425.48 749.00 L 425.48 749.00 L 425.83 749.99 L 425.83 749.99 L 426.34 751.52 L 426.34 751.52 L 426.68 752.56 L 426.68 752.56 L 427.17 754.17 L 427.17 754.17 L 428.69 759.28 L 428.69 759.28 L 429.24 761.07 L 429.24 761.07 L 429.82 762.90 L 429.82 762.90 L 430.23 764.14 L 430.23 764.14 L 430.66 765.40 L 430.66 765.40 L 431.11 766.67 C 431.34 767.32 431.58 767.96 431.83 768.61 L 432.35 769.92 C 433.42 772.56 434.68 775.28 436.20 778.06 C 448.03 799.67 469.12 814.58 487.94 825.42 L 490.38 826.81 C 490.79 827.04 491.19 827.27 491.59 827.49 L 493.98 828.82 L 493.98 828.82 L 496.33 830.10 L 496.33 830.10 L 499.77 831.94 L 499.77 831.94 L 510.25 837.47 L 510.25 837.47 L 512.12 838.47 L 512.12 838.47 L 513.90 839.43 L 513.90 839.43 L 515.58 840.37 C 523.23 844.67 527.61 848.01 526.12 850.98 Z" fill="#324e47" fill-rule="evenodd" node-id="57" stroke="none" target-height="139.98303" target-width="179.44699" target-x="348.15903" target-y="729.57196"></path><path d="M 508.41 849.21 C 517.70 867.79 645.36 846.18 670.84 818.32 C 685.53 802.25 682.19 793.04 676.29 785.95 L 675.60 785.14 C 675.48 785.01 675.37 784.88 675.25 784.75 L 674.53 783.96 L 674.53 783.96 L 673.80 783.19 L 673.80 783.19 L 671.99 781.32 L 671.99 781.32 L 671.27 780.59 L 671.27 780.59 L 670.22 779.51 L 670.22 779.51 L 669.55 778.80 C 666.36 775.35 664.13 772.03 665.54 768.00 C 671.72 750.34 655.08 727.81 627.58 731.81 C 616.85 733.37 612.54 738.44 609.60 745.80 L 609.23 746.75 L 609.23 746.75 L 608.87 747.73 L 608.87 747.73 L 608.53 748.73 L 608.53 748.73 L 608.19 749.75 L 608.19 749.75 L 607.69 751.33 L 607.69 751.33 L 607.20 752.95 L 607.20 752.95 L 605.84 757.52 L 605.84 757.52 L 605.29 759.31 L 605.29 759.31 L 604.91 760.52 L 604.91 760.52 L 604.51 761.75 L 604.51 761.75 L 604.09 763.00 L 604.09 763.00 L 603.65 764.27 L 603.65 764.27 L 603.19 765.55 C 603.03 765.98 602.87 766.41 602.70 766.85 L 602.18 768.16 C 601.11 770.79 599.86 773.51 598.33 776.30 C 585.99 798.84 563.56 814.10 544.15 825.05 L 541.74 826.39 C 541.34 826.62 540.95 826.83 540.55 827.05 L 538.20 828.33 L 538.20 828.33 L 534.76 830.18 L 534.76 830.18 L 524.29 835.70 L 524.29 835.70 L 522.42 836.70 L 522.42 836.70 L 520.64 837.67 L 520.64 837.67 L 518.95 838.61 C 511.31 842.91 506.93 846.25 508.41 849.21 Z" fill="#324e47" fill-rule="evenodd" node-id="59" stroke="none" target-height="139.98193" target-width="178.59995" target-x="506.92703" target-y="727.807"></path><path d="M 492.58 844.81 C 492.56 842.37 490.57 840.41 488.14 840.42 C 485.70 840.44 483.74 842.43 483.75 844.87 L 484.40 945.84 C 478.88 947.77 474.92 953.01 474.92 959.18 C 474.92 965.42 478.96 970.71 484.57 972.58 L 484.63 983.37 C 484.65 985.81 486.64 987.77 489.08 987.76 C 491.51 987.74 493.48 985.75 493.46 983.32 L 493.39 972.63 C 499.07 970.79 503.17 965.47 503.17 959.18 C 503.17 952.84 498.99 947.47 493.22 945.69 L 492.58 844.81 Z" fill="#324e47" fill-rule="nonzero" node-id="61" stroke="none" target-height="147.36603" target-width="28.248047" target-x="474.92398" target-y="840.407"></path><path d="M 540.89 945.84 C 535.38 947.77 531.42 953.01 531.42 959.18 C 531.42 965.42 535.46 970.71 541.06 972.58 L 541.13 983.37 C 541.15 985.81 543.13 987.77 545.57 987.76 C 548.01 987.74 549.97 985.75 549.96 983.32 L 549.89 972.63 C 555.56 970.79 559.67 965.47 559.67 959.18 C 559.67 952.84 555.48 947.47 549.72 945.69 L 549.08 844.81 C 549.06 842.37 547.07 840.41 544.63 840.42 C 542.20 840.44 540.23 842.43 540.25 844.87 L 540.89 945.84 Z" fill="#324e47" fill-rule="nonzero" node-id="63" stroke="none" target-height="147.36603" target-width="28.248047" target-x="531.42" target-y="840.407"></path></svg>