<?xml version="1.0" standalone="no"?><!DOCTYPE svg PUBLIC "-//W3C//DTD SVG 1.1//EN" "http://www.w3.org/Graphics/SVG/1.1/DTD/svg11.dtd"><svg height="1025" node-id="1" sillyvg="true" template-height="1025" template-width="1024" version="1.1" viewBox="0 0 1024 1025" width="1024" xmlns="http://www.w3.org/2000/svg" xmlns:xlink="http://www.w3.org/1999/xlink"><defs node-id="26"></defs><path d="M 0.00 0.00 L 1024.00 0.00 L 1024.00 1024.00 L 0.00 1024.00 Z" fill="#e0f4ff" fill-rule="nonzero" node-id="28" stroke="none" target-height="1024" target-width="1024" target-x="0" target-y="0"></path><path d="M 369.23 458.93 C 369.23 458.93 340.86 431.25 320.89 452.09 C 303.62 470.10 320.26 559.13 382.77 558.29 L 369.23 458.93 Z" fill="#f6b88a" fill-rule="evenodd" node-id="30" stroke="none" target-height="127.88202" target-width="79.14404" target-x="303.625" target-y="431.248"></path><path d="M 661.21 458.93 C 661.21 458.93 689.57 431.25 709.54 452.09 C 726.81 470.10 710.18 559.13 647.67 558.29 L 661.21 458.93 Z" fill="#f6b88a" fill-rule="evenodd" node-id="32" stroke="none" target-height="127.88202" target-width="79.14398" target-x="647.668" target-y="431.248"></path><path d="M 433.24 767.17 L 433.43 578.46 L 593.21 581.93 L 602.65 767.17 C 604.65 797.10 690.54 801.89 715.25 820.44 C 714.37 922.47 711.72 977.24 521.05 975.97 C 345.38 972.82 315.37 938.37 314.48 820.44 C 335.67 806.31 431.16 798.17 433.24 767.17 Z" fill="#f6b88a" fill-rule="evenodd" node-id="34" stroke="none" target-height="398.77704" target-width="400.773" target-x="314.482" target-y="578.459"></path><path d="M 596.08 637.64 C 596.08 637.64 545.54 713.61 433.43 705.66 C 433.43 695.95 432.77 577.58 432.77 577.58 L 592.55 582.88 L 596.08 637.64 Z" fill="#ea9e66" fill-rule="evenodd" node-id="36" stroke="none" target-height="136.03796" target-width="163.31097" target-x="432.771" target-y="577.575"></path><path d="M 513.91 208.71 C 400.27 208.71 335.95 286.92 350.59 451.25 C 350.59 451.25 350.59 535.66 405.78 611.07 C 426.64 639.57 474.09 665.95 515.02 667.03 C 556.51 668.09 595.62 647.99 624.29 609.94 C 655.09 569.03 677.70 514.27 677.70 451.31 C 677.70 286.92 637.79 208.71 513.91 208.71 Z" fill="#ffcca6" fill-rule="evenodd" node-id="38" stroke="none" target-height="459.382" target-width="341.75104" target-x="335.951" target-y="208.712"></path><path d="M 631.74 407.19 C 631.74 407.19 579.05 396.05 552.26 404.33 C 539.31 410.81 551.15 423.90 570.34 417.74 C 589.52 411.57 631.74 407.19 631.74 407.19 Z" fill="#654840" fill-rule="evenodd" node-id="40" stroke="#654840" stroke-linecap="round" stroke-width="7.06207" target-height="27.851044" target-width="92.42999" target-x="539.308" target-y="396.05"></path><path d="M 393.76 407.19 C 393.76 407.19 446.45 396.05 473.25 404.33 C 486.19 410.81 474.35 423.90 455.17 417.74 C 435.98 411.57 393.76 407.19 393.76 407.19 Z" fill="#654840" fill-rule="evenodd" node-id="42" stroke="#654840" stroke-linecap="round" stroke-width="7.06207" target-height="27.851044" target-width="92.42999" target-x="393.764" target-y="396.05"></path><path d="M 341.89 319.05 C 338.91 319.39 335.87 319.56 332.80 319.56 C 288.43 319.56 252.47 283.59 252.47 239.23 C 252.47 194.86 288.43 158.90 332.80 158.90 C 367.94 158.90 397.82 181.47 408.72 212.90 C 436.28 193.55 473.70 181.15 524.33 181.15 C 566.16 181.15 598.27 191.09 622.86 207.07 C 635.26 178.71 663.57 158.90 696.50 158.90 C 740.86 158.90 776.83 194.86 776.83 239.23 C 776.83 283.59 740.86 319.56 696.50 319.56 C 695.46 319.56 694.43 319.54 693.40 319.50 C 707.09 381.03 698.06 439.83 698.06 439.83 C 698.06 439.83 695.78 441.98 691.47 443.68 C 685.93 465.15 674.74 487.91 674.74 487.91 L 672.37 444.79 C 661.50 442.33 647.47 434.47 630.82 415.14 C 621.95 404.85 604.59 399.57 586.10 393.96 C 546.27 381.86 501.19 368.17 524.33 299.25 C 483.47 300.44 463.53 334.47 443.41 368.79 C 422.81 403.93 402.03 439.38 358.44 440.22 L 355.78 488.75 C 355.78 488.75 342.26 461.27 337.58 438.22 C 337.45 438.19 337.32 438.17 337.19 438.14 C 337.19 438.14 327.38 380.01 341.89 319.05 Z" fill="#654840" fill-rule="nonzero" node-id="44" stroke="none" target-height="329.858" target-width="524.359" target-x="252.46901" target-y="158.896"></path><path d="M 535.62 429.25 C 535.62 429.25 535.63 429.26 534.07 434.32 L 535.63 429.26 C 538.42 430.12 539.99 433.08 539.13 435.87 C 538.28 438.65 535.35 440.22 532.57 439.40 C 532.57 439.40 532.55 439.39 532.54 439.39 C 532.48 439.38 532.36 439.35 532.18 439.32 C 531.83 439.25 531.32 439.19 530.74 439.20 C 529.54 439.22 528.41 439.51 527.51 440.30 C 526.65 441.04 525.26 442.87 524.82 447.49 C 524.36 452.18 524.93 459.34 527.72 470.06 C 527.73 470.09 527.73 470.11 527.74 470.14 C 529.95 479.19 531.77 487.24 532.74 494.03 C 533.70 500.69 533.95 506.86 532.46 511.83 C 531.68 514.41 530.39 516.82 528.37 518.76 C 526.33 520.72 523.82 521.95 521.03 522.58 C 515.69 523.79 508.98 522.90 501.10 520.67 C 498.28 519.88 496.65 516.95 497.44 514.14 C 498.24 511.32 501.16 509.68 503.98 510.48 C 511.44 512.58 516.02 512.86 518.69 512.25 C 519.91 511.98 520.59 511.55 521.03 511.13 C 521.48 510.69 521.95 510.00 522.31 508.78 C 523.10 506.14 523.17 501.90 522.26 495.53 C 521.37 489.31 519.66 481.72 517.46 472.69 C 514.51 461.36 513.65 452.86 514.27 446.47 C 514.90 440.00 517.10 435.32 520.55 432.31 C 523.95 429.34 527.84 428.65 530.59 428.61 C 531.98 428.59 533.17 428.73 534.03 428.88 C 534.46 428.96 534.82 429.04 535.09 429.11 C 535.22 429.14 535.34 429.17 535.43 429.20 C 535.47 429.21 535.51 429.22 535.54 429.23 L 535.59 429.24 L 535.61 429.25 L 535.62 429.25 Z" fill="#dd936f" fill-rule="evenodd" node-id="46" stroke="none" target-height="95.20395" target-width="43.34604" target-x="496.64597" target-y="428.58804"></path><path d="M 438.73 487.28 C 448.97 487.28 457.27 475.23 457.27 457.27 C 457.27 439.31 448.97 427.25 438.73 427.25 C 428.49 427.25 420.19 439.31 420.19 457.27 C 420.19 475.23 428.49 487.28 438.73 487.28 Z" fill="#654840" fill-rule="evenodd" node-id="48" stroke="none" target-height="60.02707" target-width="37.07602" target-x="420.193" target-y="427.25497"></path><path d="M 583.50 487.28 C 593.74 487.28 602.04 475.23 602.04 457.27 C 602.04 439.31 593.74 427.25 583.50 427.25 C 573.27 427.25 564.97 439.31 564.97 457.27 C 564.97 475.23 573.27 487.28 583.50 487.28 Z" fill="#654840" fill-rule="evenodd" node-id="50" stroke="none" target-height="60.02707" target-width="37.07605" target-x="564.967" target-y="427.25497"></path><g node-id="76"><path d="M 445.50 524.25 C 445.50 533.38 441.87 542.14 435.42 548.59 C 428.96 555.05 420.20 558.68 411.07 558.68 C 401.94 558.68 393.18 555.05 386.73 548.59 C 380.27 542.14 376.64 533.38 376.64 524.25 C 376.64 515.12 380.27 506.36 386.73 499.91 C 393.18 493.45 401.94 489.82 411.07 489.82 C 420.20 489.82 428.96 493.45 435.42 499.91 C 441.87 506.36 445.50 515.12 445.50 524.25 Z" fill="#ffd2b9" fill-opacity="0.604969" fill-rule="nonzero" group-id="1" node-id="54" stroke="none" target-height="68.855194" target-width="68.855255" target-x="376.64435" target-y="489.82144"></path></g><g node-id="77"><path d="M 653.83 524.25 C 653.83 533.38 650.20 542.14 643.75 548.59 C 637.29 555.05 628.53 558.68 619.40 558.68 C 610.27 558.68 601.51 555.05 595.06 548.59 C 588.60 542.14 584.97 533.38 584.97 524.25 C 584.97 515.12 588.60 506.36 595.06 499.91 C 601.51 493.45 610.27 489.82 619.40 489.82 C 628.53 489.82 637.29 493.45 643.75 499.91 C 650.20 506.36 653.83 515.12 653.83 524.25 Z" fill="#ffd2b9" fill-opacity="0.604969" fill-rule="nonzero" group-id="2" node-id="59" stroke="none" target-height="68.855194" target-width="68.855225" target-x="584.97437" target-y="489.82144"></path></g><path d="M 462.57 552.61 C 462.57 552.61 496.11 555.25 517.30 555.25 C 538.48 555.25 569.38 552.61 569.38 552.61 C 569.38 552.61 546.43 593.21 516.41 593.21 C 486.40 593.21 462.57 552.61 462.57 552.61 Z" fill="#ffffff" fill-rule="evenodd" node-id="62" stroke="none" target-height="40.606995" target-width="106.814026" target-x="462.56598" target-y="552.607"></path><path d="M 573.99 555.21 L 569.38 552.61 L 568.93 547.33 C 570.88 547.16 572.77 548.09 573.84 549.75 C 574.90 551.40 574.96 553.50 573.99 555.21 Z M 462.57 552.61 C 462.98 547.33 462.98 547.33 462.98 547.33 L 463.36 547.36 C 463.60 547.38 463.97 547.40 464.45 547.44 C 465.40 547.51 466.79 547.61 468.52 547.74 C 471.98 547.99 476.81 548.32 482.30 548.64 C 493.32 549.30 506.87 549.96 517.30 549.96 C 527.72 549.96 540.60 549.31 550.95 548.65 C 556.10 548.32 560.61 547.99 563.82 547.74 C 565.42 547.62 566.70 547.51 567.58 547.44 C 568.02 547.41 568.36 547.38 568.59 547.36 L 568.93 547.33 L 569.38 552.61 C 573.99 555.21 573.99 555.22 573.99 555.22 L 573.99 555.22 L 573.98 555.23 L 573.96 555.26 C 573.95 555.29 573.93 555.33 573.90 555.37 C 573.85 555.46 573.77 555.59 573.68 555.75 C 573.48 556.08 573.20 556.55 572.84 557.14 C 572.11 558.31 571.05 559.97 569.69 561.96 C 566.96 565.91 562.99 571.21 558.02 576.53 C 548.31 586.92 533.73 598.51 516.41 598.51 C 499.12 598.51 484.33 586.95 474.41 576.57 C 469.33 571.26 465.25 565.97 462.44 562.02 C 461.03 560.04 459.94 558.38 459.19 557.21 C 458.81 556.62 458.52 556.15 458.32 555.83 C 458.22 555.66 458.15 555.53 458.09 555.45 C 458.06 555.40 458.04 555.36 458.03 555.34 L 458.01 555.31 L 458.00 555.29 C 458.00 555.29 458.00 555.29 462.57 552.61 Z M 462.57 552.61 L 462.98 547.33 C 461.01 547.17 459.12 548.12 458.08 549.80 C 457.03 551.47 457.00 553.59 458.00 555.29 L 462.57 552.61 Z M 473.12 558.67 C 475.51 561.85 478.53 565.56 482.06 569.25 C 491.56 579.18 503.69 587.92 516.41 587.92 C 529.11 587.92 541.02 579.21 550.28 569.29 C 553.74 565.60 556.68 561.89 559.00 558.72 C 556.77 558.88 554.28 559.05 551.62 559.22 C 541.22 559.88 528.06 560.55 517.30 560.55 C 506.54 560.55 492.72 559.88 481.67 559.22 C 478.57 559.03 475.68 558.85 473.12 558.67 Z" fill="#c14e45" fill-rule="evenodd" node-id="64" stroke="none" target-height="51.349" target-width="117.959015" target-x="456.999" target-y="547.162"></path><path d="M 612.15 796.22 C 617.26 790.56 622.44 784.81 627.91 779.18 C 653.01 801.56 748.50 821.50 792.50 825.50 C 836.50 829.50 892.59 854.03 910.04 918.48 L 928.70 1024.13 L 123.28 1024.13 L 130.04 943.18 C 151.74 837.63 191.38 830.45 256.99 818.57 C 262.09 817.65 267.35 816.70 272.77 815.67 L 346.32 807.73 C 371.03 803.24 393.94 797.72 406.77 786.27 C 421.96 814.79 458.16 848.25 518.18 849.21 C 563.68 849.95 586.97 824.13 612.15 796.22 L 612.15 796.22 Z" fill="#ff8f8f" fill-rule="nonzero" node-id="66" stroke="none" target-height="244.953" target-width="805.4149" target-x="123.283" target-y="779.177"></path><path d="M 526.12 850.98 C 516.84 869.55 389.17 847.95 363.69 820.08 C 348.16 803.09 352.79 793.77 359.29 786.51 L 360.00 785.73 L 360.73 784.96 L 362.19 783.46 L 363.27 782.36 L 364.31 781.28 L 364.99 780.56 L 365.63 779.85 C 368.36 776.77 370.17 773.75 369.12 770.18 L 368.99 769.77 C 362.81 752.11 379.45 729.57 406.95 733.57 C 417.00 735.03 421.41 739.57 424.35 746.18 L 424.74 747.10 L 425.12 748.04 L 425.48 749.00 L 425.83 749.99 L 426.34 751.52 L 426.68 752.56 L 427.17 754.17 L 428.69 759.28 L 429.24 761.07 L 429.82 762.90 L 430.23 764.14 L 430.66 765.40 L 431.11 766.67 C 431.34 767.32 431.58 767.96 431.83 768.61 L 432.35 769.92 C 433.42 772.56 434.68 775.28 436.20 778.06 C 448.03 799.67 469.12 814.58 487.94 825.42 L 490.38 826.81 C 490.79 827.04 491.19 827.27 491.59 827.49 L 493.98 828.82 L 496.33 830.10 L 499.77 831.94 L 510.25 837.47 L 512.12 838.47 L 513.90 839.43 L 515.58 840.37 C 523.23 844.67 527.61 848.01 526.12 850.98 Z" fill="#e06f6f" fill-rule="evenodd" node-id="68" stroke="none" target-height="139.98303" target-width="179.44699" target-x="348.15903" target-y="729.57196"></path><path d="M 508.41 849.21 C 517.70 867.79 645.36 846.18 670.84 818.32 C 685.53 802.25 682.19 793.04 676.29 785.95 L 675.60 785.14 C 675.48 785.01 675.37 784.88 675.25 784.75 L 674.53 783.96 L 673.80 783.19 L 671.99 781.32 L 671.27 780.59 L 670.22 779.51 L 669.55 778.80 C 666.36 775.35 664.13 772.03 665.54 768.00 C 671.72 750.34 655.08 727.81 627.58 731.81 C 616.85 733.37 612.54 738.44 609.60 745.80 L 609.23 746.75 L 608.87 747.73 L 608.53 748.73 L 608.19 749.75 L 607.69 751.33 L 607.20 752.95 L 605.84 757.52 L 605.29 759.31 L 604.91 760.52 L 604.51 761.75 L 604.09 763.00 L 603.65 764.27 L 603.19 765.55 C 603.03 765.98 602.87 766.41 602.70 766.85 L 602.18 768.16 C 601.11 770.79 599.86 773.51 598.33 776.30 C 585.99 798.84 563.56 814.10 544.15 825.05 L 541.74 826.39 C 541.34 826.62 540.95 826.83 540.55 827.05 L 538.20 828.33 L 534.76 830.18 L 524.29 835.70 L 522.42 836.70 L 520.64 837.67 L 518.95 838.61 C 511.31 842.91 506.93 846.25 508.41 849.21 Z" fill="#e06f6f" fill-rule="evenodd" node-id="70" stroke="none" target-height="139.98193" target-width="178.59995" target-x="506.92703" target-y="727.807"></path><path d="M 492.58 844.81 C 492.56 842.37 490.57 840.41 488.14 840.42 C 485.70 840.44 483.74 842.43 483.75 844.87 L 484.40 945.84 C 478.88 947.77 474.92 953.01 474.92 959.18 C 474.92 965.42 478.96 970.71 484.57 972.58 L 484.63 983.37 C 484.65 985.81 486.64 987.77 489.08 987.76 C 491.51 987.74 493.48 985.75 493.46 983.32 L 493.39 972.63 C 499.07 970.79 503.17 965.47 503.17 959.18 C 503.17 952.84 498.99 947.47 493.22 945.69 L 492.58 844.81 Z" fill="#e06f6f" fill-rule="nonzero" node-id="72" stroke="none" target-height="147.36603" target-width="28.248047" target-x="474.92398" target-y="840.407"></path><path d="M 540.89 945.84 C 535.38 947.77 531.42 953.01 531.42 959.18 C 531.42 965.42 535.46 970.71 541.06 972.58 L 541.13 983.37 C 541.15 985.81 543.13 987.77 545.57 987.76 C 548.01 987.74 549.97 985.75 549.96 983.32 L 549.89 972.63 C 555.56 970.79 559.67 965.47 559.67 959.18 C 559.67 952.84 555.48 947.47 549.72 945.69 L 549.08 844.81 C 549.06 842.37 547.07 840.41 544.63 840.42 C 542.20 840.44 540.23 842.43 540.25 844.87 L 540.89 945.84 Z" fill="#e06f6f" fill-rule="nonzero" node-id="74" stroke="none" target-height="147.36603" target-width="28.248047" target-x="531.42" target-y="840.407"></path></svg>