<?xml version="1.0" standalone="no"?><!DOCTYPE svg PUBLIC "-//W3C//DTD SVG 1.1//EN" "http://www.w3.org/Graphics/SVG/1.1/DTD/svg11.dtd"><svg height="1024" node-id="1" sillyvg="true" template-height="1024" template-width="1024" version="1.1" viewBox="0 0 1024 1024" width="1024" xmlns="http://www.w3.org/2000/svg" xmlns:xlink="http://www.w3.org/1999/xlink"><defs node-id="23"></defs><path d="M 0.00 0.00 L 1024.00 0.00 L 1024.00 1024.00 L 0.00 1024.00 Z" fill="#e0e6ff" fill-rule="nonzero" node-id="25" stroke="none" target-height="1024" target-width="1024" target-x="0" target-y="0"></path><path d="M 433.24 767.17 L 433.43 578.46 L 593.21 581.93 L 602.65 767.17 C 604.65 797.10 690.54 801.89 715.25 820.44 C 714.37 922.47 711.72 977.24 521.05 975.97 C 345.38 972.82 315.37 938.37 314.48 820.44 C 335.67 806.31 431.16 798.17 433.24 767.17 Z" fill="#ffd1aa" fill-rule="evenodd" node-id="27" stroke="none" target-height="398.77808" target-width="400.773" target-x="314.482" target-y="578.459"></path><path d="M 596.08 637.64 C 596.08 637.64 545.54 713.61 433.43 705.66 C 433.43 695.95 432.77 577.58 432.77 577.58 L 592.55 582.88 L 596.08 637.64 Z" fill="#ffc18d" fill-rule="evenodd" node-id="29" stroke="none" target-height="136.03809" target-width="163.30997" target-x="432.772" target-y="577.576"></path><path d="M 659.64 465.77 C 659.64 465.77 689.57 445.38 709.54 466.22 C 726.81 484.24 710.18 555.60 647.67 554.76 L 659.64 465.77 Z" fill="#ffd1aa" fill-rule="evenodd" node-id="31" stroke="none" target-height="110.21399" target-width="79.143005" target-x="647.667" target-y="445.383"></path><path d="M 370.30 465.77 C 370.30 465.77 340.37 445.38 320.40 466.22 C 303.13 484.24 319.76 555.60 382.27 554.76 L 370.30 465.77 Z" fill="#ffd1aa" fill-rule="evenodd" node-id="33" stroke="none" target-height="110.21399" target-width="79.14398" target-x="303.127" target-y="445.383"></path><path d="M 510.96 208.71 C 393.26 208.71 344.36 308.83 353.79 431.31 C 358.23 489.05 356.73 498.12 370.10 556.76 C 374.72 577.06 404.52 628.31 449.75 643.39 C 455.72 645.09 482.02 661.00 513.99 661.00 C 547.05 661.00 565.19 645.98 576.06 643.39 C 623.45 629.19 653.91 579.31 658.64 558.04 C 671.42 500.59 671.42 489.49 676.05 431.31 C 685.74 309.49 636.57 208.71 518.87 208.71 L 510.96 208.71 Z" fill="#ffe1c7" fill-rule="evenodd" node-id="35" stroke="none" target-height="452.289" target-width="341.38" target-x="344.357" target-y="208.713"></path><path d="M 397.97 413.97 C 395.87 413.97 393.82 412.86 392.73 410.89 C 391.12 407.99 392.16 404.35 395.05 402.74 C 427.20 384.92 476.24 397.15 478.30 397.68 C 481.52 398.49 483.45 401.75 482.63 404.96 C 481.81 408.17 478.60 410.11 475.33 409.29 C 474.87 409.17 428.82 397.71 400.89 413.22 C 399.96 413.73 398.97 413.97 397.97 413.97" fill="#654840" fill-rule="evenodd" node-id="37" stroke="none" target-height="29.04895" target-width="92.33197" target-x="391.11804" target-y="384.924"></path><path d="M 622.84 413.97 C 621.84 413.97 620.85 413.73 619.92 413.22 C 592.07 397.76 548.65 409.15 548.20 409.26 C 545.04 410.13 541.70 408.23 540.85 405.05 C 539.99 401.85 541.87 398.56 545.08 397.70 C 547.04 397.17 593.57 384.90 625.76 402.74 C 628.65 404.35 629.69 407.99 628.08 410.89 C 626.99 412.86 624.94 413.97 622.84 413.97" fill="#654840" fill-rule="evenodd" node-id="39" stroke="none" target-height="29.072937" target-width="89.70404" target-x="539.988" target-y="384.90002"></path><path d="M 647.15 314.66 C 655.55 349.83 653.68 388.77 653.68 388.77 L 664.83 405.19 L 676.16 461.31 C 682.13 436.09 687.06 384.75 687.06 378.02 C 687.06 270.81 631.19 192.75 521.62 192.75 C 394.70 192.75 341.01 266.65 341.01 377.87 C 341.01 422.41 354.95 462.57 354.95 462.57 L 361.60 405.19 C 361.60 405.19 371.11 390.61 371.76 388.37 C 374.18 379.95 372.77 347.13 380.94 314.51 C 380.94 314.51 641.35 314.66 647.15 314.66" fill="#8e685e" fill-rule="evenodd" node-id="41" stroke="none" target-height="269.818" target-width="346.042" target-x="341.015" target-y="192.74799"></path><path d="M 641.58 325.29 C 641.58 325.29 674.17 366.51 684.71 402.19 C 690.47 355.86 691.65 319.32 688.55 293.80 C 686.63 278.04 683.75 256.27 652.84 218.76 C 642.21 205.85 641.34 227.10 641.34 227.10 C 641.34 227.10 639.66 211.34 614.74 194.67 C 591.12 178.87 600.36 199.30 600.36 199.30 C 600.36 199.30 588.86 188.72 573.52 173.36 C 558.18 158.01 536.60 149.47 526.55 148.35 C 517.88 147.38 503.32 162.83 477.67 171.50 C 439.32 184.47 419.63 211.19 417.82 212.24 C 419.14 204.38 421.12 189.32 400.98 207.64 C 383.79 223.28 366.67 248.76 365.76 249.62 C 365.93 242.33 365.01 229.91 354.97 246.54 C 341.55 268.78 336.76 292.87 336.76 292.87 C 331.07 313.54 344.42 409.60 344.42 409.60 C 355.93 363.28 386.12 325.76 386.12 325.76 C 386.12 325.76 445.80 322.98 519.85 332.71 C 574.48 322.98 641.58 325.29 641.58 325.29" fill="#654840" fill-rule="evenodd" node-id="43" stroke="none" target-height="262.22" target-width="360.57898" target-x="331.075" target-y="147.38"></path><path d="M 535.62 429.25 C 535.62 429.25 535.63 429.26 534.07 434.32 L 535.63 429.26 C 538.42 430.12 539.99 433.08 539.13 435.87 C 538.28 438.65 535.35 440.22 532.57 439.40 C 532.57 439.40 532.55 439.39 532.54 439.39 C 532.48 439.38 532.36 439.35 532.18 439.32 C 531.83 439.25 531.32 439.19 530.74 439.20 C 529.54 439.22 528.41 439.51 527.51 440.30 C 526.65 441.04 525.26 442.87 524.82 447.49 C 524.36 452.18 524.93 459.34 527.72 470.06 C 527.73 470.09 527.73 470.11 527.74 470.14 C 529.95 479.19 531.77 487.24 532.74 494.03 C 533.70 500.69 533.95 506.86 532.46 511.83 C 531.68 514.41 530.39 516.82 528.37 518.76 C 526.33 520.72 523.82 521.95 521.03 522.58 C 515.69 523.79 508.98 522.90 501.10 520.67 C 498.28 519.88 496.65 516.95 497.44 514.14 C 498.24 511.32 501.16 509.68 503.98 510.48 C 511.44 512.58 516.02 512.86 518.69 512.25 C 519.91 511.98 520.59 511.55 521.03 511.13 C 521.48 510.69 521.95 510.00 522.31 508.78 C 523.10 506.14 523.17 501.90 522.26 495.53 C 521.37 489.31 519.66 481.72 517.46 472.69 C 514.51 461.36 513.65 452.86 514.27 446.47 C 514.90 440.00 517.10 435.32 520.55 432.31 C 523.95 429.34 527.84 428.65 530.59 428.61 C 531.98 428.59 533.17 428.73 534.03 428.88 C 534.46 428.96 534.82 429.04 535.09 429.11 C 535.22 429.14 535.34 429.17 535.43 429.20 C 535.47 429.21 535.51 429.22 535.54 429.23 L 535.59 429.24 L 535.61 429.25 L 535.62 429.25 Z" fill="#dd936f" fill-rule="evenodd" node-id="45" stroke="none" target-height="95.20395" target-width="43.34604" target-x="496.64597" target-y="428.58804"></path><path d="M 438.73 487.28 C 448.97 487.28 457.27 475.23 457.27 457.27 C 457.27 439.31 448.97 427.25 438.73 427.25 C 428.49 427.25 420.19 439.31 420.19 457.27 C 420.19 475.23 428.49 487.28 438.73 487.28 Z" fill="#654840" fill-rule="evenodd" node-id="47" stroke="none" target-height="60.028015" target-width="37.07602" target-x="420.193" target-y="427.25497"></path><path d="M 583.50 487.28 C 593.73 487.28 602.04 475.23 602.04 457.27 C 602.04 439.31 593.73 427.25 583.50 427.25 C 573.27 427.25 564.97 439.31 564.97 457.27 C 564.97 475.23 573.27 487.28 583.50 487.28 Z" fill="#654840" fill-rule="evenodd" node-id="49" stroke="none" target-height="60.028015" target-width="37.07599" target-x="564.966" target-y="427.25497"></path><path d="M 445.50 524.25 C 445.50 533.38 441.87 542.14 435.42 548.59 C 428.96 555.05 420.20 558.68 411.07 558.68 C 401.94 558.68 393.18 555.05 386.73 548.59 C 380.27 542.14 376.64 533.38 376.64 524.25 C 376.64 515.12 380.27 506.36 386.73 499.91 C 393.18 493.45 401.94 489.82 411.07 489.82 C 420.20 489.82 428.96 493.45 435.42 499.91 C 441.87 506.36 445.50 515.12 445.50 524.25 Z" fill="#ffd2b9" fill-rule="nonzero" node-id="51" stroke="none" target-height="68.855194" target-width="68.855255" target-x="376.64435" target-y="489.82144"></path><path d="M 653.83 524.25 C 653.83 533.38 650.20 542.14 643.75 548.59 C 637.29 555.05 628.53 558.68 619.40 558.68 C 610.27 558.68 601.52 555.05 595.06 548.59 C 588.60 542.14 584.98 533.38 584.98 524.25 C 584.98 515.12 588.60 506.36 595.06 499.91 C 601.52 493.45 610.27 489.82 619.40 489.82 C 628.53 489.82 637.29 493.45 643.75 499.91 C 650.20 506.36 653.83 515.12 653.83 524.25 Z" fill="#ffd2b9" fill-rule="nonzero" node-id="53" stroke="none" target-height="68.855194" target-width="68.855225" target-x="584.9754" target-y="489.82144"></path><path d="M 475.89 564.53 C 472.48 563.51 470.61 560.14 471.71 556.99 C 472.82 553.86 476.70 554.00 480.19 555.03 C 480.50 555.13 513.94 564.73 557.21 554.91 C 560.75 554.11 563.93 554.20 564.78 557.40 C 565.63 560.61 563.50 563.86 560.02 564.65 C 544.12 568.25 529.54 569.46 517.13 569.46 C 492.82 569.46 476.88 564.83 475.89 564.53 Z" fill="#7e2222" fill-rule="evenodd" node-id="55" stroke="none" target-height="15.603027" target-width="95.02902" target-x="470.606" target-y="553.86"></path><g node-id="68"><path d="M 517.41 595.01 C 506.09 595.01 498.68 591.47 498.21 591.24 C 495.99 590.15 495.08 587.45 496.17 585.22 C 497.26 582.99 499.99 582.12 502.17 583.16 C 502.74 583.45 516.42 589.84 535.00 582.63 C 537.35 581.75 539.93 582.88 540.82 585.20 C 541.72 587.51 540.58 590.11 538.25 591.01 C 530.51 594.02 523.40 595.01 517.41 595.01" fill="#7e2222" fill-opacity="0.2" fill-rule="evenodd" group-id="1" node-id="59" stroke="none" target-height="13.266052" target-width="46.634033" target-x="495.081" target-y="581.746"></path></g><path d="M 354.87 418.75 C 354.87 409.80 362.13 402.54 371.09 402.54 L 476.36 402.54 C 485.32 402.54 492.58 409.80 492.58 418.75 L 492.58 446.10 C 492.98 446.03 493.39 445.96 493.80 445.89 C 499.15 445.00 506.17 444.03 511.61 444.03 C 517.10 444.03 523.47 445.01 528.21 445.92 C 528.70 446.01 529.19 446.11 529.66 446.20 L 529.66 418.75 C 529.66 409.80 536.92 402.54 545.87 402.54 L 651.15 402.54 C 660.11 402.54 667.37 409.80 667.37 418.75 L 667.37 471.39 C 667.37 509.42 636.54 540.25 598.51 540.25 C 560.48 540.25 529.66 509.42 529.66 471.39 L 529.66 460.63 C 528.49 460.38 527.09 460.08 525.56 459.79 C 521.03 458.93 515.73 458.15 511.61 458.15 C 507.43 458.15 501.40 458.94 496.11 459.82 C 494.85 460.03 493.66 460.24 492.58 460.44 L 492.58 471.39 C 492.58 509.42 461.75 540.25 423.73 540.25 C 385.70 540.25 354.87 509.42 354.87 471.39 L 354.87 418.75 Z M 371.09 416.66 C 369.93 416.66 368.99 417.60 368.99 418.75 L 368.99 471.39 C 368.99 501.62 393.50 526.12 423.73 526.12 C 453.95 526.12 478.46 501.62 478.46 471.39 L 478.46 418.75 C 478.46 417.60 477.52 416.66 476.36 416.66 L 371.09 416.66 Z M 543.78 418.75 C 543.78 417.60 544.72 416.66 545.87 416.66 L 651.15 416.66 C 652.30 416.66 653.24 417.60 653.24 418.75 L 653.24 471.39 C 653.24 501.62 628.74 526.12 598.51 526.12 C 568.28 526.12 543.78 501.62 543.78 471.39 L 543.78 418.75 Z" fill="#0e112e" fill-rule="evenodd" node-id="62" stroke="none" target-height="137.70999" target-width="312.49603" target-x="354.87" target-y="402.538"></path><path d="M 627.91 779.18 C 613.07 765.93 613.91 724.47 613.91 724.47 L 421.08 723.86 C 421.08 723.86 421.61 773.02 406.77 786.27 C 393.94 797.72 371.02 803.24 346.32 807.73 L 272.77 815.67 C 267.35 816.70 262.09 817.65 256.99 818.57 L 256.99 818.57 C 255.86 818.78 254.73 818.98 253.61 819.18 C 189.68 830.73 141.37 839.45 120.04 943.18 L 113.90 1024.00 L 939.11 1024.00 C 928.71 979.71 907.13 891.82 896.00 875.50 C 881.00 853.50 861.50 829.00 792.45 829.00 C 753.95 829.00 653.01 801.56 627.91 779.18 Z" fill="#bb98ff" fill-rule="nonzero" node-id="64" stroke="none" target-height="300.138" target-width="825.214" target-x="113.9" target-y="723.862"></path><path d="M 442.24 818.71 C 442.24 818.71 529.26 801.79 583.53 797.62" fill="none" node-id="66" stroke="#7a57be" stroke-linecap="round" stroke-width="8.82759" target-height="21.09198" target-width="141.29202" target-x="442.236" target-y="797.62"></path></svg>