<svg xmlns="http://www.w3.org/2000/svg" fill="none" viewBox="0 0 1024 1024" height="1024" width="1024">
<rect fill="#FFE1BE" height="1024" width="1024"></rect>
<path fill="#232E36" d="M462.035 935.857C553.376 941.017 628.521 945.361 659.468 926.802C668.232 921.531 846.244 934.57 849.411 933.148C859.027 928.837 879.209 943.984 878.306 870.843C877.403 797.702 875.072 796.731 803.359 712.822C778.503 683.739 821.805 633.996 777.173 583.697C732.54 533.399 733.83 548.481 737.442 448.251C741.054 348.021 688.585 327.695 667.913 292.037C595.675 167.427 495.445 225.217 495.445 225.217C495.445 225.217 343.746 192.71 293.179 336.283C269.239 381.466 239.904 364.275 239.001 500.624C246.225 571.056 177.599 546.675 192.046 646.003C201.632 711.906 144.189 740.815 145.995 827.5C153.219 935.857 248.439 946.467 288.346 958.406C385.867 1006.26 410.344 932.939 462.035 935.857Z" clip-rule="evenodd" fill-rule="evenodd"></path>
<path fill="#FBBFB1" d="M404.851 786.527L390.756 602.659H596.884V786.527C598.939 817.124 612.157 858.007 702.758 864.328C695.534 922.118 745.198 1009.51 501.395 1009C257.592 1008.48 291.905 919.409 289.196 870.649C355.713 873.357 402.724 818.215 404.851 786.527Z" clip-rule="evenodd" fill-rule="evenodd"></path>
<path fill="#E99885" d="M596.882 657.728C596.882 657.728 516.045 741.584 401.367 733.457C401.367 723.524 390.754 602.659 390.754 602.659H596.882V657.728Z" clip-rule="evenodd" fill-rule="evenodd"></path>
<path fill="#FBBFB1" d="M346.701 480.472C346.701 480.472 317.682 452.181 297.256 473.485C279.592 491.897 296.605 582.901 360.547 582.043L346.701 480.472Z" clip-rule="evenodd" fill-rule="evenodd"></path>
<path fill="#FBBFB1" d="M645.36 480.472C645.36 480.472 674.379 452.181 694.805 473.485C712.47 491.897 695.456 582.901 631.514 582.043L645.36 480.472Z" clip-rule="evenodd" fill-rule="evenodd"></path>
<path fill="#FFD0C5" d="M491.672 224.704C371.28 224.704 306.216 335.151 327.291 457.661C337.648 517.874 340.868 520.299 354.54 580.233C360.748 607.486 412.598 697.862 500.918 696.056C579.648 695.153 632.614 609.663 638.822 581.791C651.897 523.064 656.229 518.121 664.157 457.661C680.32 334.398 620.157 224.704 499.764 224.704H491.672Z" clip-rule="evenodd" fill-rule="evenodd"></path>
<path fill="#654840" d="M369.935 415.646C369.989 412.654 372.458 410.273 375.45 410.327L375.351 415.744C375.45 410.327 375.451 410.327 375.452 410.327L375.496 410.328L375.613 410.33C375.714 410.333 375.862 410.336 376.055 410.341C376.44 410.351 377.003 410.367 377.727 410.391C379.175 410.44 381.269 410.522 383.873 410.658C389.08 410.93 396.343 411.416 404.582 412.274C420.939 413.978 441.612 417.193 457.651 423.325C460.446 424.394 461.845 427.526 460.777 430.321C459.708 433.115 456.576 434.515 453.781 433.446C439.119 427.84 419.61 424.734 403.46 423.052C395.446 422.217 388.374 421.743 383.309 421.479C380.778 421.347 378.751 421.267 377.364 421.221C376.67 421.197 376.136 421.182 375.778 421.173C375.6 421.169 375.465 421.165 375.377 421.164L375.279 421.161L375.253 421.161C372.262 421.106 369.88 418.637 369.935 415.646Z" clip-rule="evenodd" fill-rule="evenodd"></path>
<path fill="#654840" d="M618.249 415.646C618.195 412.654 615.725 410.273 612.734 410.327L612.832 415.744C612.734 410.327 612.733 410.327 612.732 410.327L612.688 410.328L612.571 410.33C612.469 410.333 612.321 410.336 612.129 410.341C611.744 410.351 611.181 410.367 610.456 410.391C609.008 410.44 606.915 410.522 604.31 410.658C599.104 410.93 591.841 411.416 583.601 412.274C567.245 413.978 546.572 417.193 530.533 423.325C527.738 424.394 526.338 427.526 527.407 430.321C528.476 433.115 531.608 434.515 534.402 433.446C549.065 427.84 568.574 424.734 584.724 423.052C592.738 422.217 599.81 421.743 604.875 421.479C607.406 421.347 609.432 421.267 610.82 421.221C611.514 421.197 612.048 421.182 612.405 421.173C612.584 421.169 612.718 421.165 612.807 421.164L612.904 421.161L612.931 421.161C615.922 421.106 618.303 418.637 618.249 415.646Z" clip-rule="evenodd" fill-rule="evenodd"></path>
<path fill="#232E36" d="M375.574 358.188L357.226 379.921L365.251 381.067C365.251 381.067 334.981 403.452 340.136 478.952C341.174 494.189 331.055 509.783 323.029 498.35C249.564 307.015 359.236 189.977 500.095 190.001C665.176 190.025 699.629 364.309 687.78 521.392C574.006 554.802 586.382 405.401 577.618 353.439C564.976 278.492 474.679 325.447 474.679 325.447L432.347 317.065L433.495 329.657C433.495 329.657 409.399 324.155 393.922 328.446C367.874 344.365 362.967 359.333 362.967 359.333C365.789 357.761 375.574 358.188 375.574 358.188Z" clip-rule="evenodd" fill-rule="evenodd"></path>
<path fill="#DD936F" d="M516.898 450.294C516.902 450.295 516.906 450.297 515.342 455.381L516.906 450.297C519.766 451.177 521.371 454.208 520.491 457.068C519.618 459.907 516.624 461.509 513.783 460.672C513.776 460.67 513.765 460.668 513.749 460.664C513.687 460.648 513.561 460.619 513.385 460.588C513.023 460.524 512.5 460.461 511.904 460.469C510.681 460.486 509.522 460.788 508.602 461.591C507.728 462.352 506.307 464.227 505.849 468.95C505.383 473.745 505.967 481.071 508.818 492.037C508.821 492.05 508.825 492.064 508.828 492.078C508.831 492.09 508.835 492.103 508.838 492.116C511.095 501.373 512.962 509.607 513.956 516.559C514.93 523.372 515.187 529.683 513.665 534.759C512.872 537.404 511.552 539.866 509.481 541.857C507.397 543.858 504.832 545.113 501.976 545.76C496.509 546.999 489.651 546.083 481.588 543.807C478.708 542.994 477.033 540.001 477.846 537.121C478.658 534.242 481.652 532.566 484.531 533.379C492.164 535.534 496.848 535.812 499.581 535.193C500.825 534.911 501.525 534.473 501.974 534.043C502.434 533.601 502.913 532.891 503.286 531.646C504.096 528.944 504.161 524.609 503.229 518.093C502.319 511.725 500.573 503.96 498.32 494.723C495.31 483.134 494.429 474.445 495.064 467.904C495.706 461.283 497.953 456.499 501.481 453.423C504.962 450.388 508.94 449.674 511.752 449.634C513.173 449.615 514.392 449.763 515.269 449.918C515.712 449.996 516.079 450.078 516.355 450.146C516.493 450.18 516.609 450.211 516.701 450.237C516.748 450.25 516.788 450.261 516.822 450.272L516.869 450.285L516.889 450.291L516.898 450.294Z" clip-rule="evenodd" fill-rule="evenodd"></path>
<path fill="#654840" d="M417.791 509.654C428.266 509.654 436.753 497.324 436.753 478.953C436.753 460.581 428.266 448.251 417.791 448.251C407.315 448.251 398.828 460.581 398.828 478.953C398.828 497.324 407.315 509.654 417.791 509.654Z" clip-rule="evenodd" fill-rule="evenodd"></path>
<path fill="#654840" d="M565.872 509.654C576.343 509.654 584.841 497.324 584.841 478.953C584.841 460.581 576.343 448.251 565.872 448.251C555.413 448.251 546.916 460.581 546.916 478.953C546.916 497.324 555.413 509.654 565.872 509.654Z" clip-rule="evenodd" fill-rule="evenodd"></path>
<g opacity="0.604969" style="mix-blend-mode:multiply">
<circle fill="#FFD2B9" r="35.2159" cy="547.466" cx="389.499"></circle>
</g>
<g opacity="0.604969" style="mix-blend-mode:multiply">
<circle fill="#FFD2B9" r="35.2159" cy="547.466" cx="602.599"></circle>
</g>
<ellipse fill="white" ry="18.9624" rx="9.02973" cy="577.376" cx="662.497"></ellipse>
<ellipse fill="white" ry="18.9624" rx="9.02973" cy="577.376" cx="328.397"></ellipse>
<path fill="#C14E45" d="M470.507 593.429C466.996 592.646 464.964 588.962 467.015 586.087C469.067 583.212 469.66 582.307 473.431 582.995L473.464 583.005C473.499 583.014 473.557 583.03 473.639 583.051C473.803 583.094 474.06 583.16 474.404 583.244C475.093 583.411 476.129 583.648 477.464 583.915C480.137 584.449 483.996 585.095 488.659 585.526C498.025 586.393 510.423 586.371 522.924 582.983C525.812 582.2 528.788 583.907 529.57 586.795C530.353 589.683 528.646 592.659 525.758 593.441C511.605 597.277 497.817 597.255 487.661 596.316C482.562 595.844 478.325 595.136 475.343 594.541C473.851 594.243 472.669 593.973 471.847 593.773C471.436 593.673 471.115 593.591 470.889 593.532C470.776 593.502 470.687 593.478 470.622 593.461L470.544 593.439L470.519 593.433L470.507 593.429Z"></path>
<g style="mix-blend-mode:multiply">
<path fill="#F3DCDA" d="M512.505 606.037C513.632 608.809 512.298 611.97 509.526 613.097C503.935 615.37 498.543 615.335 494.681 614.799C492.733 614.528 491.11 614.122 489.953 613.776C489.372 613.602 488.902 613.441 488.56 613.316C488.389 613.254 488.249 613.201 488.142 613.159C488.089 613.138 488.044 613.12 488.008 613.105L487.96 613.085L487.941 613.077L487.933 613.074L487.929 613.072C487.927 613.071 487.925 613.071 490.029 608.078L487.925 613.071C485.168 611.909 483.874 608.732 485.036 605.974C486.193 603.227 489.351 601.933 492.102 603.072C492.104 603.073 492.107 603.074 492.112 603.076C492.135 603.085 492.188 603.106 492.269 603.135C492.43 603.194 492.699 603.287 493.061 603.395C493.789 603.613 494.865 603.885 496.17 604.066C498.815 604.433 502.152 604.398 505.446 603.059C508.218 601.932 511.378 603.265 512.505 606.037ZM492.126 603.082C492.126 603.083 492.126 603.082 492.126 603.082ZM492.129 603.083C492.129 603.083 492.129 603.083 492.129 603.083Z" clip-rule="evenodd" fill-rule="evenodd"></path>
</g>
<path fill="#5D887E" d="M607.793 764.518C607.793 764.518 606.876 810.035 623.164 824.578C650.715 849.153 724.619 857.854 754.66 860.761C755.106 860.981 755.548 861.205 755.984 861.434L785.669 864.637C791.619 865.767 797.391 866.812 802.992 867.826C875.013 880.863 918.081 908.124 941.904 1024C740.635 1024 346.042 1024 75.918 1024C75.918 911.89 143.971 880.863 215.992 867.826C221.592 866.812 227.365 865.767 233.314 864.637L314.052 855.926C341.171 850.99 366.328 844.929 380.408 832.365C396.696 817.822 396.117 763.857 396.117 763.857L607.793 764.518Z"></path>
<path fill="#324E47" d="M579.274 844.453C579.479 847.121 577.483 849.45 574.814 849.655C545.253 851.926 506.655 857.684 475.347 862.897C459.715 865.499 445.939 867.96 436.072 869.769C431.139 870.674 427.184 871.416 424.464 871.931C423.104 872.189 422.053 872.39 421.343 872.526L420.267 872.734C420.267 872.734 420.266 872.734 419.342 867.978C418.417 863.222 418.417 863.221 418.418 863.221L418.698 863.167C418.882 863.131 419.156 863.079 419.515 863.01C420.233 862.872 421.292 862.669 422.661 862.41C425.397 861.892 429.371 861.146 434.324 860.238C444.23 858.421 458.06 855.951 473.756 853.338C505.105 848.118 544.058 842.299 574.072 839.993C576.74 839.788 579.069 841.785 579.274 844.453ZM414.585 868.903C414.075 866.276 415.791 863.732 418.418 863.221L419.342 867.978L420.267 872.734C417.64 873.244 415.096 871.529 414.585 868.903Z" clip-rule="evenodd" fill-rule="evenodd"></path>
</svg>
