<?xml version="1.0" standalone="no"?><!DOCTYPE svg PUBLIC "-//W3C//DTD SVG 1.1//EN" "http://www.w3.org/Graphics/SVG/1.1/DTD/svg11.dtd"><svg height="1025" node-id="1" sillyvg="true" template-height="1025" template-width="1024" version="1.1" viewBox="0 0 1024 1025" width="1024" xmlns="http://www.w3.org/2000/svg" xmlns:xlink="http://www.w3.org/1999/xlink"><defs node-id="22"></defs><path d="M 0.00 0.00 L 1024.00 0.00 L 1024.00 1024.00 L 0.00 1024.00 Z" fill="#ffe0e0" fill-rule="nonzero" node-id="24" stroke="none" target-height="1024" target-width="1024" target-x="0" target-y="0"></path><path d="M 426.05 758.32 L 412.26 578.45 L 613.92 578.45 L 613.92 758.32 C 615.93 788.25 628.86 806.90 717.50 813.08 C 710.43 869.62 759.02 976.46 520.50 975.95 C 281.98 975.45 315.55 859.74 312.90 812.03 C 377.97 814.68 423.96 789.32 426.05 758.32 Z" fill="#f6b88a" fill-rule="evenodd" node-id="26" stroke="none" target-height="398.00598" target-width="477.04007" target-x="281.978" target-y="578.45"></path><path d="M 613.92 634.09 C 613.92 634.09 534.83 716.12 422.64 708.17 C 422.64 698.45 412.25 580.22 412.25 580.22 L 613.92 580.22 L 613.92 634.09 Z" fill="#ea9e66" fill-rule="evenodd" node-id="28" stroke="none" target-height="135.90399" target-width="201.66202" target-x="412.254" target-y="580.217"></path><path d="M 369.15 458.92 C 369.15 458.92 340.76 431.24 320.78 452.08 C 311.36 461.90 312.02 489.28 324.70 515.24 C 330.54 525.20 338.63 535.98 349.29 543.75 C 358.46 550.45 369.22 547.21 382.39 547.03 L 369.15 458.92 Z" fill="#f6b88a" fill-rule="evenodd" node-id="30" stroke="none" target-height="119.20798" target-width="71.025024" target-x="311.363" target-y="431.243"></path><path d="M 661.53 458.92 C 661.53 458.92 689.92 431.24 709.90 452.08 C 719.32 461.90 718.66 489.28 705.98 515.24 C 700.14 525.20 692.05 535.98 681.39 543.75 C 672.22 550.45 661.46 547.21 648.29 547.03 L 661.53 458.92 Z" fill="#f6b88a" fill-rule="evenodd" node-id="32" stroke="none" target-height="119.20798" target-width="71.02399" target-x="648.294" target-y="431.243"></path><path d="M 510.99 208.71 C 393.20 208.71 344.26 308.82 353.70 431.31 C 358.15 489.05 355.24 499.40 368.62 558.04 C 373.24 578.34 412.31 641.38 465.96 666.08 C 482.75 673.81 499.85 673.28 518.90 673.28 C 535.34 673.28 552.10 674.55 566.55 667.88 C 617.73 644.21 654.04 579.30 658.78 558.04 C 671.57 500.59 671.57 489.48 676.20 431.31 C 685.89 309.49 636.69 208.71 518.90 208.71 L 510.99 208.71 Z" fill="#ffcca6" fill-rule="evenodd" node-id="34" stroke="none" target-height="465.842" target-width="341.631" target-x="344.262" target-y="208.712"></path><path d="M 631.62 407.19 C 631.62 407.19 578.93 396.05 552.14 404.33 C 539.19 410.81 551.03 423.90 570.22 417.74 C 589.40 411.57 631.62 407.19 631.62 407.19 Z" fill="#654840" fill-rule="evenodd" node-id="36" stroke="#654840" stroke-linecap="round" stroke-width="7.06207" target-height="27.851044" target-width="92.429016" target-x="539.191" target-y="396.05"></path><path d="M 393.65 407.19 C 393.65 407.19 446.34 396.05 473.13 404.33 C 486.08 410.81 474.23 423.90 455.05 417.74 C 435.87 411.57 393.65 407.19 393.65 407.19 Z" fill="#654840" fill-rule="evenodd" node-id="38" stroke="#654840" stroke-linecap="round" stroke-width="7.06207" target-height="27.851044" target-width="92.42996" target-x="393.64703" target-y="396.05"></path><path d="M 647.03 314.66 C 655.43 349.83 653.56 388.77 653.56 388.77 L 664.71 405.19 L 676.04 461.31 C 682.01 436.09 686.94 384.75 686.94 378.02 C 686.94 270.81 631.07 192.75 521.50 192.75 C 394.58 192.75 340.90 266.65 340.90 377.87 C 340.90 422.41 354.83 462.56 354.83 462.56 L 361.48 405.19 C 361.48 405.19 370.99 390.61 371.64 388.37 C 374.06 379.95 372.65 347.13 380.82 314.51 C 380.82 314.51 641.23 314.66 647.03 314.66" fill="#85521d" fill-rule="evenodd" node-id="40" stroke="none" target-height="269.81702" target-width="346.042" target-x="340.896" target-y="192.74799"></path><path d="M 343.64 313.38 C 334.27 361.06 350.21 409.66 394.29 322.72 C 413.99 352.17 505.44 415.74 477.30 328.79 C 524.19 369.93 576.72 383.95 554.67 338.61 C 601.57 387.22 664.41 389.09 636.27 344.22 C 719.75 418.07 685.05 323.65 685.05 323.65 C 685.05 323.65 714.98 341.27 709.43 304.96 C 702.87 261.96 647.53 220.82 647.53 220.82 C 647.53 220.82 672.85 210.54 637.21 191.85 C 601.57 173.15 549.05 180.63 549.05 180.63 C 549.05 180.63 577.19 175.01 556.55 161.94 C 535.92 148.85 469.32 152.58 429.00 198.39 C 429.00 198.39 369.73 196.37 353.02 218.96 C 339.89 236.72 364.28 246.07 364.28 246.07 C 364.28 246.07 336.36 264.28 326.76 285.33 C 317.38 305.89 343.64 313.38 343.64 313.38" fill="#b07436" fill-rule="evenodd" node-id="42" stroke="none" target-height="269.22" target-width="402.365" target-x="317.38" target-y="148.849"></path><path d="M 501.49 529.26 C 498.25 529.26 495.60 526.70 495.49 523.45 C 495.40 520.14 498.00 517.38 501.31 517.28 L 519.46 516.74 L 517.65 445.24 C 517.62 444.30 517.81 443.37 518.23 442.52 L 527.78 423.55 C 529.20 420.55 532.80 419.29 535.77 420.71 C 538.76 422.12 540.04 425.70 538.62 428.69 L 529.68 446.39 L 531.60 522.39 C 531.69 525.69 529.08 528.43 525.77 528.53 L 501.67 529.26 L 501.49 529.26 Z" fill="#dd936f" fill-rule="evenodd" node-id="44" stroke="none" target-height="109.96802" target-width="44.64801" target-x="495.39697" target-y="419.29297"></path><path d="M 455.25 449.06 C 451.81 445.35 446.61 441.90 438.86 442.26 C 430.84 442.62 425.95 446.18 422.97 449.60 C 421.44 451.35 420.40 453.09 419.76 454.37 C 419.44 455.01 419.22 455.52 419.09 455.85 C 419.02 456.02 418.98 456.13 418.95 456.20 C 418.95 456.22 418.94 456.24 418.94 456.25 C 418.05 459.02 415.08 460.55 412.30 459.67 C 409.51 458.79 407.97 455.81 408.85 453.03 L 413.90 454.62 C 408.85 453.03 408.85 453.02 408.85 453.02 L 408.85 453.01 L 408.85 453.00 L 408.86 452.97 C 408.87 452.95 408.88 452.92 408.89 452.89 C 408.91 452.83 408.94 452.76 408.97 452.67 C 409.03 452.48 409.12 452.24 409.24 451.94 C 409.47 451.35 409.82 450.55 410.30 449.60 C 411.25 447.71 412.75 445.20 414.98 442.64 C 419.50 437.46 426.97 432.19 438.37 431.67 C 450.04 431.14 458.08 436.53 463.02 441.86 C 465.47 444.50 467.20 447.16 468.31 449.15 C 468.87 450.15 469.29 451.00 469.57 451.62 C 469.71 451.93 469.82 452.19 469.90 452.38 C 469.94 452.47 469.97 452.55 470.00 452.61 C 470.01 452.64 470.02 452.66 470.03 452.69 L 470.04 452.71 L 470.04 452.73 L 470.05 452.73 C 470.05 452.73 470.05 452.74 465.10 454.62 L 470.05 452.74 C 471.09 455.47 469.72 458.53 466.98 459.57 C 464.26 460.61 461.21 459.25 460.16 456.53 C 460.15 456.52 460.15 456.52 460.15 456.51 L 460.15 456.52 L 460.16 456.53 C 460.15 456.52 460.14 456.49 460.12 456.45 C 460.09 456.37 460.03 456.22 459.94 456.03 C 459.76 455.64 459.47 455.05 459.07 454.32 C 458.25 452.87 457.00 450.95 455.25 449.06 Z M 460.15 456.51 C 460.15 456.51 460.15 456.51 460.15 456.51 L 460.15 456.51 L 460.15 456.51 Z M 460.15 456.51 C 460.15 456.51 460.15 456.51 460.15 456.51 C 460.15 456.51 460.15 456.51 460.15 456.51 L 460.15 456.51 Z" fill="#654840" fill-rule="evenodd" node-id="46" stroke="none" target-height="29.46402" target-width="63.122955" target-x="407.96603" target-y="431.144"></path><path d="M 608.85 449.06 C 605.41 445.35 600.21 441.90 592.46 442.26 C 584.44 442.62 579.55 446.18 576.57 449.60 C 575.04 451.35 574.00 453.09 573.36 454.37 C 573.04 455.01 572.82 455.52 572.69 455.85 C 572.62 456.02 572.58 456.13 572.55 456.20 C 572.55 456.22 572.54 456.24 572.54 456.25 C 571.64 459.02 568.68 460.55 565.90 459.67 C 563.11 458.79 561.57 455.81 562.45 453.03 L 567.50 454.62 C 562.45 453.03 562.45 453.02 562.45 453.02 L 562.45 453.01 L 562.45 453.00 L 562.46 452.97 C 562.47 452.95 562.48 452.92 562.49 452.89 C 562.51 452.83 562.54 452.76 562.57 452.67 C 562.63 452.48 562.72 452.24 562.84 451.94 C 563.07 451.35 563.42 450.55 563.90 449.60 C 564.85 447.71 566.35 445.20 568.58 442.64 C 573.10 437.46 580.57 432.19 591.97 431.67 C 603.64 431.14 611.68 436.53 616.62 441.86 C 619.07 444.50 620.80 447.16 621.91 449.15 C 622.47 450.15 622.89 451.00 623.17 451.62 C 623.32 451.93 623.42 452.19 623.50 452.38 C 623.54 452.47 623.57 452.55 623.60 452.61 C 623.61 452.64 623.62 452.66 623.63 452.69 L 623.64 452.71 L 623.64 452.73 L 623.64 452.73 C 623.65 452.73 623.65 452.74 618.70 454.62 L 623.65 452.74 C 624.69 455.47 623.32 458.53 620.58 459.57 C 617.86 460.61 614.81 459.25 613.76 456.53 C 613.75 456.52 613.75 456.52 613.75 456.51 L 613.75 456.52 L 613.75 456.53 C 613.75 456.52 613.74 456.49 613.72 456.45 C 613.69 456.37 613.63 456.22 613.54 456.03 C 613.36 455.64 613.07 455.05 612.67 454.32 C 611.85 452.87 610.60 450.95 608.85 449.06 Z M 613.75 456.51 C 613.75 456.51 613.75 456.51 613.75 456.51 L 613.75 456.51 L 613.75 456.51 Z M 613.75 456.51 C 613.75 456.51 613.75 456.51 613.75 456.51 C 613.75 456.51 613.75 456.51 613.75 456.51 L 613.75 456.51 Z" fill="#654840" fill-rule="evenodd" node-id="48" stroke="none" target-height="29.46402" target-width="63.12201" target-x="561.566" target-y="431.144"></path><path d="M 470.39 568.50 C 470.39 568.50 492.46 566.73 513.65 566.73 C 534.83 566.73 562.20 569.38 562.20 569.38 C 562.20 569.38 546.31 586.15 516.30 586.15 C 486.28 586.15 470.39 568.50 470.39 568.50 Z" fill="#ffffff" fill-rule="evenodd" node-id="50" stroke="none" target-height="19.42096" target-width="91.80597" target-x="470.393" target-y="566.731"></path><path d="M 470.39 568.50 C 466.45 572.04 466.46 572.04 466.46 572.04 L 466.46 572.05 L 466.47 572.06 L 466.49 572.08 C 466.51 572.10 466.53 572.12 466.56 572.15 C 466.61 572.20 466.67 572.27 466.75 572.36 C 466.91 572.52 467.14 572.76 467.43 573.04 C 468.01 573.61 468.84 574.38 469.93 575.30 C 472.09 577.13 475.28 579.53 479.46 581.92 C 487.84 586.71 500.21 591.45 516.30 591.45 C 532.33 591.45 544.66 586.96 553.03 582.42 C 557.21 580.15 560.39 577.87 562.56 576.13 C 563.65 575.26 564.49 574.52 565.07 573.98 C 565.36 573.71 565.58 573.49 565.75 573.33 C 565.83 573.25 565.89 573.18 565.94 573.13 C 565.97 573.10 565.99 573.08 566.00 573.06 L 566.03 573.04 L 566.04 573.03 L 566.04 573.02 C 566.04 573.02 566.04 573.02 562.20 569.38 L 566.04 573.02 C 567.44 571.55 567.87 569.42 567.16 567.52 C 566.45 565.63 564.72 564.30 562.71 564.11 L 562.20 569.38 C 562.71 564.11 562.71 564.11 562.71 564.11 L 562.38 564.08 C 562.17 564.06 561.87 564.03 561.47 563.99 C 560.67 563.92 559.50 563.81 558.04 563.69 C 555.13 563.44 551.01 563.10 546.24 562.77 C 536.70 562.11 524.42 561.43 513.65 561.43 C 502.92 561.43 492.00 561.88 483.79 562.33 C 479.68 562.55 476.23 562.77 473.81 562.94 C 472.60 563.02 471.64 563.09 470.99 563.14 C 470.66 563.16 470.41 563.18 470.24 563.20 L 469.97 563.22 C 469.97 563.22 469.97 563.22 470.39 568.50 Z M 484.97 572.87 C 492.04 576.86 502.53 580.86 516.30 580.86 C 529.85 580.86 540.23 577.19 547.31 573.47 C 546.72 573.42 546.11 573.38 545.50 573.34 C 536.05 572.68 524.06 572.03 513.65 572.03 C 503.45 572.03 493.01 572.44 484.97 572.87 Z M 470.39 568.50 L 469.97 563.22 C 467.96 563.38 466.22 564.66 465.47 566.54 C 464.73 568.41 465.11 570.54 466.45 572.04 L 470.39 568.50 Z" fill="#c14e45" fill-rule="evenodd" node-id="52" stroke="none" target-height="30.013977" target-width="103.143005" target-x="464.726" target-y="561.434"></path><path d="M 600.16 414.90 C 563.26 414.90 534.83 438.43 534.83 465.83 C 534.83 493.23 563.26 516.76 600.16 516.76 C 637.05 516.76 665.48 493.23 665.48 465.83 C 665.48 438.43 637.05 414.90 600.16 414.90 Z M 527.77 465.83 C 527.77 433.07 561.00 407.83 600.16 407.83 C 639.32 407.83 672.54 433.07 672.54 465.83 C 672.54 498.59 639.32 523.83 600.16 523.83 C 561.00 523.83 527.77 498.59 527.77 465.83 Z" fill="#835c54" fill-rule="evenodd" node-id="54" stroke="none" target-height="115.991974" target-width="144.77301" target-x="527.771" target-y="407.834"></path><path d="M 430.67 414.90 C 393.77 414.90 365.34 438.43 365.34 465.83 C 365.34 493.23 393.77 516.76 430.67 516.76 C 467.56 516.76 495.99 493.23 495.99 465.83 C 495.99 438.43 467.56 414.90 430.67 414.90 Z M 358.28 465.83 C 358.28 433.07 391.51 407.83 430.67 407.83 C 469.83 407.83 503.05 433.07 503.05 465.83 C 503.05 498.59 469.83 523.83 430.67 523.83 C 391.51 523.83 358.28 498.59 358.28 465.83 Z" fill="#835c54" fill-rule="evenodd" node-id="56" stroke="none" target-height="115.991974" target-width="144.77295" target-x="358.281" target-y="407.834"></path><path d="M 500.64 456.20 C 500.64 456.20 500.64 456.20 499.52 452.86 C 498.41 449.50 498.41 449.50 498.41 449.50 L 498.42 449.50 L 498.45 449.49 L 498.55 449.46 C 498.63 449.43 498.75 449.39 498.91 449.34 C 499.23 449.24 499.68 449.10 500.25 448.93 C 501.37 448.58 502.94 448.13 504.71 447.67 C 508.15 446.78 512.72 445.79 516.29 445.79 C 519.92 445.79 524.07 446.80 527.12 447.70 C 528.68 448.17 530.05 448.63 531.02 448.98 C 531.50 449.15 531.89 449.30 532.17 449.40 C 532.30 449.46 532.41 449.50 532.49 449.53 L 532.58 449.56 L 532.60 449.57 L 532.61 449.58 C 532.61 449.58 532.61 449.58 531.30 452.86 C 529.99 456.13 529.99 456.13 529.99 456.13 L 529.98 456.13 L 529.91 456.10 C 529.86 456.08 529.77 456.05 529.65 456.00 C 529.42 455.91 529.07 455.78 528.63 455.63 C 527.76 455.31 526.52 454.89 525.11 454.48 C 522.20 453.61 518.85 452.86 516.29 452.86 C 513.69 452.86 509.88 453.63 506.47 454.51 C 504.82 454.93 503.36 455.36 502.30 455.68 C 501.77 455.84 501.35 455.98 501.07 456.07 C 500.92 456.11 500.81 456.15 500.74 456.17 L 500.66 456.20 L 500.64 456.20 L 500.64 456.20 Z" fill="#835c54" fill-rule="evenodd" node-id="58" stroke="none" target-height="10.411987" target-width="34.207" target-x="498.40598" target-y="445.793"></path><path d="M 612.15 796.22 C 617.26 790.56 622.44 784.81 627.91 779.18 C 653.01 801.56 748.50 821.50 792.50 825.50 C 836.50 829.50 905.59 854.03 923.04 918.48 L 941.70 1024.13 L 98.28 1024.13 L 108.04 943.18 C 118.00 845.50 191.38 830.45 256.99 818.57 C 262.09 817.65 267.35 816.70 272.77 815.67 L 346.32 807.73 C 371.03 803.24 393.94 797.72 406.77 786.27 C 421.96 814.79 458.16 848.25 518.18 849.21 C 563.68 849.95 586.97 824.13 612.15 796.22 Z" fill="#3760e4" fill-rule="nonzero" node-id="60" stroke="none" target-height="244.953" target-width="843.4148" target-x="98.2832" target-y="779.177"></path></svg>