<?xml version="1.0" standalone="no"?><!DOCTYPE svg PUBLIC "-//W3C//DTD SVG 1.1//EN" "http://www.w3.org/Graphics/SVG/1.1/DTD/svg11.dtd"><svg height="1024" node-id="1" sillyvg="true" template-height="1024" template-width="1024" version="1.1" viewBox="0 0 1024 1024" width="1024" xmlns="http://www.w3.org/2000/svg" xmlns:xlink="http://www.w3.org/1999/xlink"><defs node-id="28"></defs><path d="M 0.00 0.00 L 1024.00 0.00 L 1024.00 1024.00 L 0.00 1024.00 Z" fill="#f7ffd2" fill-rule="nonzero" node-id="30" stroke="none" target-height="1024" target-width="1024" target-x="0" target-y="0"></path><path d="M 492.13 785.68 C 581.43 790.72 646.03 763.34 676.28 745.20 C 684.85 740.05 692.13 706.91 695.77 687.25 C 696.32 684.27 700.55 684.23 701.17 687.18 C 704.65 703.64 695.16 734.77 698.25 733.38 C 718.70 724.21 812.58 659.68 765.83 559.62 C 730.36 483.69 725.28 448.27 725.28 448.27 C 696.55 136.16 514.09 168.78 514.09 168.78 C 514.09 168.78 307.98 119.29 284.34 434.77 C 274.20 527.56 225.20 556.24 244.83 658.98 C 251.44 693.66 274.37 723.04 307.04 736.55 C 313.59 739.24 320.96 735.19 322.16 728.22 C 324.87 703.02 316.43 686.14 340.08 741.82 C 340.08 741.82 363.58 758.82 402.60 770.50 C 426.57 777.67 441.60 782.83 492.13 785.68 Z" fill="#b07436" fill-rule="evenodd" node-id="32" stroke="none" target-height="671.4359" target-width="587.379" target-x="225.204" target-y="119.28901"></path><path d="M 419.24 767.17 L 413.48 577.96 L 587.38 579.72 L 588.65 767.17 C 590.65 797.10 676.54 801.89 701.25 820.44 C 700.37 922.47 697.72 977.24 507.05 975.97 C 331.38 972.82 301.37 938.37 300.48 820.44 C 321.67 806.31 417.16 798.17 419.24 767.17 Z" fill="#ffd1aa" fill-rule="evenodd" node-id="34" stroke="none" target-height="399.27905" target-width="400.773" target-x="300.482" target-y="577.958"></path><path d="M 587.38 637.14 C 587.38 637.14 530.00 714.00 417.89 706.04 C 417.89 696.33 412.59 577.07 412.59 577.07 L 590.03 581.49 L 587.38 637.14 Z" fill="#ffc18d" fill-rule="evenodd" node-id="36" stroke="none" target-height="136.92102" target-width="177.43399" target-x="412.59402" target-y="577.074"></path><path d="M 473.05 841.71 C 472.44 843.56 470.44 844.57 468.59 843.96 L 407.89 823.95 C 406.04 823.34 405.03 821.34 405.64 819.49 C 406.25 817.64 408.25 816.63 410.10 817.24 L 470.80 837.25 C 472.65 837.86 473.66 839.86 473.05 841.71 Z" fill="#ffc18d" fill-rule="evenodd" node-id="38" stroke="none" target-height="27.937988" target-width="68.625" target-x="405.032" target-y="816.63"></path><path d="M 545.11 841.71 C 545.72 843.56 547.72 844.57 549.57 843.96 L 610.27 823.95 C 612.12 823.34 613.13 821.34 612.52 819.49 C 611.91 817.64 609.91 816.63 608.06 817.24 L 547.36 837.25 C 545.51 837.86 544.50 839.86 545.11 841.71 Z" fill="#ffc18d" fill-rule="evenodd" node-id="40" stroke="none" target-height="27.937988" target-width="68.625" target-x="544.505" target-y="816.63"></path><path d="M 357.86 459.59 C 357.86 459.59 326.86 441.85 306.89 462.69 C 289.62 480.70 299.76 548.76 362.28 547.92 L 357.86 459.59 Z" fill="#ffd1aa" fill-rule="evenodd" node-id="42" stroke="none" target-height="106.912994" target-width="72.651" target-x="289.625" target-y="441.85"></path><path d="M 644.54 459.59 C 644.54 459.59 675.54 441.85 695.51 462.69 C 712.78 480.70 702.64 548.76 640.13 547.92 L 644.54 459.59 Z" fill="#ffd1aa" fill-rule="evenodd" node-id="44" stroke="none" target-height="106.912994" target-width="72.64996" target-x="640.127" target-y="441.85"></path><path d="M 499.90 208.71 C 386.27 208.71 332.41 288.04 338.35 451.25 C 338.35 451.25 337.18 541.50 384.02 596.52 C 406.14 623.23 456.39 660.53 499.99 660.53 C 543.57 660.53 589.79 636.12 618.46 598.07 C 649.27 557.16 661.93 514.27 661.93 451.31 C 661.93 286.92 623.78 208.71 499.90 208.71 Z" fill="#ffe1c7" fill-rule="evenodd" node-id="46" stroke="none" target-height="451.818" target-width="329.52597" target-x="332.407" target-y="208.713"></path><path d="M 383.97 413.97 C 381.87 413.97 379.82 412.86 378.73 410.89 C 377.12 407.99 378.16 404.35 381.06 402.74 C 413.21 384.92 462.24 397.15 464.30 397.68 C 467.52 398.49 469.45 401.75 468.64 404.96 C 467.81 408.17 464.60 410.11 461.33 409.29 C 460.87 409.17 414.83 397.71 386.89 413.22 C 385.96 413.73 384.97 413.97 383.97 413.97" fill="#654840" fill-rule="evenodd" node-id="48" stroke="none" target-height="29.04895" target-width="92.332" target-x="377.12" target-y="384.924"></path><path d="M 608.84 413.97 C 607.84 413.97 606.85 413.73 605.92 413.22 C 578.07 397.76 534.65 409.15 534.20 409.26 C 531.04 410.13 527.70 408.23 526.85 405.05 C 525.99 401.85 527.87 398.56 531.07 397.70 C 533.04 397.17 579.57 384.90 611.75 402.74 C 614.65 404.35 615.69 407.99 614.08 410.89 C 612.99 412.86 610.94 413.97 608.84 413.97" fill="#654840" fill-rule="evenodd" node-id="50" stroke="none" target-height="29.072937" target-width="89.70398" target-x="525.986" target-y="384.90002"></path><path d="M 381.69 337.44 L 363.76 358.69 L 371.60 359.81 C 371.60 359.81 342.01 381.69 347.05 455.50 C 348.06 470.40 338.17 485.64 330.32 474.47 C 258.50 287.42 365.72 173.00 503.43 173.02 C 664.81 173.04 698.50 343.43 686.91 496.99 C 575.68 529.65 587.78 383.60 579.21 332.80 C 566.86 259.53 478.58 305.44 478.58 305.44 L 437.20 297.24 L 438.32 309.55 C 438.32 309.55 414.76 304.17 399.63 308.37 C 374.17 323.93 369.37 338.56 369.37 338.56 C 372.13 337.02 381.69 337.44 381.69 337.44 Z" fill="#b07436" fill-rule="evenodd" node-id="52" stroke="none" target-height="356.65802" target-width="439.99" target-x="258.505" target-y="172.997"></path><path d="M 505.94 423.72 C 505.94 424.61 505.94 441.38 506.83 466.98 C 507.40 483.75 511.24 499.64 513.89 511.12 C 508.59 513.77 501.53 517.30 490.06 523.48" fill="none" node-id="54" stroke="#dd936f" stroke-linecap="round" stroke-width="10.5931" target-height="99.752014" target-width="23.833984" target-x="490.055" target-y="423.724"></path><path d="M 441.37 449.06 C 437.93 445.35 432.72 441.90 424.97 442.26 C 416.96 442.62 412.06 446.18 409.08 449.61 C 407.56 451.35 406.52 453.09 405.88 454.37 C 405.55 455.01 405.33 455.52 405.20 455.85 C 405.14 456.02 405.10 456.13 405.07 456.20 C 405.06 456.22 405.06 456.24 405.06 456.25 C 404.16 459.02 401.20 460.55 398.42 459.67 C 395.63 458.79 394.08 455.81 394.96 453.03 L 400.02 454.62 C 394.96 453.03 394.96 453.02 394.97 453.02 L 394.97 453.01 L 394.97 453.00 L 394.98 452.97 C 394.99 452.95 395.00 452.92 395.01 452.89 C 395.03 452.83 395.05 452.76 395.09 452.67 C 395.15 452.48 395.24 452.24 395.36 451.94 C 395.59 451.35 395.94 450.55 396.42 449.60 C 397.37 447.71 398.87 445.20 401.10 442.64 C 405.62 437.46 413.08 432.19 424.49 431.67 C 436.16 431.14 444.20 436.53 449.14 441.86 C 451.59 444.50 453.31 447.16 454.43 449.15 C 454.99 450.15 455.41 451.00 455.69 451.62 C 455.83 451.93 455.94 452.19 456.02 452.38 C 456.06 452.47 456.09 452.55 456.12 452.61 C 456.13 452.64 456.14 452.66 456.14 452.69 L 456.16 452.71 L 456.16 452.73 L 456.16 452.73 C 456.16 452.73 456.16 452.74 451.21 454.62 L 456.16 452.74 C 457.21 455.47 455.83 458.53 453.10 459.57 C 450.37 460.61 447.32 459.25 446.27 456.53 C 446.27 456.52 446.27 456.52 446.27 456.52 L 446.27 456.52 L 446.27 456.53 C 446.27 456.52 446.26 456.49 446.24 456.45 C 446.21 456.37 446.15 456.22 446.06 456.03 C 445.88 455.64 445.59 455.05 445.19 454.33 C 444.37 452.87 443.12 450.95 441.37 449.06 Z M 446.27 456.51 C 446.27 456.51 446.27 456.51 446.27 456.52 L 446.27 456.51 L 446.27 456.51 Z M 446.27 456.51 C 446.27 456.51 446.27 456.51 446.27 456.51 C 446.27 456.51 446.27 456.51 446.27 456.51 L 446.27 456.51 Z" fill="#654840" fill-rule="evenodd" node-id="56" stroke="none" target-height="29.464996" target-width="63.122986" target-x="394.083" target-y="431.144"></path><path d="M 594.97 449.06 C 591.53 445.35 586.33 441.90 578.57 442.26 C 570.56 442.62 565.67 446.18 562.68 449.61 C 561.16 451.35 560.12 453.09 559.48 454.37 C 559.15 455.01 558.94 455.52 558.80 455.85 C 558.74 456.02 558.70 456.13 558.67 456.20 C 558.66 456.22 558.66 456.24 558.66 456.25 C 557.76 459.02 554.80 460.55 552.02 459.67 C 549.23 458.79 547.68 455.81 548.57 453.03 L 553.62 454.62 C 548.57 453.03 548.57 453.02 548.57 453.02 L 548.57 453.01 L 548.57 453.00 L 548.58 452.97 C 548.59 452.95 548.60 452.92 548.61 452.89 C 548.63 452.83 548.65 452.76 548.69 452.67 C 548.75 452.48 548.84 452.24 548.96 451.94 C 549.19 451.35 549.54 450.55 550.02 449.60 C 550.97 447.71 552.47 445.20 554.70 442.64 C 559.22 437.46 566.68 432.19 578.09 431.67 C 589.76 431.14 597.80 436.53 602.74 441.86 C 605.19 444.50 606.91 447.16 608.03 449.15 C 608.59 450.15 609.01 451.00 609.29 451.62 C 609.43 451.93 609.54 452.19 609.62 452.38 C 609.66 452.47 609.69 452.55 609.72 452.61 C 609.73 452.64 609.74 452.66 609.75 452.69 L 609.76 452.71 L 609.76 452.73 L 609.76 452.73 C 609.76 452.73 609.77 452.74 604.82 454.62 L 609.77 452.74 C 610.81 455.47 609.43 458.53 606.70 459.57 C 603.98 460.61 600.92 459.25 599.88 456.53 C 599.87 456.52 599.87 456.52 599.87 456.52 L 599.87 456.52 L 599.88 456.53 C 599.87 456.52 599.86 456.49 599.84 456.45 C 599.81 456.37 599.75 456.22 599.66 456.03 C 599.48 455.64 599.19 455.05 598.79 454.33 C 597.97 452.87 596.72 450.95 594.97 449.06 Z M 599.87 456.51 C 599.87 456.51 599.87 456.51 599.87 456.52 L 599.87 456.51 L 599.87 456.51 Z M 599.87 456.51 C 599.87 456.51 599.87 456.51 599.87 456.51 C 599.87 456.51 599.87 456.51 599.87 456.51 L 599.87 456.51 Z" fill="#654840" fill-rule="evenodd" node-id="58" stroke="none" target-height="29.464996" target-width="63.12201" target-x="547.685" target-y="431.144"></path><path d="M 431.50 524.25 C 431.50 533.38 427.87 542.14 421.42 548.59 C 414.96 555.05 406.20 558.68 397.07 558.68 C 387.94 558.68 379.18 555.05 372.73 548.59 C 366.27 542.14 362.64 533.38 362.64 524.25 C 362.64 515.12 366.27 506.36 372.73 499.91 C 379.18 493.45 387.94 489.82 397.07 489.82 C 406.20 489.82 414.96 493.45 421.42 499.91 C 427.87 506.36 431.50 515.12 431.50 524.25 Z" fill="#ffd2b9" fill-rule="nonzero" node-id="60" stroke="none" target-height="68.855194" target-width="68.855194" target-x="362.6444" target-y="489.82144"></path><path d="M 639.83 524.25 C 639.83 533.38 636.20 542.14 629.75 548.59 C 623.29 555.05 614.53 558.68 605.40 558.68 C 596.27 558.68 587.51 555.05 581.06 548.59 C 574.60 542.14 570.97 533.38 570.97 524.25 C 570.97 515.12 574.60 506.36 581.06 499.91 C 587.51 493.45 596.27 489.82 605.40 489.82 C 614.53 489.82 623.29 493.45 629.75 499.91 C 636.20 506.36 639.83 515.12 639.83 524.25 Z" fill="#ffd2b9" fill-rule="nonzero" node-id="62" stroke="none" target-height="68.855194" target-width="68.855225" target-x="570.97437" target-y="489.82144"></path><path d="M 461.89 564.53 C 458.48 563.51 456.61 560.14 457.71 556.99 C 458.82 553.86 462.70 554.00 466.19 555.03 C 466.50 555.13 499.94 564.73 543.21 554.91 C 546.75 554.11 549.93 554.20 550.78 557.39 C 551.63 560.61 549.50 563.86 546.02 564.65 C 530.12 568.25 515.54 569.46 503.13 569.46 C 478.82 569.46 462.88 564.83 461.89 564.53 Z" fill="#bb6855" fill-rule="evenodd" node-id="64" stroke="none" target-height="15.603027" target-width="95.028015" target-x="456.607" target-y="553.86"></path><g node-id="83"><path d="M 503.41 595.01 C 492.08 595.01 484.68 591.47 484.21 591.24 C 481.99 590.15 481.08 587.45 482.17 585.22 C 483.26 582.99 485.99 582.12 488.17 583.16 C 488.74 583.45 502.42 589.84 520.99 582.63 C 523.35 581.75 525.93 582.89 526.81 585.20 C 527.71 587.51 526.57 590.11 524.25 591.01 C 516.51 594.02 509.40 595.01 503.41 595.01" fill="#bb6855" fill-opacity="0.2" fill-rule="evenodd" group-id="1" node-id="68" stroke="none" target-height="13.265991" target-width="46.634003" target-x="481.08" target-y="581.747"></path></g><path d="M 586.28 414.90 C 549.38 414.90 520.95 438.43 520.95 465.83 C 520.95 493.23 549.38 516.76 586.28 516.76 C 623.17 516.76 651.60 493.23 651.60 465.83 C 651.60 438.43 623.17 414.90 586.28 414.90 Z M 513.89 465.83 C 513.89 433.07 547.12 407.83 586.28 407.83 C 625.44 407.83 658.66 433.07 658.66 465.83 C 658.66 498.59 625.44 523.83 586.28 523.83 C 547.12 523.83 513.89 498.59 513.89 465.83 Z" fill="#835c54" fill-rule="evenodd" node-id="71" stroke="none" target-height="115.991" target-width="144.77203" target-x="513.891" target-y="407.834"></path><path d="M 416.79 414.90 C 379.89 414.90 351.46 438.43 351.46 465.83 C 351.46 493.23 379.89 516.76 416.79 516.76 C 453.68 516.76 482.11 493.23 482.11 465.83 C 482.11 438.43 453.68 414.90 416.79 414.90 Z M 344.40 465.83 C 344.40 433.07 377.62 407.83 416.79 407.83 C 455.95 407.83 489.17 433.07 489.17 465.83 C 489.17 498.59 455.95 523.83 416.79 523.83 C 377.62 523.83 344.40 498.59 344.40 465.83 Z" fill="#835c54" fill-rule="evenodd" node-id="73" stroke="none" target-height="115.991" target-width="144.77301" target-x="344.4" target-y="407.834"></path><path d="M 486.76 456.20 C 486.76 456.20 486.76 456.20 485.64 452.86 C 484.53 449.50 484.53 449.50 484.53 449.50 L 484.54 449.50 L 484.57 449.49 L 484.67 449.46 C 484.75 449.43 484.88 449.39 485.03 449.34 C 485.35 449.24 485.80 449.10 486.37 448.93 C 487.49 448.58 489.06 448.13 490.83 447.67 C 494.27 446.78 498.84 445.79 502.42 445.79 C 506.04 445.79 510.19 446.80 513.24 447.70 C 514.81 448.17 516.17 448.63 517.14 448.98 C 517.62 449.15 518.01 449.30 518.29 449.40 C 518.42 449.46 518.53 449.50 518.61 449.53 L 518.70 449.56 L 518.72 449.57 L 518.73 449.58 C 518.73 449.58 518.73 449.58 517.42 452.86 C 516.11 456.13 516.11 456.13 516.11 456.13 L 516.10 456.13 L 516.04 456.10 C 515.98 456.08 515.89 456.05 515.77 456.00 C 515.54 455.91 515.19 455.78 514.76 455.63 C 513.88 455.31 512.65 454.89 511.23 454.48 C 508.32 453.61 504.97 452.86 502.42 452.86 C 499.81 452.86 496.00 453.63 492.60 454.51 C 490.94 454.93 489.48 455.36 488.42 455.68 C 487.89 455.84 487.47 455.98 487.19 456.07 C 487.04 456.11 486.93 456.15 486.86 456.17 L 486.78 456.20 L 486.76 456.20 L 486.76 456.20 Z" fill="#835c54" fill-rule="evenodd" node-id="75" stroke="none" target-height="10.411987" target-width="34.207" target-x="484.527" target-y="445.793"></path><path d="M 513.01 932.34 C 405.31 931.92 349.69 918.21 349.69 918.21 L 370.88 990.20 C 370.88 990.20 373.56 1003.04 378.29 1024.00 L 685.37 1024.00 C 693.03 1003.04 697.50 990.20 697.50 990.20 L 693.09 920.86 C 693.09 920.86 620.70 932.76 513.01 932.34 Z" fill="#ffffff" fill-rule="nonzero" node-id="77" stroke="none" target-height="105.79303" target-width="347.807" target-x="349.695" target-y="918.207"></path><path d="M 105.39 1024.00 L 403.17 1024.00 C 387.20 915.54 375.30 792.79 375.30 792.79 C 375.30 792.79 347.00 796.09 291.92 805.12 L 258.77 808.70 C 253.35 809.73 248.09 810.68 242.99 811.61 C 177.38 823.50 128.50 834.00 116.04 936.35 L 105.39 1024.00 Z" fill="#353e4d" fill-rule="nonzero" node-id="79" stroke="none" target-height="231.20697" target-width="297.776" target-x="105.38901" target-y="792.793"></path><path d="M 619.61 1024.00 C 628.16 913.02 633.94 794.14 633.94 794.14 C 669.79 811.33 743.59 815.44 779.50 819.50 C 837.00 826.00 869.50 843.00 894.00 896.00 C 918.50 949.00 928.50 1024.00 928.50 1024.00 L 619.61 1024.00 Z" fill="#353e4d" fill-rule="nonzero" node-id="81" stroke="none" target-height="229.85791" target-width="308.89008" target-x="619.61" target-y="794.1421"></path></svg>