<?xml version="1.0" standalone="no"?><!DOCTYPE svg PUBLIC "-//W3C//DTD SVG 1.1//EN" "http://www.w3.org/Graphics/SVG/1.1/DTD/svg11.dtd"><svg t="1773110931583" class="icon" viewBox="0 0 1024 1024" version="1.1" xmlns="http://www.w3.org/2000/svg" p-id="2219" xmlns:xlink="http://www.w3.org/1999/xlink" width="200" height="200"><path d="M840.559089 661.152034l2.558871-39.40662 66.530657-44.012588c25.07694-16.376777 34.288877-50.665654 20.982746-77.789691l-35.8242-71.648399 35.8242-71.6484c13.306131-27.124037 4.094194-60.90114-20.982746-77.789691l-66.530657-44.012588-4.605968-79.836788c-2.047097-30.194683-27.124037-55.271622-56.806945-56.806945l-79.836788-4.605969-44.012589-66.530656c-16.376777-25.07694-50.665654-34.288877-77.789691-20.982746l-71.648399 35.8242-71.648399-35.8242C409.645144-7.225178 375.868041 1.986759 358.97949 27.063699l-44.012589 66.530656-79.325013 5.117743c-30.194683 2.047097-55.271622 27.124037-56.806946 56.806946L174.228974 235.355832l-66.530657 44.012588c-25.07694 16.376777-34.288877 50.665654-20.982745 77.789691l35.824199 71.648399-35.824199 71.6484c-13.306131 27.124037-4.094194 60.90114 20.982745 77.78969l66.530657 44.012589 2.047097 35.312425 2.558871 44.012588c0.511774 10.235486 4.094194 19.959197 9.211938 28.147586l-13.817906 22.006294-84.954531 137.155508c-9.211937 15.353228-2.558871 26.612263 14.841454 25.588714l115.660988-6.653066 52.200977 103.378405c8.188389 15.865003 22.006294 16.376777 31.730005 1.023549l97.237114-156.602931c11.770808 1.535323 24.565166 0.511774 35.8242-5.117743l71.648399-35.824199 71.648399 35.824199c10.74726 5.629517 22.518068 7.16484 34.288877 5.629518l90.072274 145.343896c9.211937 15.353228 23.541617 14.32968 32.24178-1.535323l52.712751-100.819534 113.61389 4.605969c17.9121 0.511774 24.565166-10.74726 15.353229-26.100489l-90.584048-145.85567c6.141291-8.700163 10.235486-19.447423 10.74726-30.194683l2.047097-40.430168z m-493.862182 191.403582L291.937059 941.604341l-41.965491-83.419208-86.489854 4.605968 65.507108-105.937276c2.558871 0.511774 5.117743 1.023549 7.676614 1.023548l79.836788 4.605969 44.012589 66.530657c0 0.511774 0.511774 0.511774 1.023548 1.023548l-14.841454 22.518069z m498.979925 0.511774l-85.466305-3.58242-42.98904 81.372111-61.412914-99.284211c0.511774-0.511774 1.023549-1.535323 1.535323-2.047097l44.012588-66.530657 79.836788-4.605968c1.535323 0 3.58242-0.511774 5.117743-1.023549l59.365817 95.701791z m-39.40662-265.099078c-2.558871 2.047097-5.117743 4.094194-6.653066 6.653065-2.558871 3.58242-3.58242 7.676614-4.094194 11.770809l-4.094194 67.042431-1.535323 25.07694c-0.511774 5.629517-6.141291 11.259034-11.259034 11.259034l-91.607597 5.629517c-7.676614 0.511774-14.32968 4.605969-18.935648 10.74726l-50.665654 76.766142c-3.070646 4.605969-10.74726 6.653066-15.865003 4.094194l-82.395659-40.941942c-1.535323-0.511774-3.070646-1.023549-4.094194-1.535323-4.605969-1.535323-9.723711-1.023549-14.32968 0.511774-1.023549 0.511774-2.047097 0.511774-3.070646 1.023549l-82.395659 40.941942c-5.117743 2.558871-12.794357 0.511774-15.865003-4.094194l-50.665654-76.766142c-4.094194-6.141291-11.259034-10.235486-18.935648-10.74726l-91.607597-5.629517c-5.629517-0.511774-11.259034-6.141291-11.259034-11.259034l-1.535323-28.65936-3.58242-62.948237c-0.511774-5.117743-2.558871-9.723711-5.629517-13.817905-1.535323-2.047097-3.070646-3.58242-5.117743-5.117743l-76.766142-50.665654c-4.605969-3.070646-6.653066-10.74726-4.094194-15.865003l40.941942-82.395659c3.58242-6.653066 3.58242-14.841454 0-21.49452l-40.941942-82.39566c-2.558871-5.117743-0.511774-12.794357 4.094194-15.865002l76.766142-50.665654c6.141291-4.094194 10.235486-11.259034 10.74726-18.935649l5.629517-91.607596c0.511774-5.629517 6.141291-11.259034 11.259034-11.259034l91.607597-5.629517c7.676614-0.511774 14.32968-4.605969 18.935648-10.74726l50.665654-76.766143c3.070646-4.605969 10.74726-6.653066 15.865003-4.094194l82.395659 40.941943c6.653066 3.58242 14.841454 3.58242 21.49452 0l82.39566-40.941943c5.117743-2.558871 12.794357-0.511774 15.865002 4.094194l50.665654 76.766143c4.094194 6.141291 11.259034 10.235486 18.935649 10.74726l91.607596 5.629517c5.629517 0.511774 11.259034 6.141291 11.259034 11.259034l5.629517 91.607596c0.511774 7.676614 4.605969 14.32968 10.74726 18.935649l76.766143 50.665654c4.605969 3.070646 6.653066 10.74726 4.094194 15.865002l-40.941943 82.39566c-3.58242 6.653066-3.58242 14.841454 0 21.49452l40.941943 82.395659c2.558871 5.117743 0.511774 12.794357-4.094194 15.865003l-77.277917 50.665654z" fill="#FFFFFF" p-id="2220"></path><path d="M650.179056 339.246011c7.16484 0 14.841454 2.558871 20.470971 8.188388 11.259034 11.259034 11.259034 29.171134 0 40.430169L556.012588 501.990232c-29.171134 29.171134-76.254368 29.171134-105.425502 0L335.949647 388.376342c-11.259034-11.259034-11.259034-29.171134 0-40.430168s29.171134-11.259034 40.430168 0l114.125665 114.125664c6.653066 6.653066 17.400326 6.653066 24.053391 0L629.708085 347.946174c5.629517-5.629517 13.306131-8.700163 20.470971-8.700163z" fill="#FFFFFF" p-id="2221"></path></svg>