<?xml version="1.0" standalone="no"?><!DOCTYPE svg PUBLIC "-//W3C//DTD SVG 1.1//EN" "http://www.w3.org/Graphics/SVG/1.1/DTD/svg11.dtd"><svg t="1773110927539" class="icon" viewBox="0 0 1024 1024" version="1.1" xmlns="http://www.w3.org/2000/svg" p-id="1897" xmlns:xlink="http://www.w3.org/1999/xlink" width="200" height="200"><path d="M512 0C229.693 0 0 229.682 0 511.988 0 794.293 229.659 1024 512 1024c282.307 0 512-229.707 512-512.012C1024 229.682 794.307 0 512 0z m0 981.204c-258.721 0-469.228-210.483-469.228-469.216C42.772 253.266 253.279 42.771 512 42.771c258.718 0 469.216 210.495 469.216 469.218 0 258.732-210.498 469.215-469.216 469.215z" fill="#FFFFFF" p-id="1898"></path><path d="M663.396 567.731c58.635 0 106.336-47.701 106.336-106.336 0-58.634-47.701-106.339-106.336-106.339-58.636 0-106.339 47.705-106.339 106.339 0.001 58.635 47.704 106.336 106.339 106.336z m0-177.602c39.296 0 71.264 31.973 71.264 71.267 0 39.296-31.968 71.266-71.264 71.266-39.294 0-71.266-31.97-71.266-71.266 0.001-39.294 31.973-71.267 71.266-71.267zM663.396 593.351c-39.04 0-75.77 14.594-103.873 40.624-35.231-49.316-92.899-81.555-157.991-81.555-107.029 0-194.104 87.076-194.104 194.104 0 9.686 7.853 17.536 17.536 17.536s17.534-7.853 17.534-17.536c0-87.691 71.342-159.034 159.034-159.034 87.691 0 159.034 71.343 159.034 159.034 0 9.686 7.851 17.536 17.536 17.536 9.684 0 17.534-7.853 17.534-17.536 0-29.006-6.44-56.522-17.895-81.261 22.264-23.515 52.904-36.843 85.654-36.843 65.121 0 118.104 52.982 118.104 118.104 0 9.686 7.852 17.536 17.534 17.536s17.536-7.853 17.536-17.536c0.001-84.462-68.71-153.173-153.173-153.173zM401.532 524.426c72.919 0 132.243-59.323 132.243-132.242s-59.324-132.242-132.243-132.242S269.29 319.265 269.29 392.184s59.323 132.242 132.242 132.242z m0-229.412c53.58 0 97.172 43.592 97.172 97.172 0 53.578-43.592 97.17-97.172 97.17s-97.17-43.592-97.17-97.17c0-53.581 43.59-97.172 97.17-97.172z" fill="#FFFFFF" p-id="1899"></path></svg>