<?xml version="1.0" standalone="no"?><!DOCTYPE svg PUBLIC "-//W3C//DTD SVG 1.1//EN" "http://www.w3.org/Graphics/SVG/1.1/DTD/svg11.dtd"><svg t="1773110933774" class="icon" viewBox="0 0 1024 1024" version="1.1" xmlns="http://www.w3.org/2000/svg" p-id="2380" xmlns:xlink="http://www.w3.org/1999/xlink" width="200" height="200"><path d="M890.434783 218.156522c-51.2-51.2-113.530435-77.913043-186.991305-77.913044-77.913043 0-142.469565 26.713043-191.443478 82.365218-48.973913-55.652174-113.530435-82.365217-191.443478-80.139131-73.46087 0-135.791304 26.713043-186.991305 77.913044-51.2 51.2-77.913043 113.530435-77.913043 186.991304 0 113.530435 55.652174 227.06087 166.956522 338.365217 91.269565 93.495652 184.765217 155.826087 280.486956 186.991305l8.904348 2.226087 8.904348-4.452174c95.721739-31.165217 189.217391-93.495652 280.486956-186.991305 111.304348-111.304348 166.956522-224.834783 166.956522-338.365217 0-73.46087-26.713043-135.791304-77.913043-186.991304z m-131.339131 483.060869c-82.365217 82.365217-164.730435 138.017391-247.095652 169.182609-82.365217-28.93913-166.956522-86.817391-247.095652-169.182609-100.173913-100.173913-149.147826-198.121739-149.147826-296.069565 0-55.652174 20.034783-104.626087 60.104348-144.695652C215.930435 220.382609 262.678261 200.347826 320.556522 200.347826c71.234783 0 126.886957 28.93913 166.956521 86.817391l24.486957 35.617392 24.486957-35.617392c40.069565-57.878261 95.721739-86.817391 166.956521-86.817391 55.652174 0 104.626087 20.034783 144.695652 60.104348 40.069565 40.069565 60.104348 89.043478 60.104348 144.695652 0 97.947826-48.973913 198.121739-149.147826 296.069565z" fill="#FFFFFF" p-id="2381"></path><path d="M534.26087 745.73913l-37.843479 37.843479-264.904348-247.095652c-20.034783-26.713043-31.165217-57.878261-31.165217-89.043479 0-80.13913 64.556522-144.695652 144.695652-144.695652V356.173913c-51.2 0-91.269565 42.295652-91.269565 91.269565 0 20.034783 6.678261 40.069565 17.808696 55.652174L534.26087 745.73913zM759.095652 325.008696l-26.713043 46.747826c-22.26087-11.130435-46.747826-13.356522-69.008696-6.678261s-42.295652 22.26087-53.426087 44.521739l-46.747826-26.713043c37.843478-69.008696 126.886957-95.721739 195.895652-57.878261z" fill="#FFFFFF" p-id="2382"></path></svg>