<?xml version="1.0" standalone="no"?><!DOCTYPE svg PUBLIC "-//W3C//DTD SVG 1.1//EN" "http://www.w3.org/Graphics/SVG/1.1/DTD/svg11.dtd"><svg height="1641" node-id="1" sillyvg="true" template-height="1641" template-width="1200" version="1.1" viewBox="0 0 1200 1641" width="1200" xmlns="http://www.w3.org/2000/svg" xmlns:xlink="http://www.w3.org/1999/xlink"><defs node-id="26"></defs><g node-id="39"><path d="M 773.61 1478.19 C 688.25 1463.94 610.43 1462.57 558.84 1472.04 C 521.33 1470.89 479.13 1472.62 434.70 1477.71 C 286.70 1494.65 170.63 1542.16 175.39 1583.77 C 180.16 1625.39 303.97 1645.42 451.96 1628.45 C 513.29 1621.42 569.10 1609.16 613.17 1594.23 C 652.08 1607.73 698.41 1619.49 748.63 1627.86 C 895.55 1652.39 1020.22 1638.77 1027.13 1597.46 C 1034.01 1556.11 920.52 1502.73 773.61 1478.19 Z" fill="#ffe38f" fill-rule="nonzero" group-id="1" id="Shape" node-id="9" stroke="none" target-height="189.82202" target-width="863.3796" target-x="170.63155" target-y="1462.5696"></path><path d="M 157.11 519.73 C 157.11 519.73 -47.67 757.37 10.62 1112.26 C 10.62 1112.26 79.10 1307.36 97.36 987.01 C 115.60 666.63 157.11 660.64 157.11 519.73 Z" fill="#9595ab" fill-rule="nonzero" group-id="1" id="Shape" node-id="10" stroke="none" target-height="787.6311" target-width="204.77182" target-x="-47.66679" target-y="519.7285"></path><path d="M 1042.91 519.73 C 1042.91 519.73 1247.65 757.39 1189.39 1112.26 C 1189.39 1112.26 1120.92 1307.36 1102.65 987.01 C 1084.41 666.63 1042.91 660.64 1042.91 519.73 Z" fill="#9595ab" fill-rule="nonzero" group-id="1" id="Shape" node-id="11" stroke="none" target-height="787.6311" target-width="204.74365" target-x="1042.909" target-y="519.7285"></path><path d="M 978.64 346.14 C 1044.35 516.49 1125.71 706.78 1125.71 897.53 C 1125.71 1325.91 924.68 1551.46 603.85 1551.46 C 282.99 1551.46 81.98 1305.61 81.98 877.26 C 81.98 691.28 139.67 501.45 222.64 346.21 C 330.72 143.89 349.59 0.27 603.83 0.27 C 807.38 0.27 892.89 123.83 978.64 346.14 Z" fill="#9595ab" fill-rule="nonzero" group-id="1" id="Shape" node-id="12" stroke="none" target-height="1551.1891" target-width="1043.7262" target-x="81.98351" target-y="0.27486756"></path><path d="M 905.76 317.29 C 961.09 460.71 1029.58 620.94 1029.58 781.54 C 1029.58 1142.20 860.34 1332.14 590.19 1332.14 C 320.04 1332.14 150.79 1125.12 150.79 764.47 C 150.79 607.86 199.38 448.03 269.23 317.32 C 360.22 147.00 376.10 26.07 590.18 26.07 C 761.55 26.07 833.54 130.11 905.76 317.29 Z" fill="#a9a9ba" fill-rule="nonzero" group-id="1" id="Shape" node-id="13" stroke="none" target-height="1306.0773" target-width="878.7872" target-x="150.79265" target-y="26.066845"></path><g node-id="40"><g node-id="43"><path d="M 785.37 314.09 C 785.37 352.21 756.63 354.00 712.03 378.32 C 680.31 395.59 640.57 436.77 597.42 436.77 C 558.66 436.77 522.63 395.28 492.72 378.32 C 442.52 349.86 409.51 344.32 409.51 314.09 C 409.51 314.09 493.63 293.43 597.42 293.43 C 701.22 293.43 785.37 314.09 785.37 314.09 Z" fill="#6e6e96" fill-opacity="0.59" fill-rule="nonzero" group-id="1,2,5" node-id="37" stroke="none" target-height="143.33887" target-width="375.86118" target-x="409.5085" target-y="293.43405"></path></g></g><path d="M 1031.59 1004.65 C 1031.59 1330.16 865.59 1501.56 600.66 1501.56 C 335.73 1501.56 169.75 1314.74 169.75 989.24 C 169.75 663.74 422.43 461.52 600.66 461.52 C 778.91 461.52 1031.59 679.16 1031.59 1004.65 Z" fill="#f0f0ff" fill-rule="nonzero" group-id="1" id="Shape" node-id="17" stroke="none" target-height="1040.0415" target-width="861.83673" target-x="169.75092" target-y="461.5152"></path><path d="M 545.71 131.52 C 545.71 150.13 533.70 165.21 518.89 165.21 C 504.08 165.21 492.07 150.13 492.07 131.52 C 492.07 112.91 504.08 97.82 518.89 97.82 C 533.70 97.82 545.71 112.91 545.71 131.52 Z" fill="#6e6e96" fill-rule="nonzero" group-id="1" id="Oval" node-id="18" stroke="none" target-height="67.393074" target-width="53.641113" target-x="492.06964" target-y="97.82082"></path><path d="M 715.05 133.79 C 715.05 153.65 702.24 169.75 686.43 169.75 C 670.62 169.75 657.80 153.65 657.80 133.79 C 657.80 113.92 670.62 97.82 686.43 97.82 C 702.24 97.82 715.05 113.92 715.05 133.79 Z" fill="#6e6e96" fill-rule="nonzero" group-id="1" id="Oval" node-id="19" stroke="none" target-height="71.93009" target-width="57.24817" target-x="657.80475" target-y="97.82082"></path><path d="M 793.80 291.27 C 793.80 283.01 766.70 285.66 724.12 266.73 C 690.06 251.61 646.12 213.39 598.10 213.39 C 544.09 213.39 495.19 251.09 459.75 266.78 C 424.35 282.46 402.45 276.15 402.45 291.28 C 402.45 315.26 436.83 319.66 489.08 342.24 C 520.24 355.69 557.75 378.73 598.10 378.73 C 643.00 378.73 684.38 355.95 717.41 342.24 C 763.71 323.00 793.58 321.52 793.77 291.52 C 793.78 291.43 793.80 291.35 793.80 291.27 Z" fill="#ffe38f" fill-rule="nonzero" group-id="1" id="Shape" node-id="20" stroke="none" target-height="165.34059" target-width="391.34628" target-x="402.44937" target-y="213.38805"></path><path d="M 927.41 932.76 C 927.41 1196.30 793.01 1335.07 578.51 1335.07 C 363.99 1335.07 229.61 1183.82 229.61 920.28 C 229.61 656.75 434.20 493.01 578.51 493.01 C 722.82 493.02 927.41 669.23 927.41 932.76 Z" fill="#ffffff" fill-rule="nonzero" group-id="1" id="Shape" node-id="21" stroke="none" target-height="842.06116" target-width="697.79236" target-x="229.61282" target-y="493.0137"></path><g node-id="41"><path d="M 415.33 296.70 L 783.46 296.70 C 783.46 296.70 666.39 378.71 598.10 378.71 C 529.87 378.71 402.56 316.45 415.33 296.70 Z" fill="#6e6e96" fill-opacity="0.15" fill-rule="nonzero" group-id="1,3" id="Shape" node-id="23" stroke="none" target-height="82.011566" target-width="380.90546" target-x="402.55505" target-y="296.70297"></path></g><path d="M 881.42 1502.94 C 915.51 1522.36 935.22 1543.50 932.60 1562.02 C 927.22 1599.96 830.30 1612.45 716.10 1589.94 C 677.07 1582.24 641.07 1571.44 610.81 1559.04 C 576.56 1572.75 533.16 1584.01 485.49 1590.47 C 370.45 1606.05 274.19 1587.67 270.48 1549.46 C 268.91 1533.33 284.16 1516.22 310.92 1500.68 C 227.25 1523.05 172.08 1554.84 175.40 1583.77 C 180.18 1625.39 303.99 1645.42 451.97 1628.45 C 513.30 1621.42 569.12 1609.16 613.18 1594.23 C 652.10 1607.73 698.43 1619.49 748.64 1627.86 C 895.56 1652.39 1020.23 1638.78 1027.14 1597.46 C 1032.19 1567.04 972.05 1530.10 881.42 1502.94 Z" fill="#ffc58f" fill-opacity="0.68" fill-rule="nonzero" group-id="1,4" id="Shape" node-id="24" stroke="none" target-height="151.71545" target-width="860.1037" target-x="172.08282" target-y="1500.6761"></path></g></svg>