<?xml version="1.0" standalone="no"?><!DOCTYPE svg PUBLIC "-//W3C//DTD SVG 1.1//EN" "http://www.w3.org/Graphics/SVG/1.1/DTD/svg11.dtd"><svg t="1772545284660" class="icon" viewBox="0 0 1024 1024" version="1.1" xmlns="http://www.w3.org/2000/svg" p-id="1192" xmlns:xlink="http://www.w3.org/1999/xlink" width="200" height="200"><path d="M521.6 89.6c105.6 0 192 86.4 192 192s-86.4 192-192 192-192-86.4-192-192 86.4-192 192-192m0-48c-134.4 0-240 105.6-240 240s105.6 240 240 240 240-105.6 240-240-105.6-240-240-240z" fill="" p-id="1193"></path><path d="M512 473.6v48c67.2 0 124.8 9.6 158.4 14.4 14.4 0 28.8 9.6 43.2 14.4 9.6 4.8 14.4 4.8 24 9.6 153.6 72 206.4 196.8 187.2 288-9.6 38.4-33.6 86.4-81.6 91.2H176c-43.2 0-67.2-43.2-76.8-81.6-19.2-91.2 28.8-220.8 192-297.6 67.2-24 139.2-33.6 220.8-33.6V473.6m0 0c-72 0-158.4 9.6-240 38.4-316.8 148.8-259.2 470.4-96 470.4h672c168-14.4 206.4-331.2-96-470.4-4.8 0-43.2-14.4-72-19.2-43.2-9.6-100.8-19.2-168-19.2z" fill="" p-id="1194"></path></svg>