<?xml version="1.0" standalone="no"?><!DOCTYPE svg PUBLIC "-//W3C//DTD SVG 1.1//EN" "http://www.w3.org/Graphics/SVG/1.1/DTD/svg11.dtd"><svg t="1772545286851" class="icon" viewBox="0 0 1024 1024" version="1.1" xmlns="http://www.w3.org/2000/svg" p-id="1357" xmlns:xlink="http://www.w3.org/1999/xlink" width="200" height="200"><path d="M515 242c-288 0-462 294-462 294s201 285 462 285 462-285 462-285S803 242 515 242zM812 644c-96 81-198 132-300 132s-204-48-300-132c-33-30-66-60-93-93-6-6-9-12-15-18 3-6 9-12 12-18 24-33 54-66 87-96 93-84 195-135 309-135s216 51 309 135c33 30 60 63 87 96 3 6 9 12 12 18-3 6-9 12-15 18C878 581 848 614 812 644z" p-id="1358"></path><path d="M512 356c-90 0-159 72-159 159 0 90 72 159 159 159 90 0 159-72 159-159C671 428 599 356 512 356zM512 632c-63 0-114-51-114-114 0-63 51-114 114-114 63 0 114 51 114 114C626 578 575 632 512 632z" p-id="1359"></path></svg>